G04 EAGLE Gerber RS-274X export*
G75*
%MOMM*%
%FSLAX34Y34*%
%LPD*%
%INBottom Copper*%
%IPPOS*%
%AMOC8*
5,1,8,0,0,1.08239X$1,22.5*%
G01*
%ADD10P,2.336880X8X22.500000*%
%ADD11C,1.308000*%
%ADD12C,0.381000*%

G36*
X547632Y10164D02*
X547632Y10164D01*
X547665Y10162D01*
X547826Y10184D01*
X547987Y10201D01*
X548018Y10211D01*
X548051Y10215D01*
X548204Y10270D01*
X548358Y10319D01*
X548387Y10335D01*
X548419Y10346D01*
X548557Y10430D01*
X548698Y10510D01*
X548723Y10532D01*
X548751Y10549D01*
X548870Y10660D01*
X548991Y10766D01*
X549012Y10793D01*
X549036Y10815D01*
X549129Y10948D01*
X549227Y11077D01*
X549241Y11107D01*
X549260Y11134D01*
X549324Y11283D01*
X549394Y11429D01*
X549402Y11461D01*
X549415Y11492D01*
X549448Y11651D01*
X549486Y11808D01*
X549487Y11841D01*
X549494Y11874D01*
X549493Y12036D01*
X549499Y12198D01*
X549493Y12230D01*
X549493Y12264D01*
X549459Y12422D01*
X549432Y12582D01*
X549420Y12612D01*
X549413Y12645D01*
X549348Y12794D01*
X549288Y12944D01*
X549270Y12972D01*
X549257Y13002D01*
X549206Y13069D01*
X549074Y13269D01*
X548990Y13353D01*
X548945Y13412D01*
X546983Y15374D01*
X543472Y21455D01*
X541654Y28239D01*
X541654Y35261D01*
X543262Y41261D01*
X543276Y41348D01*
X543299Y41432D01*
X543307Y41539D01*
X543324Y41646D01*
X543320Y41734D01*
X543326Y41821D01*
X543311Y41928D01*
X543306Y42036D01*
X543284Y42120D01*
X543272Y42207D01*
X543236Y42309D01*
X543209Y42413D01*
X543171Y42492D01*
X543141Y42574D01*
X543085Y42666D01*
X543038Y42763D01*
X542984Y42832D01*
X542939Y42907D01*
X542865Y42986D01*
X542798Y43071D01*
X542732Y43127D01*
X542672Y43191D01*
X542584Y43253D01*
X542501Y43323D01*
X542425Y43365D01*
X542353Y43416D01*
X542254Y43458D01*
X542159Y43510D01*
X542076Y43536D01*
X541996Y43570D01*
X541890Y43592D01*
X541786Y43623D01*
X541699Y43631D01*
X541614Y43649D01*
X541506Y43649D01*
X541398Y43658D01*
X541311Y43648D01*
X541224Y43648D01*
X541118Y43626D01*
X541011Y43613D01*
X540928Y43586D01*
X540843Y43568D01*
X540744Y43525D01*
X540641Y43491D01*
X540565Y43447D01*
X540485Y43412D01*
X540422Y43364D01*
X540304Y43295D01*
X540147Y43154D01*
X540076Y43101D01*
X524687Y27712D01*
X522121Y25145D01*
X233529Y25145D01*
X230963Y27712D01*
X215645Y43029D01*
X215645Y96671D01*
X218212Y99237D01*
X257392Y138417D01*
X257434Y138469D01*
X257482Y138514D01*
X257557Y138620D01*
X257638Y138720D01*
X257669Y138779D01*
X257707Y138833D01*
X257758Y138951D01*
X257817Y139066D01*
X257835Y139130D01*
X257861Y139191D01*
X257887Y139317D01*
X257922Y139441D01*
X257927Y139508D01*
X257940Y139573D01*
X257940Y139701D01*
X257949Y139830D01*
X257939Y139896D01*
X257939Y139963D01*
X257913Y140089D01*
X257895Y140216D01*
X257873Y140279D01*
X257859Y140344D01*
X257808Y140462D01*
X257764Y140583D01*
X257730Y140640D01*
X257703Y140701D01*
X257650Y140771D01*
X257561Y140916D01*
X257555Y140923D01*
X257555Y151153D01*
X264772Y158370D01*
X274978Y158370D01*
X282195Y151153D01*
X282195Y140947D01*
X275944Y134696D01*
X275902Y134645D01*
X275854Y134600D01*
X275779Y134494D01*
X275698Y134394D01*
X275668Y134335D01*
X275629Y134281D01*
X275578Y134162D01*
X275519Y134048D01*
X275501Y133984D01*
X275475Y133923D01*
X275449Y133797D01*
X275414Y133673D01*
X275410Y133606D01*
X275396Y133541D01*
X275396Y133412D01*
X275388Y133284D01*
X275397Y133218D01*
X275397Y133151D01*
X275423Y133025D01*
X275441Y132898D01*
X275463Y132835D01*
X275477Y132770D01*
X275529Y132652D01*
X275572Y132530D01*
X275606Y132474D01*
X275633Y132413D01*
X275686Y132343D01*
X275775Y132198D01*
X275891Y132073D01*
X275944Y132003D01*
X282195Y125753D01*
X282195Y117017D01*
X282198Y116984D01*
X282196Y116951D01*
X282218Y116791D01*
X282235Y116630D01*
X282245Y116598D01*
X282249Y116565D01*
X282304Y116412D01*
X282353Y116258D01*
X282369Y116229D01*
X282380Y116198D01*
X282464Y116060D01*
X282544Y115918D01*
X282566Y115893D01*
X282583Y115865D01*
X282694Y115747D01*
X282800Y115625D01*
X282827Y115605D01*
X282849Y115580D01*
X282982Y115487D01*
X283111Y115389D01*
X283141Y115375D01*
X283168Y115356D01*
X283317Y115292D01*
X283463Y115222D01*
X283495Y115215D01*
X283526Y115201D01*
X283685Y115169D01*
X283842Y115131D01*
X283875Y115129D01*
X283908Y115123D01*
X284070Y115123D01*
X284232Y115118D01*
X284264Y115123D01*
X284298Y115123D01*
X284456Y115157D01*
X284616Y115185D01*
X284646Y115197D01*
X284679Y115204D01*
X284828Y115269D01*
X284978Y115328D01*
X285006Y115346D01*
X285036Y115360D01*
X285103Y115410D01*
X285303Y115542D01*
X285387Y115627D01*
X285445Y115671D01*
X304953Y135178D01*
X304995Y135230D01*
X305044Y135275D01*
X305118Y135381D01*
X305199Y135481D01*
X305230Y135540D01*
X305268Y135594D01*
X305319Y135713D01*
X305378Y135827D01*
X305396Y135891D01*
X305423Y135952D01*
X305449Y136078D01*
X305483Y136202D01*
X305488Y136269D01*
X305501Y136334D01*
X305501Y136463D01*
X305510Y136591D01*
X305501Y136657D01*
X305500Y136724D01*
X305474Y136850D01*
X305456Y136977D01*
X305434Y137040D01*
X305420Y137105D01*
X305369Y137223D01*
X305325Y137345D01*
X305291Y137401D01*
X305264Y137462D01*
X305211Y137532D01*
X305123Y137677D01*
X305006Y137802D01*
X304953Y137871D01*
X241045Y201779D01*
X241045Y312116D01*
X241035Y312215D01*
X241035Y312314D01*
X241015Y312408D01*
X241005Y312503D01*
X240975Y312598D01*
X240955Y312696D01*
X240916Y312783D01*
X240887Y312875D01*
X240838Y312962D01*
X240799Y313053D01*
X240754Y313111D01*
X240696Y313215D01*
X240538Y313396D01*
X240488Y313462D01*
X183895Y370054D01*
X183895Y649121D01*
X224004Y689230D01*
X293521Y689230D01*
X308230Y674521D01*
X308230Y627229D01*
X305663Y624663D01*
X282358Y601358D01*
X282316Y601306D01*
X282268Y601261D01*
X282193Y601155D01*
X282112Y601055D01*
X282081Y600996D01*
X282043Y600942D01*
X281992Y600824D01*
X281933Y600709D01*
X281915Y600645D01*
X281889Y600584D01*
X281863Y600458D01*
X281828Y600334D01*
X281823Y600267D01*
X281810Y600202D01*
X281810Y600074D01*
X281801Y599945D01*
X281811Y599879D01*
X281811Y599812D01*
X281837Y599686D01*
X281855Y599559D01*
X281877Y599496D01*
X281891Y599431D01*
X281942Y599313D01*
X281986Y599192D01*
X282020Y599135D01*
X282047Y599074D01*
X282100Y599004D01*
X282189Y598859D01*
X282195Y598852D01*
X282195Y588622D01*
X276663Y583090D01*
X276621Y583038D01*
X276572Y582993D01*
X276498Y582887D01*
X276417Y582788D01*
X276386Y582729D01*
X276348Y582674D01*
X276297Y582556D01*
X276237Y582441D01*
X276219Y582377D01*
X276193Y582316D01*
X276167Y582190D01*
X276132Y582066D01*
X276128Y582000D01*
X276115Y581935D01*
X276115Y581806D01*
X276106Y581677D01*
X276115Y581611D01*
X276115Y581545D01*
X276142Y581419D01*
X276159Y581291D01*
X276182Y581228D01*
X276195Y581163D01*
X276247Y581045D01*
X276290Y580924D01*
X276325Y580867D01*
X276352Y580806D01*
X276405Y580736D01*
X276493Y580591D01*
X276610Y580467D01*
X276663Y580397D01*
X283211Y573849D01*
X283211Y570864D01*
X270510Y570864D01*
X270444Y570857D01*
X270378Y570860D01*
X270251Y570838D01*
X270122Y570824D01*
X270059Y570804D01*
X269994Y570793D01*
X269886Y570750D01*
X269876Y570755D01*
X269811Y570771D01*
X269749Y570795D01*
X269662Y570807D01*
X269497Y570847D01*
X269327Y570852D01*
X269240Y570864D01*
X256539Y570864D01*
X256539Y573849D01*
X263087Y580397D01*
X263129Y580448D01*
X263178Y580494D01*
X263252Y580599D01*
X263333Y580699D01*
X263364Y580758D01*
X263402Y580813D01*
X263453Y580931D01*
X263513Y581045D01*
X263530Y581109D01*
X263557Y581170D01*
X263583Y581297D01*
X263618Y581421D01*
X263622Y581487D01*
X263635Y581552D01*
X263635Y581681D01*
X263644Y581810D01*
X263635Y581875D01*
X263635Y581942D01*
X263608Y582068D01*
X263591Y582196D01*
X263568Y582258D01*
X263555Y582323D01*
X263503Y582441D01*
X263460Y582563D01*
X263425Y582620D01*
X263398Y582681D01*
X263345Y582750D01*
X263257Y582896D01*
X263140Y583020D01*
X263087Y583090D01*
X257555Y588622D01*
X257555Y597358D01*
X257552Y597391D01*
X257554Y597424D01*
X257532Y597584D01*
X257515Y597745D01*
X257505Y597777D01*
X257501Y597810D01*
X257446Y597963D01*
X257397Y598117D01*
X257381Y598146D01*
X257370Y598177D01*
X257286Y598315D01*
X257206Y598457D01*
X257184Y598482D01*
X257167Y598510D01*
X257056Y598628D01*
X256950Y598750D01*
X256923Y598770D01*
X256901Y598795D01*
X256768Y598888D01*
X256639Y598986D01*
X256609Y599000D01*
X256582Y599019D01*
X256433Y599083D01*
X256287Y599153D01*
X256255Y599160D01*
X256224Y599174D01*
X256065Y599206D01*
X255908Y599244D01*
X255875Y599246D01*
X255842Y599252D01*
X255680Y599252D01*
X255518Y599257D01*
X255486Y599252D01*
X255452Y599252D01*
X255294Y599218D01*
X255134Y599190D01*
X255104Y599178D01*
X255071Y599171D01*
X254922Y599106D01*
X254772Y599047D01*
X254744Y599029D01*
X254714Y599015D01*
X254647Y598965D01*
X254447Y598833D01*
X254363Y598748D01*
X254305Y598704D01*
X235762Y580162D01*
X235700Y580085D01*
X235629Y580014D01*
X235577Y579934D01*
X235517Y579860D01*
X235471Y579771D01*
X235416Y579688D01*
X235381Y579599D01*
X235337Y579514D01*
X235310Y579418D01*
X235274Y579325D01*
X235264Y579253D01*
X235232Y579138D01*
X235216Y578898D01*
X235205Y578816D01*
X235205Y395909D01*
X235215Y395810D01*
X235215Y395711D01*
X235235Y395617D01*
X235245Y395522D01*
X235275Y395427D01*
X235295Y395329D01*
X235334Y395242D01*
X235363Y395150D01*
X235412Y395063D01*
X235451Y394972D01*
X235496Y394914D01*
X235554Y394810D01*
X235712Y394629D01*
X235762Y394563D01*
X262242Y368083D01*
X262294Y368041D01*
X262339Y367993D01*
X262445Y367918D01*
X262545Y367837D01*
X262604Y367806D01*
X262658Y367768D01*
X262776Y367717D01*
X262891Y367658D01*
X262955Y367640D01*
X263016Y367614D01*
X263142Y367588D01*
X263266Y367553D01*
X263333Y367548D01*
X263398Y367535D01*
X263526Y367535D01*
X263655Y367526D01*
X263721Y367536D01*
X263788Y367536D01*
X263914Y367562D01*
X264041Y367580D01*
X264104Y367602D01*
X264169Y367616D01*
X264287Y367667D01*
X264408Y367711D01*
X264465Y367745D01*
X264526Y367772D01*
X264596Y367825D01*
X264741Y367914D01*
X264748Y367920D01*
X274978Y367920D01*
X282195Y360703D01*
X282195Y350460D01*
X282193Y350458D01*
X282112Y350358D01*
X282082Y350299D01*
X282043Y350245D01*
X281992Y350126D01*
X281933Y350012D01*
X281915Y349948D01*
X281889Y349887D01*
X281863Y349761D01*
X281828Y349636D01*
X281823Y349570D01*
X281810Y349505D01*
X281810Y349376D01*
X281801Y349248D01*
X281811Y349182D01*
X281811Y349115D01*
X281837Y348989D01*
X281855Y348861D01*
X281877Y348799D01*
X281891Y348734D01*
X281942Y348616D01*
X281986Y348494D01*
X282020Y348437D01*
X282047Y348377D01*
X282100Y348307D01*
X282189Y348161D01*
X282305Y348037D01*
X282358Y347967D01*
X349479Y280846D01*
X352046Y278280D01*
X352046Y264780D01*
X352056Y264681D01*
X352056Y264582D01*
X352076Y264488D01*
X352086Y264392D01*
X352116Y264297D01*
X352136Y264200D01*
X352175Y264112D01*
X352204Y264021D01*
X352252Y263934D01*
X352292Y263843D01*
X352337Y263785D01*
X352395Y263681D01*
X352553Y263500D01*
X352603Y263434D01*
X353619Y262418D01*
X353645Y262396D01*
X353667Y262371D01*
X353796Y262274D01*
X353922Y262172D01*
X353951Y262156D01*
X353978Y262136D01*
X354124Y262067D01*
X354268Y261992D01*
X354300Y261983D01*
X354330Y261969D01*
X354487Y261931D01*
X354643Y261887D01*
X354677Y261885D01*
X354709Y261877D01*
X354871Y261872D01*
X355032Y261861D01*
X355065Y261866D01*
X355099Y261864D01*
X355258Y261892D01*
X355418Y261914D01*
X355450Y261925D01*
X355483Y261931D01*
X355633Y261991D01*
X355786Y262045D01*
X355814Y262063D01*
X355845Y262075D01*
X355980Y262164D01*
X356118Y262248D01*
X356143Y262271D01*
X356171Y262289D01*
X356285Y262404D01*
X356403Y262514D01*
X356422Y262542D01*
X356446Y262565D01*
X356534Y262701D01*
X356627Y262833D01*
X356641Y262864D01*
X356659Y262892D01*
X356718Y263042D01*
X356782Y263191D01*
X356789Y263224D01*
X356801Y263255D01*
X356812Y263337D01*
X356861Y263573D01*
X356860Y263692D01*
X356870Y263764D01*
X356870Y265129D01*
X358098Y268093D01*
X360367Y270362D01*
X363331Y271590D01*
X379619Y271590D01*
X382583Y270362D01*
X384852Y268093D01*
X386080Y265129D01*
X386080Y261921D01*
X384852Y258957D01*
X383845Y257950D01*
X383824Y257924D01*
X383799Y257902D01*
X383701Y257773D01*
X383599Y257647D01*
X383583Y257618D01*
X383563Y257591D01*
X383494Y257445D01*
X383420Y257301D01*
X383411Y257269D01*
X383396Y257239D01*
X383358Y257082D01*
X383315Y256926D01*
X383312Y256892D01*
X383304Y256860D01*
X383299Y256698D01*
X383288Y256537D01*
X383293Y256504D01*
X383292Y256470D01*
X383319Y256311D01*
X383342Y256151D01*
X383353Y256119D01*
X383358Y256086D01*
X383418Y255936D01*
X383472Y255783D01*
X383490Y255755D01*
X383502Y255724D01*
X383591Y255589D01*
X383675Y255451D01*
X383698Y255426D01*
X383716Y255398D01*
X383831Y255284D01*
X383942Y255166D01*
X383969Y255147D01*
X383992Y255123D01*
X384128Y255035D01*
X384260Y254942D01*
X384291Y254928D01*
X384319Y254910D01*
X384469Y254851D01*
X384618Y254787D01*
X384651Y254780D01*
X384682Y254768D01*
X384764Y254757D01*
X385000Y254708D01*
X385119Y254709D01*
X385191Y254699D01*
X386740Y254699D01*
X397764Y243675D01*
X397764Y229400D01*
X395197Y226833D01*
X385987Y217624D01*
X385935Y217559D01*
X385875Y217502D01*
X385812Y217408D01*
X385741Y217321D01*
X385703Y217248D01*
X385657Y217179D01*
X385614Y217075D01*
X385562Y216975D01*
X385540Y216895D01*
X385508Y216819D01*
X385487Y216708D01*
X385457Y216600D01*
X385452Y216517D01*
X385436Y216435D01*
X385438Y216323D01*
X385431Y216211D01*
X385442Y216129D01*
X385444Y216046D01*
X385465Y215967D01*
X385484Y215825D01*
X385552Y215635D01*
X385575Y215549D01*
X386080Y214329D01*
X386080Y211121D01*
X384852Y208157D01*
X382583Y205888D01*
X379619Y204660D01*
X363331Y204660D01*
X360367Y205888D01*
X358098Y208157D01*
X356870Y211121D01*
X356870Y214329D01*
X358098Y217293D01*
X360367Y219562D01*
X363331Y220790D01*
X378664Y220790D01*
X378763Y220800D01*
X378863Y220800D01*
X378956Y220820D01*
X379052Y220830D01*
X379146Y220860D01*
X379244Y220880D01*
X379332Y220919D01*
X379423Y220948D01*
X379510Y220997D01*
X379601Y221036D01*
X379659Y221081D01*
X379763Y221139D01*
X379944Y221297D01*
X380010Y221347D01*
X390347Y231684D01*
X390409Y231761D01*
X390480Y231831D01*
X390532Y231912D01*
X390592Y231986D01*
X390638Y232074D01*
X390693Y232158D01*
X390728Y232247D01*
X390772Y232332D01*
X390799Y232428D01*
X390835Y232521D01*
X390845Y232593D01*
X390877Y232707D01*
X390893Y232947D01*
X390904Y233030D01*
X390904Y240045D01*
X390894Y240144D01*
X390894Y240243D01*
X390874Y240337D01*
X390864Y240433D01*
X390834Y240527D01*
X390814Y240625D01*
X390775Y240713D01*
X390746Y240804D01*
X390698Y240891D01*
X390658Y240982D01*
X390613Y241040D01*
X390555Y241144D01*
X390397Y241325D01*
X390347Y241391D01*
X388657Y243081D01*
X388644Y243092D01*
X388633Y243105D01*
X388493Y243214D01*
X388354Y243327D01*
X388339Y243335D01*
X388326Y243345D01*
X388167Y243424D01*
X388008Y243507D01*
X387992Y243511D01*
X387977Y243518D01*
X387805Y243563D01*
X387633Y243612D01*
X387616Y243613D01*
X387600Y243617D01*
X387421Y243626D01*
X387244Y243638D01*
X387227Y243636D01*
X387211Y243636D01*
X387034Y243609D01*
X386858Y243585D01*
X386842Y243579D01*
X386826Y243576D01*
X386658Y243513D01*
X386491Y243454D01*
X386476Y243445D01*
X386461Y243439D01*
X386310Y243344D01*
X386158Y243251D01*
X386146Y243239D01*
X386131Y243230D01*
X386003Y243106D01*
X385873Y242984D01*
X385864Y242971D01*
X385852Y242959D01*
X385751Y242811D01*
X385649Y242666D01*
X385642Y242650D01*
X385633Y242637D01*
X385565Y242471D01*
X385494Y242308D01*
X385491Y242292D01*
X385484Y242276D01*
X385451Y242101D01*
X385415Y241926D01*
X385416Y241909D01*
X385412Y241893D01*
X385416Y241715D01*
X385416Y241536D01*
X385420Y241520D01*
X385420Y241503D01*
X385436Y241444D01*
X385496Y241155D01*
X385535Y241067D01*
X385551Y241006D01*
X386080Y239729D01*
X386080Y236521D01*
X384852Y233557D01*
X382583Y231288D01*
X379619Y230060D01*
X363331Y230060D01*
X360367Y231288D01*
X358098Y233557D01*
X357964Y233881D01*
X357909Y233983D01*
X357862Y234089D01*
X357824Y234139D01*
X357779Y234224D01*
X357589Y234449D01*
X357551Y234499D01*
X354788Y237262D01*
X354787Y237262D01*
X285268Y306782D01*
X285191Y306844D01*
X285120Y306915D01*
X285040Y306967D01*
X284966Y307027D01*
X284877Y307073D01*
X284794Y307128D01*
X284705Y307163D01*
X284620Y307207D01*
X284524Y307234D01*
X284431Y307270D01*
X284359Y307280D01*
X284244Y307312D01*
X284004Y307328D01*
X283922Y307339D01*
X270510Y307339D01*
X270444Y307332D01*
X270378Y307335D01*
X270251Y307313D01*
X270122Y307299D01*
X270059Y307279D01*
X269994Y307268D01*
X269886Y307225D01*
X269876Y307230D01*
X269811Y307246D01*
X269749Y307270D01*
X269662Y307282D01*
X269497Y307322D01*
X269327Y307327D01*
X269240Y307339D01*
X256539Y307339D01*
X256539Y310324D01*
X263087Y316872D01*
X263129Y316923D01*
X263178Y316969D01*
X263252Y317074D01*
X263333Y317174D01*
X263364Y317233D01*
X263402Y317288D01*
X263453Y317406D01*
X263513Y317520D01*
X263530Y317584D01*
X263557Y317645D01*
X263583Y317772D01*
X263618Y317896D01*
X263622Y317962D01*
X263635Y318027D01*
X263635Y318156D01*
X263644Y318285D01*
X263635Y318350D01*
X263635Y318417D01*
X263608Y318543D01*
X263591Y318671D01*
X263568Y318733D01*
X263555Y318798D01*
X263503Y318917D01*
X263460Y319038D01*
X263425Y319095D01*
X263398Y319156D01*
X263345Y319225D01*
X263257Y319371D01*
X263140Y319495D01*
X263087Y319565D01*
X257555Y325097D01*
X257555Y335340D01*
X257557Y335342D01*
X257638Y335442D01*
X257668Y335501D01*
X257707Y335555D01*
X257758Y335674D01*
X257817Y335788D01*
X257835Y335852D01*
X257861Y335913D01*
X257887Y336039D01*
X257922Y336164D01*
X257927Y336230D01*
X257940Y336295D01*
X257940Y336424D01*
X257949Y336552D01*
X257939Y336618D01*
X257939Y336685D01*
X257913Y336811D01*
X257895Y336939D01*
X257873Y337001D01*
X257859Y337066D01*
X257808Y337184D01*
X257764Y337306D01*
X257730Y337363D01*
X257703Y337423D01*
X257650Y337493D01*
X257561Y337639D01*
X257445Y337763D01*
X257392Y337833D01*
X209295Y385929D01*
X209295Y588796D01*
X211862Y591362D01*
X257392Y636892D01*
X257434Y636944D01*
X257482Y636989D01*
X257557Y637095D01*
X257638Y637195D01*
X257669Y637254D01*
X257707Y637308D01*
X257758Y637426D01*
X257817Y637541D01*
X257835Y637605D01*
X257861Y637666D01*
X257887Y637792D01*
X257922Y637916D01*
X257927Y637983D01*
X257940Y638048D01*
X257940Y638176D01*
X257949Y638305D01*
X257939Y638371D01*
X257939Y638438D01*
X257913Y638564D01*
X257895Y638691D01*
X257873Y638754D01*
X257859Y638819D01*
X257808Y638937D01*
X257764Y639058D01*
X257730Y639115D01*
X257703Y639176D01*
X257650Y639246D01*
X257561Y639391D01*
X257555Y639398D01*
X257555Y649628D01*
X264772Y656845D01*
X274978Y656845D01*
X282195Y649628D01*
X282195Y639422D01*
X275944Y633172D01*
X275902Y633120D01*
X275854Y633075D01*
X275779Y632969D01*
X275698Y632869D01*
X275668Y632810D01*
X275629Y632756D01*
X275578Y632637D01*
X275519Y632523D01*
X275501Y632459D01*
X275475Y632398D01*
X275449Y632272D01*
X275414Y632148D01*
X275410Y632081D01*
X275396Y632016D01*
X275396Y631887D01*
X275388Y631759D01*
X275397Y631693D01*
X275397Y631626D01*
X275423Y631500D01*
X275441Y631373D01*
X275463Y631310D01*
X275477Y631245D01*
X275529Y631127D01*
X275572Y631005D01*
X275606Y630949D01*
X275633Y630888D01*
X275686Y630818D01*
X275775Y630673D01*
X275891Y630548D01*
X275944Y630479D01*
X282195Y624228D01*
X282195Y615492D01*
X282198Y615459D01*
X282196Y615426D01*
X282218Y615266D01*
X282235Y615105D01*
X282245Y615073D01*
X282249Y615040D01*
X282304Y614887D01*
X282353Y614733D01*
X282369Y614704D01*
X282380Y614673D01*
X282464Y614535D01*
X282544Y614393D01*
X282566Y614368D01*
X282583Y614340D01*
X282694Y614222D01*
X282800Y614100D01*
X282827Y614080D01*
X282849Y614055D01*
X282982Y613962D01*
X283111Y613864D01*
X283141Y613850D01*
X283168Y613831D01*
X283317Y613767D01*
X283463Y613697D01*
X283495Y613690D01*
X283526Y613676D01*
X283685Y613644D01*
X283842Y613606D01*
X283875Y613604D01*
X283908Y613598D01*
X284070Y613598D01*
X284232Y613593D01*
X284264Y613598D01*
X284298Y613598D01*
X284456Y613632D01*
X284616Y613660D01*
X284646Y613672D01*
X284679Y613679D01*
X284828Y613744D01*
X284978Y613803D01*
X285006Y613821D01*
X285036Y613835D01*
X285103Y613885D01*
X285303Y614017D01*
X285387Y614102D01*
X285445Y614146D01*
X300813Y629513D01*
X300875Y629590D01*
X300946Y629661D01*
X300998Y629741D01*
X301058Y629815D01*
X301104Y629904D01*
X301159Y629987D01*
X301194Y630076D01*
X301238Y630161D01*
X301265Y630257D01*
X301301Y630350D01*
X301311Y630422D01*
X301343Y630537D01*
X301359Y630777D01*
X301370Y630859D01*
X301370Y670891D01*
X301360Y670990D01*
X301360Y671089D01*
X301340Y671183D01*
X301330Y671278D01*
X301300Y671373D01*
X301280Y671471D01*
X301241Y671558D01*
X301212Y671650D01*
X301163Y671737D01*
X301124Y671828D01*
X301079Y671886D01*
X301021Y671990D01*
X300915Y672111D01*
X300896Y672140D01*
X300856Y672180D01*
X300813Y672237D01*
X291237Y681813D01*
X291160Y681875D01*
X291089Y681946D01*
X291009Y681998D01*
X290935Y682058D01*
X290846Y682104D01*
X290763Y682159D01*
X290674Y682194D01*
X290589Y682238D01*
X290493Y682265D01*
X290400Y682301D01*
X290328Y682311D01*
X290213Y682343D01*
X289973Y682359D01*
X289891Y682370D01*
X227634Y682370D01*
X227535Y682360D01*
X227436Y682360D01*
X227342Y682340D01*
X227247Y682330D01*
X227152Y682300D01*
X227054Y682280D01*
X226967Y682241D01*
X226875Y682212D01*
X226788Y682163D01*
X226697Y682124D01*
X226639Y682079D01*
X226535Y682021D01*
X226354Y681863D01*
X226288Y681813D01*
X191312Y646837D01*
X191250Y646760D01*
X191179Y646689D01*
X191127Y646609D01*
X191067Y646535D01*
X191021Y646446D01*
X190966Y646363D01*
X190931Y646274D01*
X190887Y646189D01*
X190860Y646093D01*
X190824Y646000D01*
X190814Y645928D01*
X190782Y645813D01*
X190766Y645573D01*
X190755Y645491D01*
X190755Y373684D01*
X190765Y373585D01*
X190765Y373486D01*
X190785Y373392D01*
X190795Y373297D01*
X190825Y373202D01*
X190845Y373104D01*
X190884Y373017D01*
X190913Y372925D01*
X190962Y372838D01*
X191001Y372747D01*
X191046Y372689D01*
X191104Y372585D01*
X191262Y372404D01*
X191312Y372338D01*
X247905Y315746D01*
X247905Y205409D01*
X247915Y205310D01*
X247915Y205211D01*
X247935Y205117D01*
X247945Y205022D01*
X247975Y204927D01*
X247995Y204829D01*
X248034Y204742D01*
X248063Y204650D01*
X248112Y204563D01*
X248151Y204472D01*
X248196Y204414D01*
X248254Y204310D01*
X248412Y204129D01*
X248462Y204063D01*
X312013Y140512D01*
X312090Y140450D01*
X312161Y140379D01*
X312241Y140327D01*
X312315Y140267D01*
X312404Y140221D01*
X312487Y140166D01*
X312576Y140131D01*
X312661Y140087D01*
X312757Y140060D01*
X312850Y140024D01*
X312922Y140014D01*
X313037Y139982D01*
X313277Y139966D01*
X313359Y139955D01*
X356354Y139955D01*
X356437Y139963D01*
X356520Y139962D01*
X356630Y139983D01*
X356742Y139995D01*
X356821Y140020D01*
X356903Y140035D01*
X357006Y140079D01*
X357113Y140113D01*
X357186Y140153D01*
X357262Y140185D01*
X357355Y140249D01*
X357453Y140304D01*
X357516Y140358D01*
X357584Y140405D01*
X357662Y140486D01*
X357747Y140560D01*
X357797Y140626D01*
X357854Y140686D01*
X357896Y140757D01*
X357982Y140871D01*
X358068Y141053D01*
X358083Y141078D01*
X359993Y142988D01*
X360014Y143014D01*
X360039Y143036D01*
X360137Y143165D01*
X360239Y143291D01*
X360255Y143320D01*
X360275Y143347D01*
X360344Y143493D01*
X360418Y143637D01*
X360427Y143669D01*
X360442Y143699D01*
X360480Y143856D01*
X360523Y144012D01*
X360526Y144046D01*
X360534Y144078D01*
X360539Y144240D01*
X360550Y144401D01*
X360545Y144434D01*
X360546Y144468D01*
X360519Y144627D01*
X360496Y144787D01*
X360485Y144819D01*
X360480Y144852D01*
X360420Y145002D01*
X360366Y145155D01*
X360348Y145183D01*
X360336Y145214D01*
X360247Y145349D01*
X360163Y145487D01*
X360140Y145512D01*
X360122Y145540D01*
X360007Y145654D01*
X359896Y145772D01*
X359869Y145791D01*
X359846Y145815D01*
X359710Y145903D01*
X359578Y145996D01*
X359547Y146009D01*
X359519Y146028D01*
X359368Y146087D01*
X359220Y146151D01*
X359187Y146158D01*
X359156Y146170D01*
X359074Y146181D01*
X358838Y146230D01*
X358719Y146229D01*
X358647Y146239D01*
X352147Y146239D01*
X266445Y231941D01*
X266445Y265176D01*
X266438Y265242D01*
X266441Y265309D01*
X266419Y265436D01*
X266405Y265564D01*
X266385Y265627D01*
X266374Y265693D01*
X266326Y265812D01*
X266287Y265935D01*
X266255Y265993D01*
X266230Y266055D01*
X266159Y266162D01*
X266096Y266275D01*
X266052Y266325D01*
X266016Y266381D01*
X265925Y266472D01*
X265840Y266569D01*
X265787Y266609D01*
X265740Y266656D01*
X265632Y266726D01*
X265529Y266804D01*
X265469Y266832D01*
X265413Y266869D01*
X265293Y266916D01*
X265177Y266971D01*
X265112Y266987D01*
X265050Y267011D01*
X264964Y267023D01*
X264798Y267063D01*
X264789Y267063D01*
X257555Y274297D01*
X257555Y284503D01*
X263087Y290035D01*
X263129Y290087D01*
X263178Y290132D01*
X263252Y290238D01*
X263333Y290337D01*
X263364Y290396D01*
X263402Y290451D01*
X263453Y290569D01*
X263513Y290684D01*
X263531Y290748D01*
X263557Y290809D01*
X263583Y290935D01*
X263618Y291059D01*
X263622Y291125D01*
X263635Y291190D01*
X263635Y291319D01*
X263644Y291448D01*
X263635Y291514D01*
X263635Y291580D01*
X263608Y291706D01*
X263591Y291834D01*
X263568Y291897D01*
X263555Y291962D01*
X263503Y292080D01*
X263460Y292201D01*
X263425Y292258D01*
X263398Y292319D01*
X263345Y292389D01*
X263257Y292534D01*
X263140Y292658D01*
X263087Y292728D01*
X256539Y299276D01*
X256539Y302261D01*
X269240Y302261D01*
X269306Y302268D01*
X269372Y302265D01*
X269499Y302287D01*
X269628Y302301D01*
X269691Y302321D01*
X269756Y302332D01*
X269864Y302375D01*
X269874Y302370D01*
X269939Y302354D01*
X270001Y302330D01*
X270088Y302318D01*
X270253Y302278D01*
X270423Y302273D01*
X270510Y302261D01*
X283211Y302261D01*
X283211Y299276D01*
X276663Y292728D01*
X276621Y292677D01*
X276572Y292631D01*
X276498Y292526D01*
X276417Y292426D01*
X276386Y292367D01*
X276348Y292312D01*
X276297Y292194D01*
X276237Y292080D01*
X276220Y292016D01*
X276193Y291955D01*
X276167Y291828D01*
X276132Y291704D01*
X276128Y291638D01*
X276115Y291573D01*
X276115Y291444D01*
X276106Y291315D01*
X276115Y291250D01*
X276115Y291183D01*
X276142Y291057D01*
X276159Y290929D01*
X276182Y290867D01*
X276195Y290802D01*
X276247Y290683D01*
X276290Y290562D01*
X276325Y290505D01*
X276352Y290444D01*
X276405Y290375D01*
X276493Y290229D01*
X276610Y290105D01*
X276663Y290035D01*
X282195Y284503D01*
X282195Y274297D01*
X274952Y267054D01*
X274949Y267054D01*
X274821Y267040D01*
X274758Y267020D01*
X274692Y267009D01*
X274573Y266961D01*
X274450Y266922D01*
X274392Y266890D01*
X274330Y266865D01*
X274223Y266794D01*
X274110Y266731D01*
X274060Y266687D01*
X274004Y266651D01*
X273913Y266560D01*
X273816Y266475D01*
X273776Y266422D01*
X273729Y266375D01*
X273659Y266267D01*
X273581Y266164D01*
X273553Y266104D01*
X273516Y266048D01*
X273469Y265928D01*
X273414Y265812D01*
X273398Y265747D01*
X273374Y265685D01*
X273362Y265599D01*
X273322Y265433D01*
X273317Y265263D01*
X273305Y265176D01*
X273305Y235571D01*
X273315Y235472D01*
X273315Y235373D01*
X273335Y235279D01*
X273345Y235183D01*
X273375Y235089D01*
X273395Y234991D01*
X273434Y234903D01*
X273463Y234812D01*
X273512Y234725D01*
X273551Y234634D01*
X273596Y234576D01*
X273654Y234472D01*
X273812Y234291D01*
X273862Y234225D01*
X354431Y153656D01*
X354508Y153594D01*
X354578Y153523D01*
X354659Y153471D01*
X354733Y153411D01*
X354821Y153365D01*
X354905Y153310D01*
X354994Y153275D01*
X355079Y153231D01*
X355175Y153204D01*
X355268Y153168D01*
X355340Y153158D01*
X355455Y153126D01*
X355694Y153110D01*
X355777Y153099D01*
X357759Y153099D01*
X357792Y153102D01*
X357825Y153100D01*
X357986Y153122D01*
X358147Y153139D01*
X358178Y153149D01*
X358211Y153153D01*
X358364Y153208D01*
X358518Y153257D01*
X358547Y153273D01*
X358578Y153284D01*
X358717Y153369D01*
X358858Y153448D01*
X358883Y153470D01*
X358911Y153487D01*
X359029Y153598D01*
X359151Y153704D01*
X359171Y153731D01*
X359196Y153753D01*
X359289Y153886D01*
X359387Y154015D01*
X359401Y154045D01*
X359420Y154072D01*
X359484Y154221D01*
X359554Y154367D01*
X359562Y154399D01*
X359575Y154430D01*
X359607Y154589D01*
X359646Y154746D01*
X359647Y154779D01*
X359653Y154812D01*
X359653Y154974D01*
X359658Y155136D01*
X359653Y155168D01*
X359653Y155202D01*
X359619Y155360D01*
X359592Y155520D01*
X359579Y155550D01*
X359573Y155583D01*
X359507Y155732D01*
X359448Y155882D01*
X359430Y155910D01*
X359416Y155940D01*
X359366Y156007D01*
X359234Y156207D01*
X359149Y156291D01*
X359105Y156350D01*
X358098Y157357D01*
X356870Y160321D01*
X356870Y163529D01*
X358098Y166493D01*
X360367Y168762D01*
X363331Y169990D01*
X379619Y169990D01*
X382583Y168762D01*
X384852Y166493D01*
X386080Y163529D01*
X386080Y160321D01*
X384852Y157357D01*
X383845Y156350D01*
X383824Y156324D01*
X383799Y156302D01*
X383701Y156173D01*
X383599Y156047D01*
X383583Y156018D01*
X383563Y155991D01*
X383494Y155845D01*
X383420Y155701D01*
X383411Y155669D01*
X383396Y155639D01*
X383358Y155482D01*
X383315Y155326D01*
X383312Y155292D01*
X383304Y155260D01*
X383299Y155098D01*
X383288Y154937D01*
X383293Y154904D01*
X383292Y154870D01*
X383319Y154711D01*
X383342Y154551D01*
X383353Y154519D01*
X383358Y154486D01*
X383418Y154336D01*
X383472Y154183D01*
X383490Y154155D01*
X383502Y154124D01*
X383591Y153989D01*
X383675Y153851D01*
X383698Y153826D01*
X383716Y153798D01*
X383831Y153684D01*
X383942Y153566D01*
X383969Y153547D01*
X383992Y153523D01*
X384128Y153435D01*
X384260Y153342D01*
X384291Y153328D01*
X384319Y153310D01*
X384469Y153251D01*
X384618Y153187D01*
X384651Y153180D01*
X384682Y153168D01*
X384764Y153157D01*
X385000Y153108D01*
X385119Y153109D01*
X385191Y153099D01*
X389915Y153099D01*
X392482Y150532D01*
X395197Y147817D01*
X397764Y145250D01*
X397764Y105575D01*
X395197Y103008D01*
X385013Y92825D01*
X384972Y92773D01*
X384923Y92728D01*
X384849Y92622D01*
X384768Y92522D01*
X384737Y92463D01*
X384699Y92409D01*
X384648Y92291D01*
X384588Y92176D01*
X384570Y92112D01*
X384544Y92051D01*
X384518Y91925D01*
X384483Y91801D01*
X384479Y91735D01*
X384465Y91669D01*
X384466Y91541D01*
X384457Y91412D01*
X384466Y91346D01*
X384466Y91280D01*
X384493Y91153D01*
X384510Y91026D01*
X384533Y90963D01*
X384546Y90898D01*
X384598Y90780D01*
X384641Y90659D01*
X384676Y90602D01*
X384702Y90541D01*
X384755Y90471D01*
X384827Y90355D01*
X386080Y87329D01*
X386080Y84121D01*
X384852Y81157D01*
X382583Y78888D01*
X379619Y77660D01*
X363331Y77660D01*
X360367Y78888D01*
X358098Y81157D01*
X356870Y84121D01*
X356870Y87329D01*
X358098Y90293D01*
X360367Y92562D01*
X363331Y93790D01*
X375489Y93790D01*
X375588Y93800D01*
X375688Y93800D01*
X375781Y93820D01*
X375877Y93830D01*
X375971Y93860D01*
X376069Y93880D01*
X376157Y93919D01*
X376248Y93948D01*
X376335Y93997D01*
X376426Y94036D01*
X376484Y94081D01*
X376588Y94139D01*
X376769Y94297D01*
X376835Y94347D01*
X381480Y98992D01*
X381594Y99133D01*
X381712Y99274D01*
X381718Y99285D01*
X381726Y99295D01*
X381810Y99456D01*
X381896Y99618D01*
X381900Y99630D01*
X381905Y99641D01*
X381954Y99816D01*
X382006Y99991D01*
X382007Y100004D01*
X382010Y100016D01*
X382023Y100197D01*
X382037Y100380D01*
X382036Y100393D01*
X382037Y100405D01*
X382012Y100585D01*
X381989Y100767D01*
X381985Y100779D01*
X381983Y100791D01*
X381922Y100963D01*
X381863Y101136D01*
X381857Y101146D01*
X381852Y101158D01*
X381757Y101314D01*
X381665Y101471D01*
X381656Y101480D01*
X381650Y101491D01*
X381525Y101624D01*
X381402Y101759D01*
X381392Y101766D01*
X381383Y101776D01*
X381234Y101881D01*
X381086Y101988D01*
X381075Y101993D01*
X381064Y102000D01*
X380897Y102072D01*
X380730Y102147D01*
X380718Y102150D01*
X380707Y102155D01*
X380528Y102191D01*
X380350Y102231D01*
X380339Y102230D01*
X380325Y102233D01*
X379935Y102233D01*
X379877Y102220D01*
X379836Y102219D01*
X378730Y102044D01*
X373474Y102044D01*
X373474Y109126D01*
X386911Y109126D01*
X386911Y109121D01*
X386898Y108940D01*
X386900Y108928D01*
X386899Y108915D01*
X386927Y108735D01*
X386952Y108554D01*
X386956Y108542D01*
X386958Y108530D01*
X387021Y108359D01*
X387082Y108187D01*
X387089Y108176D01*
X387093Y108164D01*
X387190Y108010D01*
X387285Y107854D01*
X387294Y107845D01*
X387301Y107834D01*
X387428Y107702D01*
X387552Y107569D01*
X387562Y107562D01*
X387571Y107553D01*
X387721Y107451D01*
X387871Y107345D01*
X387882Y107340D01*
X387892Y107333D01*
X388061Y107263D01*
X388228Y107190D01*
X388241Y107188D01*
X388252Y107183D01*
X388432Y107149D01*
X388610Y107112D01*
X388623Y107112D01*
X388635Y107109D01*
X388817Y107112D01*
X389000Y107113D01*
X389012Y107115D01*
X389025Y107115D01*
X389202Y107155D01*
X389381Y107193D01*
X389393Y107198D01*
X389405Y107200D01*
X389571Y107275D01*
X389739Y107349D01*
X389747Y107355D01*
X389760Y107361D01*
X390075Y107591D01*
X390115Y107635D01*
X390148Y107660D01*
X390347Y107859D01*
X390359Y107874D01*
X390369Y107883D01*
X390408Y107935D01*
X390409Y107936D01*
X390480Y108006D01*
X390532Y108087D01*
X390592Y108161D01*
X390638Y108249D01*
X390693Y108333D01*
X390728Y108422D01*
X390772Y108507D01*
X390799Y108603D01*
X390835Y108696D01*
X390845Y108768D01*
X390877Y108883D01*
X390893Y109122D01*
X390904Y109205D01*
X390904Y141620D01*
X390899Y141670D01*
X390900Y141687D01*
X390894Y141718D01*
X390894Y141719D01*
X390894Y141819D01*
X390874Y141912D01*
X390864Y142008D01*
X390834Y142102D01*
X390814Y142200D01*
X390775Y142288D01*
X390746Y142379D01*
X390698Y142466D01*
X390658Y142557D01*
X390613Y142615D01*
X390555Y142719D01*
X390397Y142900D01*
X390347Y142966D01*
X387631Y145682D01*
X387554Y145744D01*
X387484Y145815D01*
X387403Y145867D01*
X387329Y145927D01*
X387241Y145973D01*
X387157Y146028D01*
X387068Y146063D01*
X386983Y146107D01*
X386887Y146134D01*
X386794Y146170D01*
X386722Y146180D01*
X386607Y146212D01*
X386368Y146228D01*
X386285Y146239D01*
X384303Y146239D01*
X384270Y146236D01*
X384237Y146238D01*
X384076Y146216D01*
X383915Y146199D01*
X383884Y146189D01*
X383851Y146185D01*
X383698Y146130D01*
X383544Y146081D01*
X383515Y146065D01*
X383484Y146054D01*
X383345Y145970D01*
X383204Y145890D01*
X383179Y145868D01*
X383151Y145851D01*
X383032Y145740D01*
X382911Y145634D01*
X382891Y145607D01*
X382866Y145585D01*
X382773Y145452D01*
X382675Y145323D01*
X382661Y145293D01*
X382642Y145266D01*
X382578Y145117D01*
X382508Y144971D01*
X382500Y144939D01*
X382487Y144908D01*
X382455Y144749D01*
X382416Y144592D01*
X382415Y144559D01*
X382409Y144526D01*
X382409Y144364D01*
X382404Y144202D01*
X382409Y144170D01*
X382409Y144136D01*
X382443Y143978D01*
X382470Y143818D01*
X382483Y143788D01*
X382489Y143755D01*
X382555Y143606D01*
X382614Y143456D01*
X382632Y143428D01*
X382646Y143398D01*
X382696Y143331D01*
X382828Y143131D01*
X382913Y143047D01*
X382957Y142988D01*
X384852Y141093D01*
X386080Y138129D01*
X386080Y134921D01*
X384852Y131957D01*
X382583Y129688D01*
X379619Y128460D01*
X363331Y128460D01*
X360367Y129688D01*
X358088Y131967D01*
X358074Y131993D01*
X358043Y132070D01*
X357982Y132164D01*
X357928Y132263D01*
X357875Y132326D01*
X357829Y132396D01*
X357749Y132475D01*
X357677Y132561D01*
X357612Y132612D01*
X357553Y132671D01*
X357459Y132732D01*
X357370Y132801D01*
X357296Y132838D01*
X357226Y132884D01*
X357122Y132925D01*
X357021Y132975D01*
X356941Y132996D01*
X356863Y133026D01*
X356783Y133037D01*
X356644Y133073D01*
X356443Y133083D01*
X356354Y133095D01*
X313359Y133095D01*
X313260Y133085D01*
X313161Y133085D01*
X313067Y133065D01*
X312972Y133055D01*
X312877Y133025D01*
X312779Y133005D01*
X312692Y132966D01*
X312600Y132937D01*
X312513Y132888D01*
X312422Y132849D01*
X312364Y132804D01*
X312260Y132746D01*
X312079Y132588D01*
X312013Y132538D01*
X282358Y102883D01*
X282347Y102869D01*
X282341Y102864D01*
X282316Y102831D01*
X282268Y102786D01*
X282193Y102680D01*
X282112Y102580D01*
X282081Y102521D01*
X282043Y102467D01*
X281992Y102348D01*
X281933Y102234D01*
X281915Y102170D01*
X281889Y102109D01*
X281863Y101983D01*
X281828Y101859D01*
X281823Y101792D01*
X281810Y101727D01*
X281810Y101599D01*
X281801Y101470D01*
X281811Y101404D01*
X281811Y101337D01*
X281837Y101211D01*
X281855Y101084D01*
X281877Y101021D01*
X281891Y100956D01*
X281942Y100838D01*
X281986Y100717D01*
X282020Y100660D01*
X282047Y100599D01*
X282100Y100529D01*
X282189Y100384D01*
X282195Y100377D01*
X282195Y90147D01*
X276663Y84615D01*
X276621Y84563D01*
X276572Y84518D01*
X276498Y84412D01*
X276417Y84313D01*
X276386Y84254D01*
X276348Y84199D01*
X276297Y84081D01*
X276237Y83966D01*
X276219Y83902D01*
X276193Y83841D01*
X276167Y83715D01*
X276132Y83591D01*
X276128Y83525D01*
X276115Y83460D01*
X276115Y83331D01*
X276106Y83202D01*
X276115Y83136D01*
X276115Y83070D01*
X276142Y82944D01*
X276159Y82816D01*
X276182Y82753D01*
X276195Y82688D01*
X276247Y82570D01*
X276290Y82449D01*
X276325Y82392D01*
X276352Y82331D01*
X276405Y82261D01*
X276493Y82116D01*
X276610Y81992D01*
X276663Y81922D01*
X283211Y75374D01*
X283211Y72389D01*
X270510Y72389D01*
X270444Y72382D01*
X270378Y72385D01*
X270251Y72363D01*
X270122Y72349D01*
X270059Y72329D01*
X269994Y72318D01*
X269886Y72275D01*
X269876Y72280D01*
X269811Y72296D01*
X269749Y72320D01*
X269662Y72332D01*
X269497Y72372D01*
X269327Y72377D01*
X269240Y72389D01*
X256539Y72389D01*
X256539Y75374D01*
X263087Y81922D01*
X263129Y81973D01*
X263178Y82019D01*
X263252Y82124D01*
X263333Y82224D01*
X263364Y82283D01*
X263402Y82338D01*
X263453Y82456D01*
X263513Y82570D01*
X263530Y82634D01*
X263557Y82695D01*
X263583Y82822D01*
X263618Y82946D01*
X263622Y83012D01*
X263635Y83077D01*
X263635Y83206D01*
X263644Y83335D01*
X263635Y83400D01*
X263635Y83467D01*
X263608Y83593D01*
X263591Y83721D01*
X263568Y83783D01*
X263555Y83848D01*
X263503Y83966D01*
X263460Y84088D01*
X263425Y84145D01*
X263398Y84206D01*
X263345Y84275D01*
X263257Y84421D01*
X263140Y84545D01*
X263087Y84615D01*
X257555Y90147D01*
X257555Y98883D01*
X257552Y98916D01*
X257554Y98949D01*
X257532Y99109D01*
X257515Y99270D01*
X257505Y99302D01*
X257501Y99335D01*
X257446Y99488D01*
X257397Y99642D01*
X257381Y99671D01*
X257370Y99702D01*
X257286Y99840D01*
X257206Y99982D01*
X257184Y100007D01*
X257167Y100035D01*
X257056Y100153D01*
X256950Y100275D01*
X256923Y100295D01*
X256901Y100320D01*
X256768Y100413D01*
X256639Y100511D01*
X256609Y100525D01*
X256582Y100544D01*
X256433Y100608D01*
X256287Y100678D01*
X256255Y100685D01*
X256224Y100699D01*
X256065Y100731D01*
X255908Y100769D01*
X255875Y100771D01*
X255842Y100777D01*
X255680Y100777D01*
X255518Y100782D01*
X255486Y100777D01*
X255452Y100777D01*
X255294Y100743D01*
X255134Y100715D01*
X255104Y100703D01*
X255071Y100696D01*
X254922Y100631D01*
X254772Y100572D01*
X254744Y100554D01*
X254714Y100540D01*
X254647Y100490D01*
X254447Y100358D01*
X254363Y100273D01*
X254305Y100229D01*
X238937Y84862D01*
X238875Y84785D01*
X238804Y84714D01*
X238752Y84634D01*
X238692Y84560D01*
X238646Y84471D01*
X238591Y84388D01*
X238556Y84299D01*
X238512Y84214D01*
X238485Y84118D01*
X238449Y84025D01*
X238439Y83953D01*
X238407Y83838D01*
X238391Y83598D01*
X238380Y83516D01*
X238380Y53009D01*
X238390Y52910D01*
X238390Y52811D01*
X238410Y52717D01*
X238420Y52622D01*
X238450Y52527D01*
X238470Y52429D01*
X238509Y52342D01*
X238538Y52250D01*
X238587Y52163D01*
X238626Y52072D01*
X238671Y52014D01*
X238729Y51910D01*
X238887Y51729D01*
X238937Y51663D01*
X242163Y48437D01*
X242240Y48375D01*
X242311Y48304D01*
X242391Y48252D01*
X242465Y48192D01*
X242554Y48146D01*
X242637Y48091D01*
X242726Y48056D01*
X242811Y48012D01*
X242907Y47985D01*
X243000Y47949D01*
X243072Y47939D01*
X243187Y47907D01*
X243427Y47891D01*
X243509Y47880D01*
X518491Y47880D01*
X518590Y47890D01*
X518689Y47890D01*
X518783Y47910D01*
X518878Y47920D01*
X518973Y47950D01*
X519071Y47970D01*
X519158Y48009D01*
X519250Y48038D01*
X519337Y48087D01*
X519428Y48126D01*
X519486Y48171D01*
X519590Y48229D01*
X519771Y48387D01*
X519837Y48437D01*
X551638Y80238D01*
X551700Y80315D01*
X551771Y80386D01*
X551823Y80466D01*
X551883Y80540D01*
X551929Y80629D01*
X551984Y80712D01*
X552019Y80801D01*
X552063Y80886D01*
X552090Y80982D01*
X552126Y81075D01*
X552136Y81147D01*
X552168Y81262D01*
X552184Y81502D01*
X552195Y81584D01*
X552195Y407366D01*
X552185Y407465D01*
X552185Y407564D01*
X552165Y407658D01*
X552155Y407753D01*
X552125Y407848D01*
X552105Y407946D01*
X552066Y408033D01*
X552037Y408125D01*
X551988Y408212D01*
X551949Y408303D01*
X551904Y408361D01*
X551846Y408465D01*
X551688Y408646D01*
X551638Y408712D01*
X541730Y418619D01*
X541705Y418640D01*
X541683Y418665D01*
X541554Y418763D01*
X541428Y418865D01*
X541399Y418880D01*
X541372Y418901D01*
X541226Y418970D01*
X541082Y419044D01*
X541050Y419053D01*
X541020Y419068D01*
X540863Y419106D01*
X540707Y419149D01*
X540673Y419152D01*
X540641Y419159D01*
X540479Y419165D01*
X540318Y419176D01*
X540285Y419171D01*
X540251Y419172D01*
X540092Y419145D01*
X539932Y419122D01*
X539900Y419111D01*
X539867Y419105D01*
X539717Y419046D01*
X539564Y418991D01*
X539536Y418974D01*
X539505Y418962D01*
X539370Y418873D01*
X539232Y418789D01*
X539207Y418766D01*
X539179Y418748D01*
X539065Y418633D01*
X538947Y418522D01*
X538928Y418495D01*
X538904Y418471D01*
X538816Y418336D01*
X538723Y418203D01*
X538710Y418173D01*
X538691Y418145D01*
X538632Y417994D01*
X538568Y417846D01*
X538561Y417813D01*
X538549Y417782D01*
X538538Y417699D01*
X538489Y417464D01*
X538490Y417345D01*
X538480Y417273D01*
X538480Y414321D01*
X537252Y411357D01*
X534983Y409088D01*
X532019Y407860D01*
X515731Y407860D01*
X512767Y409088D01*
X510498Y411357D01*
X509270Y414321D01*
X509270Y417529D01*
X510498Y420493D01*
X512767Y422762D01*
X515731Y423990D01*
X531763Y423990D01*
X531796Y423993D01*
X531829Y423991D01*
X531989Y424013D01*
X532150Y424030D01*
X532182Y424040D01*
X532215Y424044D01*
X532368Y424099D01*
X532522Y424148D01*
X532551Y424164D01*
X532582Y424175D01*
X532720Y424259D01*
X532862Y424339D01*
X532887Y424361D01*
X532915Y424378D01*
X533033Y424489D01*
X533155Y424595D01*
X533175Y424622D01*
X533200Y424644D01*
X533293Y424777D01*
X533391Y424906D01*
X533405Y424936D01*
X533424Y424963D01*
X533488Y425112D01*
X533558Y425258D01*
X533565Y425290D01*
X533579Y425321D01*
X533611Y425480D01*
X533649Y425637D01*
X533651Y425670D01*
X533657Y425703D01*
X533657Y425865D01*
X533662Y426027D01*
X533657Y426059D01*
X533657Y426093D01*
X533623Y426251D01*
X533595Y426411D01*
X533583Y426441D01*
X533576Y426474D01*
X533511Y426623D01*
X533452Y426773D01*
X533434Y426801D01*
X533420Y426831D01*
X533370Y426898D01*
X533238Y427098D01*
X533153Y427182D01*
X533109Y427240D01*
X527647Y432703D01*
X527570Y432765D01*
X527499Y432836D01*
X527419Y432888D01*
X527345Y432948D01*
X527256Y432994D01*
X527173Y433049D01*
X527084Y433084D01*
X526999Y433128D01*
X526903Y433155D01*
X526810Y433191D01*
X526738Y433201D01*
X526623Y433233D01*
X526383Y433249D01*
X526301Y433260D01*
X515731Y433260D01*
X512767Y434488D01*
X510498Y436757D01*
X509270Y439721D01*
X509270Y442929D01*
X510498Y445893D01*
X512767Y448162D01*
X515731Y449390D01*
X531763Y449390D01*
X531796Y449393D01*
X531829Y449391D01*
X531989Y449413D01*
X532150Y449430D01*
X532182Y449440D01*
X532215Y449444D01*
X532368Y449499D01*
X532522Y449548D01*
X532551Y449564D01*
X532582Y449575D01*
X532720Y449659D01*
X532862Y449739D01*
X532887Y449761D01*
X532915Y449778D01*
X533033Y449889D01*
X533155Y449995D01*
X533175Y450022D01*
X533200Y450044D01*
X533293Y450177D01*
X533391Y450306D01*
X533405Y450336D01*
X533424Y450363D01*
X533488Y450512D01*
X533558Y450658D01*
X533565Y450690D01*
X533579Y450721D01*
X533611Y450880D01*
X533649Y451037D01*
X533651Y451070D01*
X533657Y451103D01*
X533657Y451265D01*
X533662Y451427D01*
X533657Y451459D01*
X533657Y451493D01*
X533623Y451651D01*
X533595Y451811D01*
X533583Y451841D01*
X533576Y451874D01*
X533511Y452023D01*
X533452Y452173D01*
X533434Y452201D01*
X533420Y452231D01*
X533370Y452298D01*
X533238Y452498D01*
X533153Y452582D01*
X533109Y452640D01*
X527647Y458103D01*
X527570Y458165D01*
X527499Y458236D01*
X527419Y458288D01*
X527345Y458348D01*
X527256Y458394D01*
X527173Y458449D01*
X527084Y458484D01*
X526999Y458528D01*
X526903Y458555D01*
X526810Y458591D01*
X526738Y458601D01*
X526623Y458633D01*
X526383Y458649D01*
X526301Y458660D01*
X515731Y458660D01*
X512767Y459888D01*
X510498Y462157D01*
X509270Y465121D01*
X509270Y468329D01*
X510498Y471293D01*
X512767Y473562D01*
X515731Y474790D01*
X532019Y474790D01*
X534983Y473562D01*
X537252Y471293D01*
X538480Y468329D01*
X538480Y465121D01*
X537252Y462157D01*
X536619Y461524D01*
X536577Y461473D01*
X536529Y461427D01*
X536455Y461322D01*
X536373Y461222D01*
X536343Y461163D01*
X536305Y461108D01*
X536253Y460990D01*
X536194Y460876D01*
X536176Y460812D01*
X536150Y460751D01*
X536124Y460624D01*
X536089Y460500D01*
X536085Y460434D01*
X536071Y460369D01*
X536071Y460240D01*
X536063Y460111D01*
X536072Y460045D01*
X536072Y459979D01*
X536098Y459853D01*
X536116Y459725D01*
X536138Y459663D01*
X536152Y459597D01*
X536204Y459479D01*
X536247Y459358D01*
X536282Y459301D01*
X536308Y459240D01*
X536361Y459170D01*
X536450Y459025D01*
X536566Y458901D01*
X536619Y458831D01*
X571755Y423696D01*
X571755Y74779D01*
X569188Y72213D01*
X556974Y59999D01*
X556919Y59931D01*
X556857Y59870D01*
X556796Y59780D01*
X556728Y59696D01*
X556688Y59619D01*
X556639Y59546D01*
X556599Y59446D01*
X556549Y59350D01*
X556526Y59266D01*
X556493Y59185D01*
X556473Y59079D01*
X556444Y58975D01*
X556438Y58888D01*
X556422Y58802D01*
X556425Y58694D01*
X556418Y58586D01*
X556430Y58500D01*
X556432Y58412D01*
X556456Y58307D01*
X556471Y58200D01*
X556500Y58118D01*
X556520Y58033D01*
X556566Y57935D01*
X556602Y57833D01*
X556647Y57758D01*
X556684Y57679D01*
X556749Y57592D01*
X556805Y57500D01*
X556864Y57436D01*
X556917Y57366D01*
X556997Y57294D01*
X557071Y57215D01*
X557143Y57165D01*
X557208Y57107D01*
X557302Y57053D01*
X557390Y56991D01*
X557470Y56956D01*
X557546Y56913D01*
X557649Y56879D01*
X557748Y56836D01*
X557833Y56819D01*
X557916Y56792D01*
X558024Y56780D01*
X558130Y56758D01*
X558217Y56758D01*
X558304Y56748D01*
X558383Y56758D01*
X558519Y56758D01*
X558726Y56802D01*
X558814Y56813D01*
X564814Y58421D01*
X571836Y58421D01*
X578620Y56603D01*
X584701Y53092D01*
X586538Y51255D01*
X586564Y51234D01*
X586586Y51209D01*
X586715Y51111D01*
X586841Y51009D01*
X586870Y50993D01*
X586897Y50973D01*
X587043Y50904D01*
X587187Y50829D01*
X587219Y50820D01*
X587249Y50806D01*
X587406Y50768D01*
X587562Y50724D01*
X587596Y50722D01*
X587628Y50714D01*
X587790Y50709D01*
X587951Y50698D01*
X587984Y50703D01*
X588018Y50701D01*
X588177Y50729D01*
X588337Y50751D01*
X588369Y50763D01*
X588402Y50768D01*
X588552Y50828D01*
X588705Y50882D01*
X588733Y50900D01*
X588764Y50912D01*
X588899Y51001D01*
X589037Y51085D01*
X589062Y51108D01*
X589090Y51126D01*
X589204Y51241D01*
X589322Y51352D01*
X589341Y51379D01*
X589365Y51402D01*
X589453Y51538D01*
X589546Y51670D01*
X589560Y51701D01*
X589578Y51729D01*
X589637Y51879D01*
X589701Y52028D01*
X589708Y52061D01*
X589720Y52092D01*
X589731Y52174D01*
X589780Y52410D01*
X589779Y52529D01*
X589789Y52601D01*
X589789Y791949D01*
X589786Y791982D01*
X589788Y792015D01*
X589766Y792176D01*
X589749Y792337D01*
X589739Y792368D01*
X589735Y792401D01*
X589680Y792554D01*
X589631Y792708D01*
X589615Y792737D01*
X589604Y792769D01*
X589519Y792907D01*
X589440Y793048D01*
X589418Y793073D01*
X589401Y793101D01*
X589290Y793220D01*
X589184Y793341D01*
X589157Y793362D01*
X589135Y793386D01*
X589002Y793479D01*
X588873Y793577D01*
X588843Y793591D01*
X588816Y793610D01*
X588667Y793674D01*
X588521Y793744D01*
X588489Y793752D01*
X588458Y793765D01*
X588299Y793798D01*
X588142Y793836D01*
X588109Y793837D01*
X588076Y793844D01*
X587914Y793843D01*
X587752Y793849D01*
X587720Y793843D01*
X587686Y793843D01*
X587528Y793809D01*
X587368Y793782D01*
X587338Y793770D01*
X587305Y793763D01*
X587156Y793698D01*
X587006Y793638D01*
X586978Y793620D01*
X586948Y793607D01*
X586881Y793556D01*
X586681Y793424D01*
X586597Y793340D01*
X586538Y793295D01*
X584701Y791458D01*
X578620Y787947D01*
X571836Y786129D01*
X564814Y786129D01*
X558030Y787947D01*
X551949Y791458D01*
X550064Y793343D01*
X549955Y793432D01*
X549850Y793527D01*
X549804Y793555D01*
X549762Y793589D01*
X549636Y793654D01*
X549515Y793726D01*
X549464Y793743D01*
X549416Y793768D01*
X549279Y793806D01*
X549146Y793852D01*
X549092Y793858D01*
X549040Y793873D01*
X548899Y793883D01*
X548759Y793900D01*
X548705Y793896D01*
X548651Y793899D01*
X548512Y793880D01*
X548371Y793869D01*
X548319Y793853D01*
X548265Y793846D01*
X548132Y793799D01*
X547997Y793759D01*
X547949Y793733D01*
X547898Y793715D01*
X547777Y793642D01*
X547653Y793575D01*
X547612Y793541D01*
X547565Y793512D01*
X547462Y793416D01*
X547354Y793325D01*
X547320Y793283D01*
X547281Y793246D01*
X547200Y793131D01*
X547112Y793020D01*
X547087Y792971D01*
X547056Y792927D01*
X547000Y792798D01*
X546937Y792671D01*
X546923Y792619D01*
X546902Y792569D01*
X546873Y792431D01*
X546837Y792295D01*
X546834Y792241D01*
X546823Y792188D01*
X546823Y792047D01*
X546815Y791905D01*
X546824Y791852D01*
X546824Y791798D01*
X546853Y791660D01*
X546874Y791520D01*
X546891Y791479D01*
X546904Y791416D01*
X547060Y791059D01*
X547065Y791052D01*
X547068Y791044D01*
X548728Y788170D01*
X550546Y781386D01*
X550546Y774364D01*
X548728Y767580D01*
X545217Y761499D01*
X540251Y756533D01*
X534170Y753022D01*
X527386Y751204D01*
X520364Y751204D01*
X513580Y753022D01*
X507499Y756533D01*
X502533Y761499D01*
X499022Y767580D01*
X497204Y774364D01*
X497204Y781386D01*
X499022Y788170D01*
X502533Y794251D01*
X507499Y799217D01*
X513580Y802728D01*
X520364Y804546D01*
X527386Y804546D01*
X534170Y802728D01*
X540251Y799217D01*
X542136Y797332D01*
X542245Y797243D01*
X542350Y797148D01*
X542396Y797120D01*
X542438Y797086D01*
X542564Y797021D01*
X542685Y796949D01*
X542736Y796932D01*
X542784Y796907D01*
X542921Y796869D01*
X543054Y796823D01*
X543108Y796817D01*
X543160Y796802D01*
X543301Y796792D01*
X543441Y796775D01*
X543495Y796779D01*
X543549Y796776D01*
X543688Y796795D01*
X543829Y796806D01*
X543881Y796822D01*
X543935Y796829D01*
X544068Y796876D01*
X544203Y796916D01*
X544251Y796942D01*
X544302Y796960D01*
X544423Y797033D01*
X544547Y797100D01*
X544588Y797134D01*
X544635Y797163D01*
X544738Y797259D01*
X544846Y797350D01*
X544880Y797392D01*
X544919Y797429D01*
X545000Y797544D01*
X545088Y797655D01*
X545113Y797704D01*
X545144Y797748D01*
X545200Y797877D01*
X545263Y798004D01*
X545277Y798056D01*
X545298Y798106D01*
X545327Y798244D01*
X545363Y798380D01*
X545366Y798434D01*
X545377Y798487D01*
X545377Y798628D01*
X545385Y798770D01*
X545376Y798823D01*
X545376Y798877D01*
X545347Y799015D01*
X545326Y799155D01*
X545309Y799196D01*
X545296Y799259D01*
X545140Y799616D01*
X545135Y799623D01*
X545132Y799631D01*
X543472Y802505D01*
X541654Y809289D01*
X541654Y816311D01*
X543472Y823095D01*
X546983Y829176D01*
X548845Y831038D01*
X548866Y831064D01*
X548891Y831086D01*
X548989Y831215D01*
X549091Y831341D01*
X549107Y831370D01*
X549127Y831397D01*
X549196Y831543D01*
X549271Y831687D01*
X549280Y831719D01*
X549294Y831749D01*
X549332Y831906D01*
X549376Y832062D01*
X549378Y832096D01*
X549386Y832128D01*
X549391Y832290D01*
X549402Y832451D01*
X549397Y832484D01*
X549399Y832518D01*
X549371Y832677D01*
X549349Y832837D01*
X549337Y832869D01*
X549332Y832902D01*
X549272Y833052D01*
X549218Y833205D01*
X549200Y833233D01*
X549188Y833264D01*
X549099Y833399D01*
X549015Y833537D01*
X548992Y833562D01*
X548974Y833590D01*
X548859Y833704D01*
X548748Y833822D01*
X548721Y833841D01*
X548698Y833865D01*
X548562Y833953D01*
X548430Y834046D01*
X548399Y834060D01*
X548371Y834078D01*
X548221Y834137D01*
X548072Y834201D01*
X548039Y834208D01*
X548008Y834220D01*
X547926Y834231D01*
X547690Y834280D01*
X547571Y834279D01*
X547499Y834289D01*
X52576Y834289D01*
X52543Y834286D01*
X52510Y834288D01*
X52349Y834266D01*
X52188Y834249D01*
X52157Y834239D01*
X52124Y834235D01*
X51971Y834180D01*
X51817Y834131D01*
X51788Y834115D01*
X51756Y834104D01*
X51618Y834019D01*
X51477Y833940D01*
X51452Y833918D01*
X51424Y833901D01*
X51305Y833790D01*
X51184Y833684D01*
X51163Y833657D01*
X51139Y833635D01*
X51046Y833502D01*
X50948Y833373D01*
X50934Y833343D01*
X50915Y833316D01*
X50851Y833167D01*
X50781Y833021D01*
X50773Y832989D01*
X50760Y832958D01*
X50727Y832799D01*
X50689Y832642D01*
X50688Y832609D01*
X50681Y832576D01*
X50682Y832414D01*
X50676Y832252D01*
X50682Y832220D01*
X50682Y832186D01*
X50716Y832028D01*
X50743Y831868D01*
X50755Y831838D01*
X50762Y831805D01*
X50827Y831656D01*
X50887Y831506D01*
X50905Y831478D01*
X50918Y831448D01*
X50969Y831381D01*
X51101Y831181D01*
X51185Y831097D01*
X51230Y831038D01*
X53092Y829176D01*
X56603Y823095D01*
X58421Y816311D01*
X58421Y809289D01*
X56603Y802505D01*
X53092Y796424D01*
X48126Y791458D01*
X42045Y787947D01*
X35261Y786129D01*
X28239Y786129D01*
X21455Y787947D01*
X15374Y791458D01*
X13412Y793420D01*
X13386Y793441D01*
X13364Y793466D01*
X13235Y793564D01*
X13109Y793666D01*
X13080Y793682D01*
X13053Y793702D01*
X12907Y793771D01*
X12763Y793846D01*
X12731Y793855D01*
X12701Y793869D01*
X12544Y793907D01*
X12388Y793951D01*
X12354Y793953D01*
X12322Y793961D01*
X12160Y793966D01*
X11999Y793977D01*
X11966Y793972D01*
X11932Y793974D01*
X11773Y793946D01*
X11613Y793924D01*
X11581Y793912D01*
X11548Y793907D01*
X11398Y793847D01*
X11245Y793793D01*
X11217Y793775D01*
X11186Y793763D01*
X11051Y793674D01*
X10913Y793590D01*
X10888Y793567D01*
X10860Y793549D01*
X10746Y793434D01*
X10628Y793323D01*
X10609Y793296D01*
X10585Y793273D01*
X10497Y793137D01*
X10404Y793005D01*
X10391Y792974D01*
X10372Y792946D01*
X10313Y792796D01*
X10249Y792647D01*
X10242Y792614D01*
X10230Y792583D01*
X10219Y792501D01*
X10170Y792265D01*
X10171Y792146D01*
X10161Y792074D01*
X10161Y52476D01*
X10164Y52443D01*
X10162Y52410D01*
X10184Y52249D01*
X10201Y52088D01*
X10211Y52057D01*
X10215Y52024D01*
X10270Y51871D01*
X10319Y51717D01*
X10335Y51688D01*
X10346Y51656D01*
X10430Y51518D01*
X10510Y51377D01*
X10532Y51352D01*
X10549Y51324D01*
X10660Y51205D01*
X10766Y51084D01*
X10793Y51063D01*
X10815Y51039D01*
X10948Y50946D01*
X11077Y50848D01*
X11107Y50834D01*
X11134Y50815D01*
X11283Y50751D01*
X11429Y50681D01*
X11461Y50673D01*
X11492Y50660D01*
X11651Y50627D01*
X11808Y50589D01*
X11841Y50588D01*
X11874Y50581D01*
X12036Y50582D01*
X12198Y50576D01*
X12230Y50582D01*
X12264Y50582D01*
X12422Y50616D01*
X12582Y50643D01*
X12612Y50655D01*
X12645Y50662D01*
X12794Y50727D01*
X12944Y50787D01*
X12972Y50805D01*
X13002Y50818D01*
X13069Y50869D01*
X13269Y51001D01*
X13353Y51085D01*
X13412Y51130D01*
X15374Y53092D01*
X21455Y56603D01*
X28239Y58421D01*
X35261Y58421D01*
X42045Y56603D01*
X48126Y53092D01*
X53092Y48126D01*
X56603Y42045D01*
X58421Y35261D01*
X58421Y28239D01*
X56603Y21455D01*
X53092Y15374D01*
X51130Y13412D01*
X51109Y13386D01*
X51084Y13364D01*
X50986Y13235D01*
X50884Y13109D01*
X50868Y13080D01*
X50848Y13053D01*
X50779Y12907D01*
X50704Y12763D01*
X50695Y12731D01*
X50681Y12701D01*
X50643Y12544D01*
X50599Y12388D01*
X50597Y12354D01*
X50589Y12322D01*
X50584Y12160D01*
X50573Y11999D01*
X50578Y11966D01*
X50576Y11932D01*
X50604Y11773D01*
X50626Y11613D01*
X50638Y11581D01*
X50643Y11548D01*
X50703Y11398D01*
X50757Y11245D01*
X50775Y11217D01*
X50787Y11186D01*
X50876Y11051D01*
X50960Y10913D01*
X50983Y10888D01*
X51001Y10860D01*
X51116Y10746D01*
X51227Y10628D01*
X51254Y10609D01*
X51277Y10585D01*
X51413Y10497D01*
X51545Y10404D01*
X51576Y10391D01*
X51604Y10372D01*
X51754Y10313D01*
X51903Y10249D01*
X51936Y10242D01*
X51967Y10230D01*
X52049Y10219D01*
X52285Y10170D01*
X52404Y10171D01*
X52476Y10161D01*
X547599Y10161D01*
X547632Y10164D01*
G37*
%LPC*%
G36*
X367964Y751204D02*
X367964Y751204D01*
X361180Y753022D01*
X355099Y756533D01*
X350133Y761499D01*
X346622Y767580D01*
X344804Y774364D01*
X344804Y781386D01*
X346622Y788170D01*
X350133Y794251D01*
X355099Y799217D01*
X361180Y802728D01*
X367964Y804546D01*
X374986Y804546D01*
X381770Y802728D01*
X387851Y799217D01*
X392817Y794251D01*
X396328Y788170D01*
X398146Y781386D01*
X398146Y774364D01*
X396328Y767580D01*
X392817Y761499D01*
X387851Y756533D01*
X381770Y753022D01*
X374986Y751204D01*
X367964Y751204D01*
G37*
%LPD*%
%LPC*%
G36*
X40939Y478154D02*
X40939Y478154D01*
X34155Y479972D01*
X28074Y483483D01*
X23108Y488449D01*
X19597Y494530D01*
X17779Y501314D01*
X17779Y508336D01*
X19597Y515120D01*
X23108Y521201D01*
X28074Y526167D01*
X34155Y529678D01*
X40939Y531496D01*
X47961Y531496D01*
X54745Y529678D01*
X60826Y526167D01*
X65792Y521201D01*
X69303Y515120D01*
X71121Y508336D01*
X71121Y501314D01*
X69303Y494530D01*
X65792Y488449D01*
X60826Y483483D01*
X54745Y479972D01*
X47961Y478154D01*
X40939Y478154D01*
G37*
%LPD*%
%LPC*%
G36*
X266364Y478154D02*
X266364Y478154D01*
X259580Y479972D01*
X253499Y483483D01*
X248533Y488449D01*
X245022Y494530D01*
X243204Y501314D01*
X243204Y508336D01*
X245022Y515120D01*
X248533Y521201D01*
X253499Y526167D01*
X259580Y529678D01*
X266364Y531496D01*
X273386Y531496D01*
X280170Y529678D01*
X286251Y526167D01*
X291217Y521201D01*
X294728Y515120D01*
X296546Y508336D01*
X296546Y501314D01*
X294728Y494530D01*
X291217Y488449D01*
X286251Y483483D01*
X280170Y479972D01*
X273386Y478154D01*
X266364Y478154D01*
G37*
%LPD*%
%LPC*%
G36*
X363331Y560260D02*
X363331Y560260D01*
X360367Y561488D01*
X358098Y563757D01*
X356870Y566721D01*
X356870Y569929D01*
X358098Y572893D01*
X360367Y575162D01*
X363331Y576390D01*
X379619Y576390D01*
X382583Y575162D01*
X384852Y572893D01*
X386080Y569929D01*
X386080Y566721D01*
X384852Y563757D01*
X382583Y561488D01*
X379619Y560260D01*
X363331Y560260D01*
G37*
%LPD*%
%LPC*%
G36*
X515731Y560260D02*
X515731Y560260D01*
X512767Y561488D01*
X510498Y563757D01*
X509270Y566721D01*
X509270Y569929D01*
X510498Y572893D01*
X512767Y575162D01*
X515731Y576390D01*
X532019Y576390D01*
X534983Y575162D01*
X537252Y572893D01*
X538480Y569929D01*
X538480Y566721D01*
X537252Y563757D01*
X534983Y561488D01*
X532019Y560260D01*
X515731Y560260D01*
G37*
%LPD*%
%LPC*%
G36*
X515731Y103060D02*
X515731Y103060D01*
X512767Y104288D01*
X510498Y106557D01*
X509270Y109521D01*
X509270Y112729D01*
X510498Y115693D01*
X512767Y117962D01*
X515731Y119190D01*
X532019Y119190D01*
X534983Y117962D01*
X537252Y115693D01*
X538480Y112729D01*
X538480Y109521D01*
X537252Y106557D01*
X534983Y104288D01*
X532019Y103060D01*
X515731Y103060D01*
G37*
%LPD*%
%LPC*%
G36*
X515731Y77660D02*
X515731Y77660D01*
X512767Y78888D01*
X510498Y81157D01*
X509270Y84121D01*
X509270Y87329D01*
X510498Y90293D01*
X512767Y92562D01*
X515731Y93790D01*
X532019Y93790D01*
X534983Y92562D01*
X537252Y90293D01*
X538480Y87329D01*
X538480Y84121D01*
X537252Y81157D01*
X534983Y78888D01*
X532019Y77660D01*
X515731Y77660D01*
G37*
%LPD*%
%LPC*%
G36*
X363331Y534860D02*
X363331Y534860D01*
X360367Y536088D01*
X358098Y538357D01*
X356870Y541321D01*
X356870Y544529D01*
X358098Y547493D01*
X360367Y549762D01*
X363331Y550990D01*
X379619Y550990D01*
X382583Y549762D01*
X384852Y547493D01*
X386080Y544529D01*
X386080Y541321D01*
X384852Y538357D01*
X382583Y536088D01*
X379619Y534860D01*
X363331Y534860D01*
G37*
%LPD*%
%LPC*%
G36*
X515731Y534860D02*
X515731Y534860D01*
X512767Y536088D01*
X510498Y538357D01*
X509270Y541321D01*
X509270Y544529D01*
X510498Y547493D01*
X512767Y549762D01*
X515731Y550990D01*
X532019Y550990D01*
X534983Y549762D01*
X537252Y547493D01*
X538480Y544529D01*
X538480Y541321D01*
X537252Y538357D01*
X534983Y536088D01*
X532019Y534860D01*
X515731Y534860D01*
G37*
%LPD*%
%LPC*%
G36*
X515731Y509460D02*
X515731Y509460D01*
X512767Y510688D01*
X510498Y512957D01*
X509270Y515921D01*
X509270Y519129D01*
X510498Y522093D01*
X512767Y524362D01*
X515731Y525590D01*
X532019Y525590D01*
X534983Y524362D01*
X537252Y522093D01*
X538480Y519129D01*
X538480Y515921D01*
X537252Y512957D01*
X534983Y510688D01*
X532019Y509460D01*
X515731Y509460D01*
G37*
%LPD*%
%LPC*%
G36*
X363331Y509460D02*
X363331Y509460D01*
X360367Y510688D01*
X358098Y512957D01*
X356870Y515921D01*
X356870Y519129D01*
X358098Y522093D01*
X360367Y524362D01*
X363331Y525590D01*
X379619Y525590D01*
X382583Y524362D01*
X384852Y522093D01*
X386080Y519129D01*
X386080Y515921D01*
X384852Y512957D01*
X382583Y510688D01*
X379619Y509460D01*
X363331Y509460D01*
G37*
%LPD*%
%LPC*%
G36*
X363331Y484060D02*
X363331Y484060D01*
X360367Y485288D01*
X358098Y487557D01*
X356870Y490521D01*
X356870Y493729D01*
X358098Y496693D01*
X360367Y498962D01*
X363331Y500190D01*
X379619Y500190D01*
X382583Y498962D01*
X384852Y496693D01*
X386080Y493729D01*
X386080Y490521D01*
X384852Y487557D01*
X382583Y485288D01*
X379619Y484060D01*
X363331Y484060D01*
G37*
%LPD*%
%LPC*%
G36*
X515731Y484060D02*
X515731Y484060D01*
X512767Y485288D01*
X510498Y487557D01*
X509270Y490521D01*
X509270Y493729D01*
X510498Y496693D01*
X512767Y498962D01*
X515731Y500190D01*
X532019Y500190D01*
X534983Y498962D01*
X537252Y496693D01*
X538480Y493729D01*
X538480Y490521D01*
X537252Y487557D01*
X534983Y485288D01*
X532019Y484060D01*
X515731Y484060D01*
G37*
%LPD*%
%LPC*%
G36*
X363331Y458660D02*
X363331Y458660D01*
X360367Y459888D01*
X358098Y462157D01*
X356870Y465121D01*
X356870Y468329D01*
X358098Y471293D01*
X360367Y473562D01*
X363331Y474790D01*
X379619Y474790D01*
X382583Y473562D01*
X384852Y471293D01*
X386080Y468329D01*
X386080Y465121D01*
X384852Y462157D01*
X382583Y459888D01*
X379619Y458660D01*
X363331Y458660D01*
G37*
%LPD*%
%LPC*%
G36*
X363331Y433260D02*
X363331Y433260D01*
X360367Y434488D01*
X358098Y436757D01*
X356870Y439721D01*
X356870Y442929D01*
X358098Y445893D01*
X360367Y448162D01*
X363331Y449390D01*
X379619Y449390D01*
X382583Y448162D01*
X384852Y445893D01*
X386080Y442929D01*
X386080Y439721D01*
X384852Y436757D01*
X382583Y434488D01*
X379619Y433260D01*
X363331Y433260D01*
G37*
%LPD*%
%LPC*%
G36*
X363331Y407860D02*
X363331Y407860D01*
X360367Y409088D01*
X358098Y411357D01*
X356870Y414321D01*
X356870Y417529D01*
X358098Y420493D01*
X360367Y422762D01*
X363331Y423990D01*
X379619Y423990D01*
X382583Y422762D01*
X384852Y420493D01*
X386080Y417529D01*
X386080Y414321D01*
X384852Y411357D01*
X382583Y409088D01*
X379619Y407860D01*
X363331Y407860D01*
G37*
%LPD*%
%LPC*%
G36*
X363331Y382460D02*
X363331Y382460D01*
X360367Y383688D01*
X358098Y385957D01*
X356870Y388921D01*
X356870Y392129D01*
X358098Y395093D01*
X360367Y397362D01*
X363331Y398590D01*
X379619Y398590D01*
X382583Y397362D01*
X384852Y395093D01*
X386080Y392129D01*
X386080Y388921D01*
X384852Y385957D01*
X382583Y383688D01*
X379619Y382460D01*
X363331Y382460D01*
G37*
%LPD*%
%LPC*%
G36*
X515731Y382460D02*
X515731Y382460D01*
X512767Y383688D01*
X510498Y385957D01*
X509270Y388921D01*
X509270Y392129D01*
X510498Y395093D01*
X512767Y397362D01*
X515731Y398590D01*
X532019Y398590D01*
X534983Y397362D01*
X537252Y395093D01*
X538480Y392129D01*
X538480Y388921D01*
X537252Y385957D01*
X534983Y383688D01*
X532019Y382460D01*
X515731Y382460D01*
G37*
%LPD*%
%LPC*%
G36*
X363331Y357060D02*
X363331Y357060D01*
X360367Y358288D01*
X358098Y360557D01*
X356870Y363521D01*
X356870Y366729D01*
X358098Y369693D01*
X360367Y371962D01*
X363331Y373190D01*
X379619Y373190D01*
X382583Y371962D01*
X384852Y369693D01*
X386080Y366729D01*
X386080Y363521D01*
X384852Y360557D01*
X382583Y358288D01*
X379619Y357060D01*
X363331Y357060D01*
G37*
%LPD*%
%LPC*%
G36*
X515731Y357060D02*
X515731Y357060D01*
X512767Y358288D01*
X510498Y360557D01*
X509270Y363521D01*
X509270Y366729D01*
X510498Y369693D01*
X512767Y371962D01*
X515731Y373190D01*
X532019Y373190D01*
X534983Y371962D01*
X537252Y369693D01*
X538480Y366729D01*
X538480Y363521D01*
X537252Y360557D01*
X534983Y358288D01*
X532019Y357060D01*
X515731Y357060D01*
G37*
%LPD*%
%LPC*%
G36*
X515731Y331660D02*
X515731Y331660D01*
X512767Y332888D01*
X510498Y335157D01*
X509270Y338121D01*
X509270Y341329D01*
X510498Y344293D01*
X512767Y346562D01*
X515731Y347790D01*
X532019Y347790D01*
X534983Y346562D01*
X537252Y344293D01*
X538480Y341329D01*
X538480Y338121D01*
X537252Y335157D01*
X534983Y332888D01*
X532019Y331660D01*
X515731Y331660D01*
G37*
%LPD*%
%LPC*%
G36*
X363331Y331660D02*
X363331Y331660D01*
X360367Y332888D01*
X358098Y335157D01*
X356870Y338121D01*
X356870Y341329D01*
X358098Y344293D01*
X360367Y346562D01*
X363331Y347790D01*
X379619Y347790D01*
X382583Y346562D01*
X384852Y344293D01*
X386080Y341329D01*
X386080Y338121D01*
X384852Y335157D01*
X382583Y332888D01*
X379619Y331660D01*
X363331Y331660D01*
G37*
%LPD*%
%LPC*%
G36*
X515731Y306260D02*
X515731Y306260D01*
X512767Y307488D01*
X510498Y309757D01*
X509270Y312721D01*
X509270Y315929D01*
X510498Y318893D01*
X512767Y321162D01*
X515731Y322390D01*
X532019Y322390D01*
X534983Y321162D01*
X537252Y318893D01*
X538480Y315929D01*
X538480Y312721D01*
X537252Y309757D01*
X534983Y307488D01*
X532019Y306260D01*
X515731Y306260D01*
G37*
%LPD*%
%LPC*%
G36*
X363331Y306260D02*
X363331Y306260D01*
X360367Y307488D01*
X358098Y309757D01*
X356870Y312721D01*
X356870Y315929D01*
X358098Y318893D01*
X360367Y321162D01*
X363331Y322390D01*
X379619Y322390D01*
X382583Y321162D01*
X384852Y318893D01*
X386080Y315929D01*
X386080Y312721D01*
X384852Y309757D01*
X382583Y307488D01*
X379619Y306260D01*
X363331Y306260D01*
G37*
%LPD*%
%LPC*%
G36*
X515731Y280860D02*
X515731Y280860D01*
X512767Y282088D01*
X510498Y284357D01*
X509270Y287321D01*
X509270Y290529D01*
X510498Y293493D01*
X512767Y295762D01*
X515731Y296990D01*
X532019Y296990D01*
X534983Y295762D01*
X537252Y293493D01*
X538480Y290529D01*
X538480Y287321D01*
X537252Y284357D01*
X534983Y282088D01*
X532019Y280860D01*
X515731Y280860D01*
G37*
%LPD*%
%LPC*%
G36*
X363331Y280860D02*
X363331Y280860D01*
X360367Y282088D01*
X358098Y284357D01*
X356870Y287321D01*
X356870Y290529D01*
X358098Y293493D01*
X360367Y295762D01*
X363331Y296990D01*
X379619Y296990D01*
X382583Y295762D01*
X384852Y293493D01*
X386080Y290529D01*
X386080Y287321D01*
X384852Y284357D01*
X382583Y282088D01*
X379619Y280860D01*
X363331Y280860D01*
G37*
%LPD*%
%LPC*%
G36*
X515731Y255460D02*
X515731Y255460D01*
X512767Y256688D01*
X510498Y258957D01*
X509270Y261921D01*
X509270Y265129D01*
X510498Y268093D01*
X512767Y270362D01*
X515731Y271590D01*
X532019Y271590D01*
X534983Y270362D01*
X537252Y268093D01*
X538480Y265129D01*
X538480Y261921D01*
X537252Y258957D01*
X534983Y256688D01*
X532019Y255460D01*
X515731Y255460D01*
G37*
%LPD*%
%LPC*%
G36*
X515731Y230060D02*
X515731Y230060D01*
X512767Y231288D01*
X510498Y233557D01*
X509270Y236521D01*
X509270Y239729D01*
X510498Y242693D01*
X512767Y244962D01*
X515731Y246190D01*
X532019Y246190D01*
X534983Y244962D01*
X537252Y242693D01*
X538480Y239729D01*
X538480Y236521D01*
X537252Y233557D01*
X534983Y231288D01*
X532019Y230060D01*
X515731Y230060D01*
G37*
%LPD*%
%LPC*%
G36*
X515731Y204660D02*
X515731Y204660D01*
X512767Y205888D01*
X510498Y208157D01*
X509270Y211121D01*
X509270Y214329D01*
X510498Y217293D01*
X512767Y219562D01*
X515731Y220790D01*
X532019Y220790D01*
X534983Y219562D01*
X537252Y217293D01*
X538480Y214329D01*
X538480Y211121D01*
X537252Y208157D01*
X534983Y205888D01*
X532019Y204660D01*
X515731Y204660D01*
G37*
%LPD*%
%LPC*%
G36*
X515731Y179260D02*
X515731Y179260D01*
X512767Y180488D01*
X510498Y182757D01*
X509270Y185721D01*
X509270Y188929D01*
X510498Y191893D01*
X512767Y194162D01*
X515731Y195390D01*
X532019Y195390D01*
X534983Y194162D01*
X537252Y191893D01*
X538480Y188929D01*
X538480Y185721D01*
X537252Y182757D01*
X534983Y180488D01*
X532019Y179260D01*
X515731Y179260D01*
G37*
%LPD*%
%LPC*%
G36*
X363331Y179260D02*
X363331Y179260D01*
X360367Y180488D01*
X358098Y182757D01*
X356870Y185721D01*
X356870Y188929D01*
X358098Y191893D01*
X360367Y194162D01*
X363331Y195390D01*
X379619Y195390D01*
X382583Y194162D01*
X384852Y191893D01*
X386080Y188929D01*
X386080Y185721D01*
X384852Y182757D01*
X382583Y180488D01*
X379619Y179260D01*
X363331Y179260D01*
G37*
%LPD*%
%LPC*%
G36*
X515731Y153860D02*
X515731Y153860D01*
X512767Y155088D01*
X510498Y157357D01*
X509270Y160321D01*
X509270Y163529D01*
X510498Y166493D01*
X512767Y168762D01*
X515731Y169990D01*
X532019Y169990D01*
X534983Y168762D01*
X537252Y166493D01*
X538480Y163529D01*
X538480Y160321D01*
X537252Y157357D01*
X534983Y155088D01*
X532019Y153860D01*
X515731Y153860D01*
G37*
%LPD*%
%LPC*%
G36*
X515731Y128460D02*
X515731Y128460D01*
X512767Y129688D01*
X510498Y131957D01*
X509270Y134921D01*
X509270Y138129D01*
X510498Y141093D01*
X512767Y143362D01*
X515731Y144590D01*
X532019Y144590D01*
X534983Y143362D01*
X537252Y141093D01*
X538480Y138129D01*
X538480Y134921D01*
X537252Y131957D01*
X534983Y129688D01*
X532019Y128460D01*
X515731Y128460D01*
G37*
%LPD*%
%LPC*%
G36*
X272414Y554989D02*
X272414Y554989D01*
X272414Y565786D01*
X283211Y565786D01*
X283211Y562801D01*
X275399Y554989D01*
X272414Y554989D01*
G37*
%LPD*%
%LPC*%
G36*
X272414Y56514D02*
X272414Y56514D01*
X272414Y67311D01*
X283211Y67311D01*
X283211Y64326D01*
X275399Y56514D01*
X272414Y56514D01*
G37*
%LPD*%
%LPC*%
G36*
X264351Y554989D02*
X264351Y554989D01*
X256539Y562801D01*
X256539Y565786D01*
X267336Y565786D01*
X267336Y554989D01*
X264351Y554989D01*
G37*
%LPD*%
%LPC*%
G36*
X264351Y56514D02*
X264351Y56514D01*
X256539Y64326D01*
X256539Y67311D01*
X267336Y67311D01*
X267336Y56514D01*
X264351Y56514D01*
G37*
%LPD*%
%LPC*%
G36*
X373474Y113124D02*
X373474Y113124D01*
X373474Y120206D01*
X378730Y120206D01*
X380141Y119982D01*
X381501Y119540D01*
X382774Y118891D01*
X383931Y118051D01*
X384941Y117041D01*
X385781Y115884D01*
X386430Y114611D01*
X386872Y113251D01*
X386892Y113124D01*
X373474Y113124D01*
G37*
%LPD*%
%LPC*%
G36*
X356058Y113124D02*
X356058Y113124D01*
X356078Y113251D01*
X356520Y114611D01*
X357169Y115884D01*
X358009Y117041D01*
X359019Y118051D01*
X360176Y118891D01*
X361449Y119540D01*
X362809Y119982D01*
X364220Y120206D01*
X369476Y120206D01*
X369476Y113124D01*
X356058Y113124D01*
G37*
%LPD*%
%LPC*%
G36*
X364220Y102044D02*
X364220Y102044D01*
X362809Y102268D01*
X361449Y102710D01*
X360176Y103359D01*
X359019Y104199D01*
X358009Y105209D01*
X357169Y106366D01*
X356520Y107639D01*
X356078Y108999D01*
X356058Y109126D01*
X369476Y109126D01*
X369476Y102044D01*
X364220Y102044D01*
G37*
%LPD*%
D10*
X269875Y304800D03*
X269875Y330200D03*
X269875Y355600D03*
X269875Y279400D03*
X269875Y568325D03*
X269875Y644525D03*
X269875Y619125D03*
X269875Y593725D03*
X269875Y69850D03*
X269875Y120650D03*
X269875Y146050D03*
X269875Y95250D03*
D11*
X364935Y568325D02*
X378015Y568325D01*
X378015Y542925D02*
X364935Y542925D01*
X364935Y517525D02*
X378015Y517525D01*
X378015Y492125D02*
X364935Y492125D01*
X364935Y466725D02*
X378015Y466725D01*
X378015Y441325D02*
X364935Y441325D01*
X364935Y415925D02*
X378015Y415925D01*
X378015Y390525D02*
X364935Y390525D01*
X364935Y365125D02*
X378015Y365125D01*
X378015Y339725D02*
X364935Y339725D01*
X364935Y314325D02*
X378015Y314325D01*
X378015Y288925D02*
X364935Y288925D01*
X364935Y263525D02*
X378015Y263525D01*
X378015Y238125D02*
X364935Y238125D01*
X364935Y212725D02*
X378015Y212725D01*
X378015Y187325D02*
X364935Y187325D01*
X364935Y161925D02*
X378015Y161925D01*
X378015Y136525D02*
X364935Y136525D01*
X364935Y111125D02*
X378015Y111125D01*
X378015Y85725D02*
X364935Y85725D01*
X517335Y568325D02*
X530415Y568325D01*
X530415Y542925D02*
X517335Y542925D01*
X517335Y517525D02*
X530415Y517525D01*
X530415Y492125D02*
X517335Y492125D01*
X517335Y466725D02*
X530415Y466725D01*
X530415Y441325D02*
X517335Y441325D01*
X517335Y415925D02*
X530415Y415925D01*
X530415Y390525D02*
X517335Y390525D01*
X517335Y365125D02*
X530415Y365125D01*
X530415Y339725D02*
X517335Y339725D01*
X517335Y314325D02*
X530415Y314325D01*
X530415Y288925D02*
X517335Y288925D01*
X517335Y263525D02*
X530415Y263525D01*
X530415Y238125D02*
X517335Y238125D01*
X517335Y212725D02*
X530415Y212725D01*
X530415Y187325D02*
X517335Y187325D01*
X517335Y161925D02*
X530415Y161925D01*
X530415Y136525D02*
X517335Y136525D01*
X517335Y111125D02*
X530415Y111125D01*
X530415Y85725D02*
X517335Y85725D01*
D12*
X394334Y143829D02*
X388494Y149669D01*
X269875Y233362D02*
X269875Y279400D01*
X269875Y233362D02*
X353568Y149669D01*
X388494Y149669D01*
X394334Y106996D02*
X373063Y85725D01*
X371475Y85725D01*
X394334Y106996D02*
X394334Y143829D01*
X311150Y111125D02*
X269875Y69850D01*
X311150Y111125D02*
X371475Y111125D01*
X385319Y66231D02*
X341756Y66231D01*
X330993Y76993D01*
X290449Y285292D02*
X270941Y304800D01*
X269875Y304800D01*
X290449Y247713D02*
X366268Y171894D01*
X388494Y171894D01*
X290449Y247713D02*
X290449Y285292D01*
X412368Y93280D02*
X385319Y66231D01*
X412368Y148020D02*
X388494Y171894D01*
X412368Y148020D02*
X412368Y93280D01*
X365125Y111125D02*
X330993Y76993D01*
X365125Y111125D02*
X371475Y111125D01*
X351981Y479869D02*
X269875Y561975D01*
X269875Y568325D01*
X351981Y479869D02*
X388494Y479869D01*
X412368Y455995D01*
X412368Y148020D01*
X311150Y136525D02*
X269875Y95250D01*
X311150Y136525D02*
X371475Y136525D01*
X269875Y593725D02*
X304800Y628650D01*
X304800Y673100D02*
X292100Y685800D01*
X225425Y685800D01*
X244475Y314325D02*
X244475Y203200D01*
X311150Y136525D01*
X304800Y628650D02*
X304800Y673100D01*
X225425Y685800D02*
X187325Y647700D01*
X187325Y371475D01*
X244475Y314325D01*
X212725Y587375D02*
X269875Y644525D01*
X212725Y587375D02*
X212725Y387350D01*
X269875Y330200D01*
X269875Y327025D01*
X358775Y238125D01*
X371475Y238125D01*
X231775Y581025D02*
X269875Y619125D01*
X231775Y581025D02*
X231775Y393700D01*
X269875Y355600D01*
X385319Y251269D02*
X394334Y242254D01*
X394334Y230821D01*
X348616Y276859D02*
X269875Y355600D01*
X348616Y276859D02*
X348616Y262571D01*
X394334Y230821D02*
X376238Y212725D01*
X371475Y212725D01*
X359918Y251269D02*
X348616Y262571D01*
X359918Y251269D02*
X385319Y251269D01*
X269875Y146050D02*
X219075Y95250D01*
X219075Y44450D01*
X234950Y28575D01*
X520700Y28575D02*
X568325Y76200D01*
X568325Y422275D01*
X523875Y466725D01*
X520700Y28575D02*
X234950Y28575D01*
X234950Y85725D02*
X269875Y120650D01*
X234950Y50800D02*
X241300Y44450D01*
X520700Y44450D01*
X555625Y409575D02*
X523875Y441325D01*
X234950Y85725D02*
X234950Y50800D01*
X520700Y44450D02*
X555625Y79375D01*
X555625Y409575D01*
M02*
