G04 EAGLE Gerber RS-274X export*
G75*
%MOMM*%
%FSLAX34Y34*%
%LPD*%
%INSilkscreen Top*%
%IPPOS*%
%AMOC8*
5,1,8,0,0,1.08239X$1,22.5*%
G01*
%ADD10C,0.152400*%
%ADD11C,0.127000*%
%ADD12C,0.101600*%


D10*
X281305Y293370D02*
X281305Y298450D01*
X281305Y293370D02*
X276225Y293370D01*
X281305Y311150D02*
X281305Y316230D01*
X276225Y316230D01*
X263525Y316230D02*
X258445Y316230D01*
X258445Y311150D01*
X258445Y298450D02*
X258445Y293370D01*
X263525Y293370D01*
D11*
X284480Y300355D02*
X287655Y300355D01*
X287766Y300353D01*
X287876Y300347D01*
X287987Y300338D01*
X288097Y300324D01*
X288206Y300307D01*
X288315Y300286D01*
X288423Y300261D01*
X288530Y300232D01*
X288636Y300200D01*
X288741Y300164D01*
X288844Y300124D01*
X288946Y300081D01*
X289047Y300034D01*
X289146Y299983D01*
X289243Y299930D01*
X289337Y299873D01*
X289430Y299812D01*
X289521Y299749D01*
X289610Y299682D01*
X289696Y299612D01*
X289779Y299539D01*
X289861Y299464D01*
X289939Y299386D01*
X290014Y299304D01*
X290087Y299221D01*
X290157Y299135D01*
X290224Y299046D01*
X290287Y298955D01*
X290348Y298862D01*
X290405Y298767D01*
X290458Y298671D01*
X290509Y298572D01*
X290556Y298471D01*
X290599Y298369D01*
X290639Y298266D01*
X290675Y298161D01*
X290707Y298055D01*
X290736Y297948D01*
X290761Y297840D01*
X290782Y297731D01*
X290799Y297622D01*
X290813Y297512D01*
X290822Y297401D01*
X290828Y297291D01*
X290830Y297180D01*
X290828Y297069D01*
X290822Y296959D01*
X290813Y296848D01*
X290799Y296738D01*
X290782Y296629D01*
X290761Y296520D01*
X290736Y296412D01*
X290707Y296305D01*
X290675Y296199D01*
X290639Y296094D01*
X290599Y295991D01*
X290556Y295889D01*
X290509Y295788D01*
X290458Y295689D01*
X290405Y295592D01*
X290348Y295498D01*
X290287Y295405D01*
X290224Y295314D01*
X290157Y295225D01*
X290087Y295139D01*
X290014Y295056D01*
X289939Y294974D01*
X289861Y294896D01*
X289779Y294821D01*
X289696Y294748D01*
X289610Y294678D01*
X289521Y294611D01*
X289430Y294548D01*
X289337Y294487D01*
X289243Y294430D01*
X289146Y294377D01*
X289047Y294326D01*
X288946Y294279D01*
X288844Y294236D01*
X288741Y294196D01*
X288636Y294160D01*
X288530Y294128D01*
X288423Y294099D01*
X288315Y294074D01*
X288206Y294053D01*
X288097Y294036D01*
X287987Y294022D01*
X287876Y294013D01*
X287766Y294007D01*
X287655Y294005D01*
X284480Y294005D01*
X284480Y305435D01*
X287655Y305435D01*
X287755Y305433D01*
X287854Y305427D01*
X287954Y305417D01*
X288052Y305404D01*
X288151Y305386D01*
X288248Y305365D01*
X288344Y305340D01*
X288440Y305311D01*
X288534Y305278D01*
X288627Y305242D01*
X288718Y305202D01*
X288808Y305158D01*
X288896Y305111D01*
X288982Y305061D01*
X289066Y305007D01*
X289148Y304950D01*
X289227Y304890D01*
X289305Y304826D01*
X289379Y304760D01*
X289451Y304691D01*
X289520Y304619D01*
X289586Y304545D01*
X289650Y304467D01*
X289710Y304388D01*
X289767Y304306D01*
X289821Y304222D01*
X289871Y304136D01*
X289918Y304048D01*
X289962Y303958D01*
X290002Y303867D01*
X290038Y303774D01*
X290071Y303680D01*
X290100Y303584D01*
X290125Y303488D01*
X290146Y303391D01*
X290164Y303292D01*
X290177Y303194D01*
X290187Y303094D01*
X290193Y302995D01*
X290195Y302895D01*
X290193Y302795D01*
X290187Y302696D01*
X290177Y302596D01*
X290164Y302498D01*
X290146Y302399D01*
X290125Y302302D01*
X290100Y302206D01*
X290071Y302110D01*
X290038Y302016D01*
X290002Y301923D01*
X289962Y301832D01*
X289918Y301742D01*
X289871Y301654D01*
X289821Y301568D01*
X289767Y301484D01*
X289710Y301402D01*
X289650Y301323D01*
X289586Y301245D01*
X289520Y301171D01*
X289451Y301099D01*
X289379Y301030D01*
X289305Y300964D01*
X289227Y300900D01*
X289148Y300840D01*
X289066Y300783D01*
X288982Y300729D01*
X288896Y300679D01*
X288808Y300632D01*
X288718Y300588D01*
X288627Y300548D01*
X288534Y300512D01*
X288440Y300479D01*
X288344Y300450D01*
X288248Y300425D01*
X288151Y300404D01*
X288052Y300386D01*
X287954Y300373D01*
X287854Y300363D01*
X287755Y300357D01*
X287655Y300355D01*
X295847Y305435D02*
X295847Y294005D01*
X299657Y299085D02*
X295847Y305435D01*
X299657Y299085D02*
X303467Y305435D01*
X303467Y294005D01*
X309461Y294005D02*
X314541Y294005D01*
X309461Y294005D02*
X309461Y305435D01*
X314541Y305435D01*
X313271Y300355D02*
X309461Y300355D01*
X322453Y305436D02*
X322557Y305434D01*
X322662Y305428D01*
X322766Y305419D01*
X322869Y305406D01*
X322972Y305388D01*
X323074Y305368D01*
X323176Y305343D01*
X323276Y305315D01*
X323376Y305283D01*
X323474Y305247D01*
X323571Y305208D01*
X323666Y305166D01*
X323760Y305120D01*
X323852Y305070D01*
X323942Y305018D01*
X324030Y304962D01*
X324116Y304902D01*
X324200Y304840D01*
X324281Y304775D01*
X324360Y304707D01*
X324437Y304635D01*
X324510Y304562D01*
X324582Y304485D01*
X324650Y304406D01*
X324715Y304325D01*
X324777Y304241D01*
X324837Y304155D01*
X324893Y304067D01*
X324945Y303977D01*
X324995Y303885D01*
X325041Y303791D01*
X325083Y303696D01*
X325122Y303599D01*
X325158Y303501D01*
X325190Y303401D01*
X325218Y303301D01*
X325243Y303199D01*
X325263Y303097D01*
X325281Y302994D01*
X325294Y302891D01*
X325303Y302787D01*
X325309Y302682D01*
X325311Y302578D01*
X322453Y305435D02*
X322335Y305433D01*
X322216Y305427D01*
X322098Y305418D01*
X321981Y305405D01*
X321864Y305387D01*
X321747Y305367D01*
X321631Y305342D01*
X321516Y305314D01*
X321403Y305281D01*
X321290Y305246D01*
X321178Y305206D01*
X321068Y305164D01*
X320959Y305117D01*
X320851Y305067D01*
X320746Y305014D01*
X320642Y304957D01*
X320540Y304897D01*
X320440Y304834D01*
X320342Y304767D01*
X320246Y304698D01*
X320153Y304625D01*
X320062Y304549D01*
X319973Y304471D01*
X319887Y304389D01*
X319804Y304305D01*
X319723Y304219D01*
X319646Y304129D01*
X319571Y304038D01*
X319499Y303944D01*
X319430Y303847D01*
X319365Y303749D01*
X319302Y303648D01*
X319243Y303545D01*
X319187Y303441D01*
X319135Y303335D01*
X319086Y303227D01*
X319041Y303118D01*
X318999Y303007D01*
X318961Y302895D01*
X324358Y300356D02*
X324434Y300431D01*
X324509Y300510D01*
X324580Y300591D01*
X324649Y300675D01*
X324714Y300761D01*
X324776Y300849D01*
X324836Y300939D01*
X324892Y301031D01*
X324945Y301126D01*
X324994Y301222D01*
X325040Y301320D01*
X325083Y301419D01*
X325122Y301520D01*
X325157Y301622D01*
X325189Y301725D01*
X325217Y301829D01*
X325242Y301934D01*
X325263Y302041D01*
X325280Y302147D01*
X325293Y302254D01*
X325302Y302362D01*
X325308Y302470D01*
X325310Y302578D01*
X324358Y300355D02*
X318960Y294005D01*
X325310Y294005D01*
X330390Y297180D02*
X330392Y297291D01*
X330398Y297401D01*
X330407Y297512D01*
X330421Y297622D01*
X330438Y297731D01*
X330459Y297840D01*
X330484Y297948D01*
X330513Y298055D01*
X330545Y298161D01*
X330581Y298266D01*
X330621Y298369D01*
X330664Y298471D01*
X330711Y298572D01*
X330762Y298671D01*
X330815Y298768D01*
X330872Y298862D01*
X330933Y298955D01*
X330996Y299046D01*
X331063Y299135D01*
X331133Y299221D01*
X331206Y299304D01*
X331281Y299386D01*
X331359Y299464D01*
X331441Y299539D01*
X331524Y299612D01*
X331610Y299682D01*
X331699Y299749D01*
X331790Y299812D01*
X331883Y299873D01*
X331978Y299930D01*
X332074Y299983D01*
X332173Y300034D01*
X332274Y300081D01*
X332376Y300124D01*
X332479Y300164D01*
X332584Y300200D01*
X332690Y300232D01*
X332797Y300261D01*
X332905Y300286D01*
X333014Y300307D01*
X333123Y300324D01*
X333233Y300338D01*
X333344Y300347D01*
X333454Y300353D01*
X333565Y300355D01*
X333676Y300353D01*
X333786Y300347D01*
X333897Y300338D01*
X334007Y300324D01*
X334116Y300307D01*
X334225Y300286D01*
X334333Y300261D01*
X334440Y300232D01*
X334546Y300200D01*
X334651Y300164D01*
X334754Y300124D01*
X334856Y300081D01*
X334957Y300034D01*
X335056Y299983D01*
X335153Y299930D01*
X335247Y299873D01*
X335340Y299812D01*
X335431Y299749D01*
X335520Y299682D01*
X335606Y299612D01*
X335689Y299539D01*
X335771Y299464D01*
X335849Y299386D01*
X335924Y299304D01*
X335997Y299221D01*
X336067Y299135D01*
X336134Y299046D01*
X336197Y298955D01*
X336258Y298862D01*
X336315Y298768D01*
X336368Y298671D01*
X336419Y298572D01*
X336466Y298471D01*
X336509Y298369D01*
X336549Y298266D01*
X336585Y298161D01*
X336617Y298055D01*
X336646Y297948D01*
X336671Y297840D01*
X336692Y297731D01*
X336709Y297622D01*
X336723Y297512D01*
X336732Y297401D01*
X336738Y297291D01*
X336740Y297180D01*
X336738Y297069D01*
X336732Y296959D01*
X336723Y296848D01*
X336709Y296738D01*
X336692Y296629D01*
X336671Y296520D01*
X336646Y296412D01*
X336617Y296305D01*
X336585Y296199D01*
X336549Y296094D01*
X336509Y295991D01*
X336466Y295889D01*
X336419Y295788D01*
X336368Y295689D01*
X336315Y295592D01*
X336258Y295498D01*
X336197Y295405D01*
X336134Y295314D01*
X336067Y295225D01*
X335997Y295139D01*
X335924Y295056D01*
X335849Y294974D01*
X335771Y294896D01*
X335689Y294821D01*
X335606Y294748D01*
X335520Y294678D01*
X335431Y294611D01*
X335340Y294548D01*
X335247Y294487D01*
X335152Y294430D01*
X335056Y294377D01*
X334957Y294326D01*
X334856Y294279D01*
X334754Y294236D01*
X334651Y294196D01*
X334546Y294160D01*
X334440Y294128D01*
X334333Y294099D01*
X334225Y294074D01*
X334116Y294053D01*
X334007Y294036D01*
X333897Y294022D01*
X333786Y294013D01*
X333676Y294007D01*
X333565Y294005D01*
X333454Y294007D01*
X333344Y294013D01*
X333233Y294022D01*
X333123Y294036D01*
X333014Y294053D01*
X332905Y294074D01*
X332797Y294099D01*
X332690Y294128D01*
X332584Y294160D01*
X332479Y294196D01*
X332376Y294236D01*
X332274Y294279D01*
X332173Y294326D01*
X332074Y294377D01*
X331978Y294430D01*
X331883Y294487D01*
X331790Y294548D01*
X331699Y294611D01*
X331610Y294678D01*
X331524Y294748D01*
X331441Y294821D01*
X331359Y294896D01*
X331281Y294974D01*
X331206Y295056D01*
X331133Y295139D01*
X331063Y295225D01*
X330996Y295314D01*
X330933Y295405D01*
X330872Y295498D01*
X330815Y295593D01*
X330762Y295689D01*
X330711Y295788D01*
X330664Y295889D01*
X330621Y295991D01*
X330581Y296094D01*
X330545Y296199D01*
X330513Y296305D01*
X330484Y296412D01*
X330459Y296520D01*
X330438Y296629D01*
X330421Y296738D01*
X330407Y296848D01*
X330398Y296959D01*
X330392Y297069D01*
X330390Y297180D01*
X331025Y302895D02*
X331027Y302995D01*
X331033Y303094D01*
X331043Y303194D01*
X331056Y303292D01*
X331074Y303391D01*
X331095Y303488D01*
X331120Y303584D01*
X331149Y303680D01*
X331182Y303774D01*
X331218Y303867D01*
X331258Y303958D01*
X331302Y304048D01*
X331349Y304136D01*
X331399Y304222D01*
X331453Y304306D01*
X331510Y304388D01*
X331570Y304467D01*
X331634Y304545D01*
X331700Y304619D01*
X331769Y304691D01*
X331841Y304760D01*
X331915Y304826D01*
X331993Y304890D01*
X332072Y304950D01*
X332154Y305007D01*
X332238Y305061D01*
X332324Y305111D01*
X332412Y305158D01*
X332502Y305202D01*
X332593Y305242D01*
X332686Y305278D01*
X332780Y305311D01*
X332876Y305340D01*
X332972Y305365D01*
X333069Y305386D01*
X333168Y305404D01*
X333266Y305417D01*
X333366Y305427D01*
X333465Y305433D01*
X333565Y305435D01*
X333665Y305433D01*
X333764Y305427D01*
X333864Y305417D01*
X333962Y305404D01*
X334061Y305386D01*
X334158Y305365D01*
X334254Y305340D01*
X334350Y305311D01*
X334444Y305278D01*
X334537Y305242D01*
X334628Y305202D01*
X334718Y305158D01*
X334806Y305111D01*
X334892Y305061D01*
X334976Y305007D01*
X335058Y304950D01*
X335137Y304890D01*
X335215Y304826D01*
X335289Y304760D01*
X335361Y304691D01*
X335430Y304619D01*
X335496Y304545D01*
X335560Y304467D01*
X335620Y304388D01*
X335677Y304306D01*
X335731Y304222D01*
X335781Y304136D01*
X335828Y304048D01*
X335872Y303958D01*
X335912Y303867D01*
X335948Y303774D01*
X335981Y303680D01*
X336010Y303584D01*
X336035Y303488D01*
X336056Y303391D01*
X336074Y303292D01*
X336087Y303194D01*
X336097Y303094D01*
X336103Y302995D01*
X336105Y302895D01*
X336103Y302795D01*
X336097Y302696D01*
X336087Y302596D01*
X336074Y302498D01*
X336056Y302399D01*
X336035Y302302D01*
X336010Y302206D01*
X335981Y302110D01*
X335948Y302016D01*
X335912Y301923D01*
X335872Y301832D01*
X335828Y301742D01*
X335781Y301654D01*
X335731Y301568D01*
X335677Y301484D01*
X335620Y301402D01*
X335560Y301323D01*
X335496Y301245D01*
X335430Y301171D01*
X335361Y301099D01*
X335289Y301030D01*
X335215Y300964D01*
X335137Y300900D01*
X335058Y300840D01*
X334976Y300783D01*
X334892Y300729D01*
X334806Y300679D01*
X334718Y300632D01*
X334628Y300588D01*
X334537Y300548D01*
X334444Y300512D01*
X334350Y300479D01*
X334254Y300450D01*
X334158Y300425D01*
X334061Y300404D01*
X333962Y300386D01*
X333864Y300373D01*
X333764Y300363D01*
X333665Y300357D01*
X333565Y300355D01*
X333465Y300357D01*
X333366Y300363D01*
X333266Y300373D01*
X333168Y300386D01*
X333069Y300404D01*
X332972Y300425D01*
X332876Y300450D01*
X332780Y300479D01*
X332686Y300512D01*
X332593Y300548D01*
X332502Y300588D01*
X332412Y300632D01*
X332324Y300679D01*
X332238Y300729D01*
X332154Y300783D01*
X332072Y300840D01*
X331993Y300900D01*
X331915Y300964D01*
X331841Y301030D01*
X331769Y301099D01*
X331700Y301171D01*
X331634Y301245D01*
X331570Y301323D01*
X331510Y301402D01*
X331453Y301484D01*
X331399Y301568D01*
X331349Y301654D01*
X331302Y301742D01*
X331258Y301832D01*
X331218Y301923D01*
X331182Y302016D01*
X331149Y302110D01*
X331120Y302206D01*
X331095Y302302D01*
X331074Y302399D01*
X331056Y302498D01*
X331043Y302596D01*
X331033Y302696D01*
X331027Y302795D01*
X331025Y302895D01*
X341821Y299720D02*
X341824Y299945D01*
X341832Y300170D01*
X341845Y300394D01*
X341864Y300618D01*
X341888Y300842D01*
X341917Y301065D01*
X341952Y301287D01*
X341992Y301508D01*
X342038Y301728D01*
X342088Y301947D01*
X342144Y302165D01*
X342205Y302382D01*
X342271Y302597D01*
X342342Y302810D01*
X342419Y303021D01*
X342500Y303231D01*
X342586Y303439D01*
X342677Y303644D01*
X342773Y303847D01*
X342772Y303848D02*
X342804Y303936D01*
X342840Y304023D01*
X342879Y304109D01*
X342922Y304193D01*
X342968Y304275D01*
X343017Y304355D01*
X343069Y304433D01*
X343125Y304509D01*
X343183Y304583D01*
X343245Y304654D01*
X343309Y304723D01*
X343376Y304789D01*
X343445Y304852D01*
X343517Y304913D01*
X343591Y304971D01*
X343668Y305025D01*
X343746Y305077D01*
X343827Y305125D01*
X343909Y305170D01*
X343994Y305212D01*
X344080Y305250D01*
X344167Y305285D01*
X344255Y305317D01*
X344345Y305344D01*
X344436Y305369D01*
X344528Y305389D01*
X344620Y305406D01*
X344714Y305419D01*
X344807Y305428D01*
X344901Y305434D01*
X344995Y305436D01*
X345089Y305434D01*
X345183Y305428D01*
X345276Y305419D01*
X345370Y305406D01*
X345462Y305389D01*
X345554Y305369D01*
X345645Y305344D01*
X345735Y305317D01*
X345823Y305285D01*
X345910Y305250D01*
X345996Y305212D01*
X346081Y305170D01*
X346163Y305125D01*
X346244Y305077D01*
X346322Y305025D01*
X346399Y304971D01*
X346473Y304913D01*
X346545Y304852D01*
X346614Y304789D01*
X346681Y304723D01*
X346745Y304654D01*
X346807Y304583D01*
X346865Y304509D01*
X346921Y304433D01*
X346973Y304355D01*
X347022Y304275D01*
X347068Y304193D01*
X347111Y304109D01*
X347150Y304023D01*
X347186Y303936D01*
X347218Y303848D01*
X347218Y303847D02*
X347314Y303644D01*
X347405Y303439D01*
X347491Y303231D01*
X347572Y303021D01*
X347649Y302810D01*
X347720Y302597D01*
X347786Y302382D01*
X347847Y302165D01*
X347903Y301947D01*
X347953Y301728D01*
X347999Y301508D01*
X348039Y301287D01*
X348074Y301065D01*
X348103Y300842D01*
X348127Y300618D01*
X348146Y300394D01*
X348159Y300170D01*
X348167Y299945D01*
X348170Y299720D01*
X341821Y299720D02*
X341824Y299495D01*
X341832Y299270D01*
X341845Y299046D01*
X341864Y298822D01*
X341888Y298598D01*
X341917Y298375D01*
X341952Y298153D01*
X341992Y297932D01*
X342038Y297712D01*
X342088Y297493D01*
X342144Y297275D01*
X342205Y297058D01*
X342271Y296843D01*
X342342Y296630D01*
X342419Y296419D01*
X342500Y296209D01*
X342586Y296001D01*
X342677Y295796D01*
X342773Y295593D01*
X342772Y295593D02*
X342804Y295505D01*
X342840Y295418D01*
X342879Y295332D01*
X342922Y295248D01*
X342968Y295166D01*
X343017Y295086D01*
X343069Y295008D01*
X343125Y294932D01*
X343183Y294858D01*
X343245Y294787D01*
X343309Y294718D01*
X343376Y294652D01*
X343445Y294589D01*
X343517Y294528D01*
X343591Y294470D01*
X343668Y294416D01*
X343746Y294364D01*
X343827Y294316D01*
X343909Y294271D01*
X343994Y294229D01*
X344080Y294191D01*
X344167Y294156D01*
X344255Y294124D01*
X344345Y294097D01*
X344436Y294072D01*
X344528Y294052D01*
X344620Y294035D01*
X344714Y294022D01*
X344807Y294013D01*
X344901Y294007D01*
X344995Y294005D01*
X347218Y295593D02*
X347314Y295796D01*
X347405Y296001D01*
X347491Y296209D01*
X347572Y296419D01*
X347649Y296630D01*
X347720Y296843D01*
X347786Y297058D01*
X347847Y297275D01*
X347903Y297493D01*
X347953Y297712D01*
X347999Y297932D01*
X348039Y298153D01*
X348074Y298375D01*
X348103Y298598D01*
X348127Y298822D01*
X348146Y299046D01*
X348159Y299270D01*
X348167Y299495D01*
X348170Y299720D01*
X347218Y295593D02*
X347186Y295505D01*
X347150Y295418D01*
X347111Y295332D01*
X347068Y295248D01*
X347022Y295166D01*
X346973Y295086D01*
X346921Y295008D01*
X346865Y294932D01*
X346807Y294858D01*
X346745Y294787D01*
X346681Y294718D01*
X346614Y294652D01*
X346545Y294589D01*
X346473Y294528D01*
X346399Y294470D01*
X346322Y294416D01*
X346244Y294364D01*
X346163Y294316D01*
X346081Y294271D01*
X345996Y294229D01*
X345910Y294191D01*
X345823Y294156D01*
X345735Y294124D01*
X345645Y294097D01*
X345554Y294072D01*
X345462Y294052D01*
X345370Y294035D01*
X345276Y294022D01*
X345183Y294013D01*
X345089Y294007D01*
X344995Y294005D01*
X342455Y296545D02*
X347535Y302895D01*
X352742Y292735D02*
X357822Y292735D01*
X367220Y300355D02*
X369125Y300355D01*
X369125Y294005D01*
X365315Y294005D01*
X365215Y294007D01*
X365116Y294013D01*
X365016Y294023D01*
X364918Y294036D01*
X364819Y294054D01*
X364722Y294075D01*
X364626Y294100D01*
X364530Y294129D01*
X364436Y294162D01*
X364343Y294198D01*
X364252Y294238D01*
X364162Y294282D01*
X364074Y294329D01*
X363988Y294379D01*
X363904Y294433D01*
X363822Y294490D01*
X363743Y294550D01*
X363665Y294614D01*
X363591Y294680D01*
X363519Y294749D01*
X363450Y294821D01*
X363384Y294895D01*
X363320Y294973D01*
X363260Y295052D01*
X363203Y295134D01*
X363149Y295218D01*
X363099Y295304D01*
X363052Y295392D01*
X363008Y295482D01*
X362968Y295573D01*
X362932Y295666D01*
X362899Y295760D01*
X362870Y295856D01*
X362845Y295952D01*
X362824Y296049D01*
X362806Y296148D01*
X362793Y296246D01*
X362783Y296346D01*
X362777Y296445D01*
X362775Y296545D01*
X362775Y302895D01*
X362777Y302995D01*
X362783Y303094D01*
X362793Y303194D01*
X362806Y303292D01*
X362824Y303391D01*
X362845Y303488D01*
X362870Y303584D01*
X362899Y303680D01*
X362932Y303774D01*
X362968Y303867D01*
X363008Y303958D01*
X363052Y304048D01*
X363099Y304136D01*
X363149Y304222D01*
X363203Y304306D01*
X363260Y304388D01*
X363320Y304467D01*
X363384Y304545D01*
X363450Y304619D01*
X363519Y304691D01*
X363591Y304760D01*
X363665Y304826D01*
X363743Y304890D01*
X363822Y304950D01*
X363904Y305007D01*
X363988Y305061D01*
X364074Y305111D01*
X364162Y305158D01*
X364252Y305202D01*
X364343Y305242D01*
X364436Y305278D01*
X364530Y305311D01*
X364626Y305340D01*
X364722Y305365D01*
X364819Y305386D01*
X364918Y305404D01*
X365016Y305417D01*
X365116Y305427D01*
X365215Y305433D01*
X365315Y305435D01*
X369125Y305435D01*
X374967Y305435D02*
X374967Y294005D01*
X381317Y294005D02*
X374967Y305435D01*
X381317Y305435D02*
X381317Y294005D01*
X387159Y294005D02*
X387159Y305435D01*
X390334Y305435D01*
X390445Y305433D01*
X390555Y305427D01*
X390666Y305418D01*
X390776Y305404D01*
X390885Y305387D01*
X390994Y305366D01*
X391102Y305341D01*
X391209Y305312D01*
X391315Y305280D01*
X391420Y305244D01*
X391523Y305204D01*
X391625Y305161D01*
X391726Y305114D01*
X391825Y305063D01*
X391922Y305010D01*
X392016Y304953D01*
X392109Y304892D01*
X392200Y304829D01*
X392289Y304762D01*
X392375Y304692D01*
X392458Y304619D01*
X392540Y304544D01*
X392618Y304466D01*
X392693Y304384D01*
X392766Y304301D01*
X392836Y304215D01*
X392903Y304126D01*
X392966Y304035D01*
X393027Y303942D01*
X393084Y303848D01*
X393137Y303751D01*
X393188Y303652D01*
X393235Y303551D01*
X393278Y303449D01*
X393318Y303346D01*
X393354Y303241D01*
X393386Y303135D01*
X393415Y303028D01*
X393440Y302920D01*
X393461Y302811D01*
X393478Y302702D01*
X393492Y302592D01*
X393501Y302481D01*
X393507Y302371D01*
X393509Y302260D01*
X393509Y297180D01*
X393507Y297069D01*
X393501Y296959D01*
X393492Y296848D01*
X393478Y296738D01*
X393461Y296629D01*
X393440Y296520D01*
X393415Y296412D01*
X393386Y296305D01*
X393354Y296199D01*
X393318Y296094D01*
X393278Y295991D01*
X393235Y295889D01*
X393188Y295788D01*
X393137Y295689D01*
X393084Y295592D01*
X393027Y295498D01*
X392966Y295405D01*
X392903Y295314D01*
X392836Y295225D01*
X392766Y295139D01*
X392693Y295056D01*
X392618Y294974D01*
X392540Y294896D01*
X392458Y294821D01*
X392375Y294748D01*
X392289Y294678D01*
X392200Y294611D01*
X392109Y294548D01*
X392016Y294487D01*
X391922Y294430D01*
X391825Y294377D01*
X391726Y294326D01*
X391625Y294279D01*
X391523Y294236D01*
X391420Y294196D01*
X391315Y294160D01*
X391209Y294128D01*
X391102Y294099D01*
X390994Y294074D01*
X390885Y294053D01*
X390776Y294036D01*
X390666Y294022D01*
X390555Y294013D01*
X390445Y294007D01*
X390334Y294005D01*
X387159Y294005D01*
D10*
X281305Y318770D02*
X281305Y323850D01*
X281305Y318770D02*
X276225Y318770D01*
X281305Y336550D02*
X281305Y341630D01*
X276225Y341630D01*
X263525Y341630D02*
X258445Y341630D01*
X258445Y336550D01*
X258445Y323850D02*
X258445Y318770D01*
X263525Y318770D01*
D11*
X284480Y325755D02*
X287655Y325755D01*
X287766Y325753D01*
X287876Y325747D01*
X287987Y325738D01*
X288097Y325724D01*
X288206Y325707D01*
X288315Y325686D01*
X288423Y325661D01*
X288530Y325632D01*
X288636Y325600D01*
X288741Y325564D01*
X288844Y325524D01*
X288946Y325481D01*
X289047Y325434D01*
X289146Y325383D01*
X289243Y325330D01*
X289337Y325273D01*
X289430Y325212D01*
X289521Y325149D01*
X289610Y325082D01*
X289696Y325012D01*
X289779Y324939D01*
X289861Y324864D01*
X289939Y324786D01*
X290014Y324704D01*
X290087Y324621D01*
X290157Y324535D01*
X290224Y324446D01*
X290287Y324355D01*
X290348Y324262D01*
X290405Y324167D01*
X290458Y324071D01*
X290509Y323972D01*
X290556Y323871D01*
X290599Y323769D01*
X290639Y323666D01*
X290675Y323561D01*
X290707Y323455D01*
X290736Y323348D01*
X290761Y323240D01*
X290782Y323131D01*
X290799Y323022D01*
X290813Y322912D01*
X290822Y322801D01*
X290828Y322691D01*
X290830Y322580D01*
X290828Y322469D01*
X290822Y322359D01*
X290813Y322248D01*
X290799Y322138D01*
X290782Y322029D01*
X290761Y321920D01*
X290736Y321812D01*
X290707Y321705D01*
X290675Y321599D01*
X290639Y321494D01*
X290599Y321391D01*
X290556Y321289D01*
X290509Y321188D01*
X290458Y321089D01*
X290405Y320992D01*
X290348Y320898D01*
X290287Y320805D01*
X290224Y320714D01*
X290157Y320625D01*
X290087Y320539D01*
X290014Y320456D01*
X289939Y320374D01*
X289861Y320296D01*
X289779Y320221D01*
X289696Y320148D01*
X289610Y320078D01*
X289521Y320011D01*
X289430Y319948D01*
X289337Y319887D01*
X289243Y319830D01*
X289146Y319777D01*
X289047Y319726D01*
X288946Y319679D01*
X288844Y319636D01*
X288741Y319596D01*
X288636Y319560D01*
X288530Y319528D01*
X288423Y319499D01*
X288315Y319474D01*
X288206Y319453D01*
X288097Y319436D01*
X287987Y319422D01*
X287876Y319413D01*
X287766Y319407D01*
X287655Y319405D01*
X284480Y319405D01*
X284480Y330835D01*
X287655Y330835D01*
X287755Y330833D01*
X287854Y330827D01*
X287954Y330817D01*
X288052Y330804D01*
X288151Y330786D01*
X288248Y330765D01*
X288344Y330740D01*
X288440Y330711D01*
X288534Y330678D01*
X288627Y330642D01*
X288718Y330602D01*
X288808Y330558D01*
X288896Y330511D01*
X288982Y330461D01*
X289066Y330407D01*
X289148Y330350D01*
X289227Y330290D01*
X289305Y330226D01*
X289379Y330160D01*
X289451Y330091D01*
X289520Y330019D01*
X289586Y329945D01*
X289650Y329867D01*
X289710Y329788D01*
X289767Y329706D01*
X289821Y329622D01*
X289871Y329536D01*
X289918Y329448D01*
X289962Y329358D01*
X290002Y329267D01*
X290038Y329174D01*
X290071Y329080D01*
X290100Y328984D01*
X290125Y328888D01*
X290146Y328791D01*
X290164Y328692D01*
X290177Y328594D01*
X290187Y328494D01*
X290193Y328395D01*
X290195Y328295D01*
X290193Y328195D01*
X290187Y328096D01*
X290177Y327996D01*
X290164Y327898D01*
X290146Y327799D01*
X290125Y327702D01*
X290100Y327606D01*
X290071Y327510D01*
X290038Y327416D01*
X290002Y327323D01*
X289962Y327232D01*
X289918Y327142D01*
X289871Y327054D01*
X289821Y326968D01*
X289767Y326884D01*
X289710Y326802D01*
X289650Y326723D01*
X289586Y326645D01*
X289520Y326571D01*
X289451Y326499D01*
X289379Y326430D01*
X289305Y326364D01*
X289227Y326300D01*
X289148Y326240D01*
X289066Y326183D01*
X288982Y326129D01*
X288896Y326079D01*
X288808Y326032D01*
X288718Y325988D01*
X288627Y325948D01*
X288534Y325912D01*
X288440Y325879D01*
X288344Y325850D01*
X288248Y325825D01*
X288151Y325804D01*
X288052Y325786D01*
X287954Y325773D01*
X287854Y325763D01*
X287755Y325757D01*
X287655Y325755D01*
X295847Y330835D02*
X295847Y319405D01*
X299657Y324485D02*
X295847Y330835D01*
X299657Y324485D02*
X303467Y330835D01*
X303467Y319405D01*
X309461Y319405D02*
X314541Y319405D01*
X309461Y319405D02*
X309461Y330835D01*
X314541Y330835D01*
X313271Y325755D02*
X309461Y325755D01*
X322453Y330836D02*
X322557Y330834D01*
X322662Y330828D01*
X322766Y330819D01*
X322869Y330806D01*
X322972Y330788D01*
X323074Y330768D01*
X323176Y330743D01*
X323276Y330715D01*
X323376Y330683D01*
X323474Y330647D01*
X323571Y330608D01*
X323666Y330566D01*
X323760Y330520D01*
X323852Y330470D01*
X323942Y330418D01*
X324030Y330362D01*
X324116Y330302D01*
X324200Y330240D01*
X324281Y330175D01*
X324360Y330107D01*
X324437Y330035D01*
X324510Y329962D01*
X324582Y329885D01*
X324650Y329806D01*
X324715Y329725D01*
X324777Y329641D01*
X324837Y329555D01*
X324893Y329467D01*
X324945Y329377D01*
X324995Y329285D01*
X325041Y329191D01*
X325083Y329096D01*
X325122Y328999D01*
X325158Y328901D01*
X325190Y328801D01*
X325218Y328701D01*
X325243Y328599D01*
X325263Y328497D01*
X325281Y328394D01*
X325294Y328291D01*
X325303Y328187D01*
X325309Y328082D01*
X325311Y327978D01*
X322453Y330835D02*
X322335Y330833D01*
X322216Y330827D01*
X322098Y330818D01*
X321981Y330805D01*
X321864Y330787D01*
X321747Y330767D01*
X321631Y330742D01*
X321516Y330714D01*
X321403Y330681D01*
X321290Y330646D01*
X321178Y330606D01*
X321068Y330564D01*
X320959Y330517D01*
X320851Y330467D01*
X320746Y330414D01*
X320642Y330357D01*
X320540Y330297D01*
X320440Y330234D01*
X320342Y330167D01*
X320246Y330098D01*
X320153Y330025D01*
X320062Y329949D01*
X319973Y329871D01*
X319887Y329789D01*
X319804Y329705D01*
X319723Y329619D01*
X319646Y329529D01*
X319571Y329438D01*
X319499Y329344D01*
X319430Y329247D01*
X319365Y329149D01*
X319302Y329048D01*
X319243Y328945D01*
X319187Y328841D01*
X319135Y328735D01*
X319086Y328627D01*
X319041Y328518D01*
X318999Y328407D01*
X318961Y328295D01*
X324358Y325756D02*
X324434Y325831D01*
X324509Y325910D01*
X324580Y325991D01*
X324649Y326075D01*
X324714Y326161D01*
X324776Y326249D01*
X324836Y326339D01*
X324892Y326431D01*
X324945Y326526D01*
X324994Y326622D01*
X325040Y326720D01*
X325083Y326819D01*
X325122Y326920D01*
X325157Y327022D01*
X325189Y327125D01*
X325217Y327229D01*
X325242Y327334D01*
X325263Y327441D01*
X325280Y327547D01*
X325293Y327654D01*
X325302Y327762D01*
X325308Y327870D01*
X325310Y327978D01*
X324358Y325755D02*
X318960Y319405D01*
X325310Y319405D01*
X330390Y322580D02*
X330392Y322691D01*
X330398Y322801D01*
X330407Y322912D01*
X330421Y323022D01*
X330438Y323131D01*
X330459Y323240D01*
X330484Y323348D01*
X330513Y323455D01*
X330545Y323561D01*
X330581Y323666D01*
X330621Y323769D01*
X330664Y323871D01*
X330711Y323972D01*
X330762Y324071D01*
X330815Y324168D01*
X330872Y324262D01*
X330933Y324355D01*
X330996Y324446D01*
X331063Y324535D01*
X331133Y324621D01*
X331206Y324704D01*
X331281Y324786D01*
X331359Y324864D01*
X331441Y324939D01*
X331524Y325012D01*
X331610Y325082D01*
X331699Y325149D01*
X331790Y325212D01*
X331883Y325273D01*
X331978Y325330D01*
X332074Y325383D01*
X332173Y325434D01*
X332274Y325481D01*
X332376Y325524D01*
X332479Y325564D01*
X332584Y325600D01*
X332690Y325632D01*
X332797Y325661D01*
X332905Y325686D01*
X333014Y325707D01*
X333123Y325724D01*
X333233Y325738D01*
X333344Y325747D01*
X333454Y325753D01*
X333565Y325755D01*
X333676Y325753D01*
X333786Y325747D01*
X333897Y325738D01*
X334007Y325724D01*
X334116Y325707D01*
X334225Y325686D01*
X334333Y325661D01*
X334440Y325632D01*
X334546Y325600D01*
X334651Y325564D01*
X334754Y325524D01*
X334856Y325481D01*
X334957Y325434D01*
X335056Y325383D01*
X335153Y325330D01*
X335247Y325273D01*
X335340Y325212D01*
X335431Y325149D01*
X335520Y325082D01*
X335606Y325012D01*
X335689Y324939D01*
X335771Y324864D01*
X335849Y324786D01*
X335924Y324704D01*
X335997Y324621D01*
X336067Y324535D01*
X336134Y324446D01*
X336197Y324355D01*
X336258Y324262D01*
X336315Y324168D01*
X336368Y324071D01*
X336419Y323972D01*
X336466Y323871D01*
X336509Y323769D01*
X336549Y323666D01*
X336585Y323561D01*
X336617Y323455D01*
X336646Y323348D01*
X336671Y323240D01*
X336692Y323131D01*
X336709Y323022D01*
X336723Y322912D01*
X336732Y322801D01*
X336738Y322691D01*
X336740Y322580D01*
X336738Y322469D01*
X336732Y322359D01*
X336723Y322248D01*
X336709Y322138D01*
X336692Y322029D01*
X336671Y321920D01*
X336646Y321812D01*
X336617Y321705D01*
X336585Y321599D01*
X336549Y321494D01*
X336509Y321391D01*
X336466Y321289D01*
X336419Y321188D01*
X336368Y321089D01*
X336315Y320992D01*
X336258Y320898D01*
X336197Y320805D01*
X336134Y320714D01*
X336067Y320625D01*
X335997Y320539D01*
X335924Y320456D01*
X335849Y320374D01*
X335771Y320296D01*
X335689Y320221D01*
X335606Y320148D01*
X335520Y320078D01*
X335431Y320011D01*
X335340Y319948D01*
X335247Y319887D01*
X335152Y319830D01*
X335056Y319777D01*
X334957Y319726D01*
X334856Y319679D01*
X334754Y319636D01*
X334651Y319596D01*
X334546Y319560D01*
X334440Y319528D01*
X334333Y319499D01*
X334225Y319474D01*
X334116Y319453D01*
X334007Y319436D01*
X333897Y319422D01*
X333786Y319413D01*
X333676Y319407D01*
X333565Y319405D01*
X333454Y319407D01*
X333344Y319413D01*
X333233Y319422D01*
X333123Y319436D01*
X333014Y319453D01*
X332905Y319474D01*
X332797Y319499D01*
X332690Y319528D01*
X332584Y319560D01*
X332479Y319596D01*
X332376Y319636D01*
X332274Y319679D01*
X332173Y319726D01*
X332074Y319777D01*
X331978Y319830D01*
X331883Y319887D01*
X331790Y319948D01*
X331699Y320011D01*
X331610Y320078D01*
X331524Y320148D01*
X331441Y320221D01*
X331359Y320296D01*
X331281Y320374D01*
X331206Y320456D01*
X331133Y320539D01*
X331063Y320625D01*
X330996Y320714D01*
X330933Y320805D01*
X330872Y320898D01*
X330815Y320993D01*
X330762Y321089D01*
X330711Y321188D01*
X330664Y321289D01*
X330621Y321391D01*
X330581Y321494D01*
X330545Y321599D01*
X330513Y321705D01*
X330484Y321812D01*
X330459Y321920D01*
X330438Y322029D01*
X330421Y322138D01*
X330407Y322248D01*
X330398Y322359D01*
X330392Y322469D01*
X330390Y322580D01*
X331025Y328295D02*
X331027Y328395D01*
X331033Y328494D01*
X331043Y328594D01*
X331056Y328692D01*
X331074Y328791D01*
X331095Y328888D01*
X331120Y328984D01*
X331149Y329080D01*
X331182Y329174D01*
X331218Y329267D01*
X331258Y329358D01*
X331302Y329448D01*
X331349Y329536D01*
X331399Y329622D01*
X331453Y329706D01*
X331510Y329788D01*
X331570Y329867D01*
X331634Y329945D01*
X331700Y330019D01*
X331769Y330091D01*
X331841Y330160D01*
X331915Y330226D01*
X331993Y330290D01*
X332072Y330350D01*
X332154Y330407D01*
X332238Y330461D01*
X332324Y330511D01*
X332412Y330558D01*
X332502Y330602D01*
X332593Y330642D01*
X332686Y330678D01*
X332780Y330711D01*
X332876Y330740D01*
X332972Y330765D01*
X333069Y330786D01*
X333168Y330804D01*
X333266Y330817D01*
X333366Y330827D01*
X333465Y330833D01*
X333565Y330835D01*
X333665Y330833D01*
X333764Y330827D01*
X333864Y330817D01*
X333962Y330804D01*
X334061Y330786D01*
X334158Y330765D01*
X334254Y330740D01*
X334350Y330711D01*
X334444Y330678D01*
X334537Y330642D01*
X334628Y330602D01*
X334718Y330558D01*
X334806Y330511D01*
X334892Y330461D01*
X334976Y330407D01*
X335058Y330350D01*
X335137Y330290D01*
X335215Y330226D01*
X335289Y330160D01*
X335361Y330091D01*
X335430Y330019D01*
X335496Y329945D01*
X335560Y329867D01*
X335620Y329788D01*
X335677Y329706D01*
X335731Y329622D01*
X335781Y329536D01*
X335828Y329448D01*
X335872Y329358D01*
X335912Y329267D01*
X335948Y329174D01*
X335981Y329080D01*
X336010Y328984D01*
X336035Y328888D01*
X336056Y328791D01*
X336074Y328692D01*
X336087Y328594D01*
X336097Y328494D01*
X336103Y328395D01*
X336105Y328295D01*
X336103Y328195D01*
X336097Y328096D01*
X336087Y327996D01*
X336074Y327898D01*
X336056Y327799D01*
X336035Y327702D01*
X336010Y327606D01*
X335981Y327510D01*
X335948Y327416D01*
X335912Y327323D01*
X335872Y327232D01*
X335828Y327142D01*
X335781Y327054D01*
X335731Y326968D01*
X335677Y326884D01*
X335620Y326802D01*
X335560Y326723D01*
X335496Y326645D01*
X335430Y326571D01*
X335361Y326499D01*
X335289Y326430D01*
X335215Y326364D01*
X335137Y326300D01*
X335058Y326240D01*
X334976Y326183D01*
X334892Y326129D01*
X334806Y326079D01*
X334718Y326032D01*
X334628Y325988D01*
X334537Y325948D01*
X334444Y325912D01*
X334350Y325879D01*
X334254Y325850D01*
X334158Y325825D01*
X334061Y325804D01*
X333962Y325786D01*
X333864Y325773D01*
X333764Y325763D01*
X333665Y325757D01*
X333565Y325755D01*
X333465Y325757D01*
X333366Y325763D01*
X333266Y325773D01*
X333168Y325786D01*
X333069Y325804D01*
X332972Y325825D01*
X332876Y325850D01*
X332780Y325879D01*
X332686Y325912D01*
X332593Y325948D01*
X332502Y325988D01*
X332412Y326032D01*
X332324Y326079D01*
X332238Y326129D01*
X332154Y326183D01*
X332072Y326240D01*
X331993Y326300D01*
X331915Y326364D01*
X331841Y326430D01*
X331769Y326499D01*
X331700Y326571D01*
X331634Y326645D01*
X331570Y326723D01*
X331510Y326802D01*
X331453Y326884D01*
X331399Y326968D01*
X331349Y327054D01*
X331302Y327142D01*
X331258Y327232D01*
X331218Y327323D01*
X331182Y327416D01*
X331149Y327510D01*
X331120Y327606D01*
X331095Y327702D01*
X331074Y327799D01*
X331056Y327898D01*
X331043Y327996D01*
X331033Y328096D01*
X331027Y328195D01*
X331025Y328295D01*
X341821Y325120D02*
X341824Y325345D01*
X341832Y325570D01*
X341845Y325794D01*
X341864Y326018D01*
X341888Y326242D01*
X341917Y326465D01*
X341952Y326687D01*
X341992Y326908D01*
X342038Y327128D01*
X342088Y327347D01*
X342144Y327565D01*
X342205Y327782D01*
X342271Y327997D01*
X342342Y328210D01*
X342419Y328421D01*
X342500Y328631D01*
X342586Y328839D01*
X342677Y329044D01*
X342773Y329247D01*
X342772Y329248D02*
X342804Y329336D01*
X342840Y329423D01*
X342879Y329509D01*
X342922Y329593D01*
X342968Y329675D01*
X343017Y329755D01*
X343069Y329833D01*
X343125Y329909D01*
X343183Y329983D01*
X343245Y330054D01*
X343309Y330123D01*
X343376Y330189D01*
X343445Y330252D01*
X343517Y330313D01*
X343591Y330371D01*
X343668Y330425D01*
X343746Y330477D01*
X343827Y330525D01*
X343909Y330570D01*
X343994Y330612D01*
X344080Y330650D01*
X344167Y330685D01*
X344255Y330717D01*
X344345Y330744D01*
X344436Y330769D01*
X344528Y330789D01*
X344620Y330806D01*
X344714Y330819D01*
X344807Y330828D01*
X344901Y330834D01*
X344995Y330836D01*
X345089Y330834D01*
X345183Y330828D01*
X345276Y330819D01*
X345370Y330806D01*
X345462Y330789D01*
X345554Y330769D01*
X345645Y330744D01*
X345735Y330717D01*
X345823Y330685D01*
X345910Y330650D01*
X345996Y330612D01*
X346081Y330570D01*
X346163Y330525D01*
X346244Y330477D01*
X346322Y330425D01*
X346399Y330371D01*
X346473Y330313D01*
X346545Y330252D01*
X346614Y330189D01*
X346681Y330123D01*
X346745Y330054D01*
X346807Y329983D01*
X346865Y329909D01*
X346921Y329833D01*
X346973Y329755D01*
X347022Y329675D01*
X347068Y329593D01*
X347111Y329509D01*
X347150Y329423D01*
X347186Y329336D01*
X347218Y329248D01*
X347218Y329247D02*
X347314Y329044D01*
X347405Y328839D01*
X347491Y328631D01*
X347572Y328421D01*
X347649Y328210D01*
X347720Y327997D01*
X347786Y327782D01*
X347847Y327565D01*
X347903Y327347D01*
X347953Y327128D01*
X347999Y326908D01*
X348039Y326687D01*
X348074Y326465D01*
X348103Y326242D01*
X348127Y326018D01*
X348146Y325794D01*
X348159Y325570D01*
X348167Y325345D01*
X348170Y325120D01*
X341821Y325120D02*
X341824Y324895D01*
X341832Y324670D01*
X341845Y324446D01*
X341864Y324222D01*
X341888Y323998D01*
X341917Y323775D01*
X341952Y323553D01*
X341992Y323332D01*
X342038Y323112D01*
X342088Y322893D01*
X342144Y322675D01*
X342205Y322458D01*
X342271Y322243D01*
X342342Y322030D01*
X342419Y321819D01*
X342500Y321609D01*
X342586Y321401D01*
X342677Y321196D01*
X342773Y320993D01*
X342772Y320993D02*
X342804Y320905D01*
X342840Y320818D01*
X342879Y320732D01*
X342922Y320648D01*
X342968Y320566D01*
X343017Y320486D01*
X343069Y320408D01*
X343125Y320332D01*
X343183Y320258D01*
X343245Y320187D01*
X343309Y320118D01*
X343376Y320052D01*
X343445Y319989D01*
X343517Y319928D01*
X343591Y319870D01*
X343668Y319816D01*
X343746Y319764D01*
X343827Y319716D01*
X343909Y319671D01*
X343994Y319629D01*
X344080Y319591D01*
X344167Y319556D01*
X344255Y319524D01*
X344345Y319497D01*
X344436Y319472D01*
X344528Y319452D01*
X344620Y319435D01*
X344714Y319422D01*
X344807Y319413D01*
X344901Y319407D01*
X344995Y319405D01*
X347218Y320993D02*
X347314Y321196D01*
X347405Y321401D01*
X347491Y321609D01*
X347572Y321819D01*
X347649Y322030D01*
X347720Y322243D01*
X347786Y322458D01*
X347847Y322675D01*
X347903Y322893D01*
X347953Y323112D01*
X347999Y323332D01*
X348039Y323553D01*
X348074Y323775D01*
X348103Y323998D01*
X348127Y324222D01*
X348146Y324446D01*
X348159Y324670D01*
X348167Y324895D01*
X348170Y325120D01*
X347218Y320993D02*
X347186Y320905D01*
X347150Y320818D01*
X347111Y320732D01*
X347068Y320648D01*
X347022Y320566D01*
X346973Y320486D01*
X346921Y320408D01*
X346865Y320332D01*
X346807Y320258D01*
X346745Y320187D01*
X346681Y320118D01*
X346614Y320052D01*
X346545Y319989D01*
X346473Y319928D01*
X346399Y319870D01*
X346322Y319816D01*
X346244Y319764D01*
X346163Y319716D01*
X346081Y319671D01*
X345996Y319629D01*
X345910Y319591D01*
X345823Y319556D01*
X345735Y319524D01*
X345645Y319497D01*
X345554Y319472D01*
X345462Y319452D01*
X345370Y319435D01*
X345276Y319422D01*
X345183Y319413D01*
X345089Y319407D01*
X344995Y319405D01*
X342455Y321945D02*
X347535Y328295D01*
X352742Y318135D02*
X357822Y318135D01*
X365823Y319405D02*
X365923Y319407D01*
X366022Y319413D01*
X366122Y319423D01*
X366220Y319436D01*
X366319Y319454D01*
X366416Y319475D01*
X366512Y319500D01*
X366608Y319529D01*
X366702Y319562D01*
X366795Y319598D01*
X366886Y319638D01*
X366976Y319682D01*
X367064Y319729D01*
X367150Y319779D01*
X367234Y319833D01*
X367316Y319890D01*
X367395Y319950D01*
X367473Y320014D01*
X367547Y320080D01*
X367619Y320149D01*
X367688Y320221D01*
X367754Y320295D01*
X367818Y320373D01*
X367878Y320452D01*
X367935Y320534D01*
X367989Y320618D01*
X368039Y320704D01*
X368086Y320792D01*
X368130Y320882D01*
X368170Y320973D01*
X368206Y321066D01*
X368239Y321160D01*
X368268Y321256D01*
X368293Y321352D01*
X368314Y321449D01*
X368332Y321548D01*
X368345Y321646D01*
X368355Y321746D01*
X368361Y321845D01*
X368363Y321945D01*
X365823Y319405D02*
X365682Y319407D01*
X365541Y319412D01*
X365400Y319422D01*
X365259Y319435D01*
X365119Y319451D01*
X364979Y319472D01*
X364840Y319496D01*
X364701Y319524D01*
X364564Y319555D01*
X364427Y319590D01*
X364291Y319628D01*
X364156Y319670D01*
X364023Y319716D01*
X363890Y319765D01*
X363759Y319818D01*
X363630Y319874D01*
X363501Y319933D01*
X363375Y319996D01*
X363250Y320062D01*
X363127Y320131D01*
X363006Y320204D01*
X362887Y320280D01*
X362769Y320359D01*
X362654Y320440D01*
X362542Y320525D01*
X362431Y320613D01*
X362323Y320704D01*
X362217Y320797D01*
X362114Y320894D01*
X362013Y320993D01*
X362331Y328295D02*
X362333Y328395D01*
X362339Y328494D01*
X362349Y328594D01*
X362362Y328692D01*
X362380Y328791D01*
X362401Y328888D01*
X362426Y328984D01*
X362455Y329080D01*
X362488Y329174D01*
X362524Y329267D01*
X362564Y329358D01*
X362608Y329448D01*
X362655Y329536D01*
X362705Y329622D01*
X362759Y329706D01*
X362816Y329788D01*
X362876Y329867D01*
X362940Y329945D01*
X363006Y330019D01*
X363075Y330091D01*
X363147Y330160D01*
X363221Y330226D01*
X363299Y330290D01*
X363378Y330350D01*
X363460Y330407D01*
X363544Y330461D01*
X363630Y330511D01*
X363718Y330558D01*
X363808Y330602D01*
X363899Y330642D01*
X363992Y330678D01*
X364086Y330711D01*
X364182Y330740D01*
X364278Y330765D01*
X364375Y330786D01*
X364474Y330804D01*
X364572Y330817D01*
X364672Y330827D01*
X364771Y330833D01*
X364871Y330835D01*
X364871Y330836D02*
X365004Y330834D01*
X365137Y330829D01*
X365270Y330819D01*
X365403Y330806D01*
X365535Y330789D01*
X365667Y330769D01*
X365798Y330745D01*
X365928Y330717D01*
X366058Y330686D01*
X366186Y330651D01*
X366314Y330612D01*
X366440Y330570D01*
X366565Y330524D01*
X366689Y330475D01*
X366812Y330423D01*
X366933Y330367D01*
X367052Y330307D01*
X367170Y330245D01*
X367285Y330179D01*
X367399Y330110D01*
X367511Y330037D01*
X367621Y329962D01*
X367729Y329883D01*
X363601Y326072D02*
X363517Y326124D01*
X363434Y326179D01*
X363354Y326238D01*
X363276Y326299D01*
X363201Y326363D01*
X363128Y326431D01*
X363057Y326501D01*
X362990Y326573D01*
X362925Y326648D01*
X362863Y326726D01*
X362804Y326806D01*
X362748Y326888D01*
X362696Y326972D01*
X362647Y327058D01*
X362601Y327146D01*
X362558Y327236D01*
X362519Y327327D01*
X362484Y327420D01*
X362452Y327514D01*
X362424Y327609D01*
X362399Y327705D01*
X362379Y327802D01*
X362361Y327900D01*
X362348Y327998D01*
X362339Y328097D01*
X362333Y328196D01*
X362331Y328295D01*
X367094Y324168D02*
X367178Y324116D01*
X367261Y324061D01*
X367341Y324002D01*
X367419Y323941D01*
X367494Y323877D01*
X367567Y323809D01*
X367638Y323739D01*
X367705Y323667D01*
X367770Y323592D01*
X367832Y323514D01*
X367891Y323434D01*
X367947Y323352D01*
X367999Y323268D01*
X368048Y323182D01*
X368094Y323094D01*
X368137Y323004D01*
X368176Y322913D01*
X368211Y322820D01*
X368243Y322726D01*
X368271Y322631D01*
X368296Y322535D01*
X368316Y322438D01*
X368334Y322340D01*
X368347Y322242D01*
X368356Y322143D01*
X368362Y322044D01*
X368364Y321945D01*
X367093Y324168D02*
X363601Y326073D01*
X375565Y319405D02*
X378105Y319405D01*
X375565Y319405D02*
X375465Y319407D01*
X375366Y319413D01*
X375266Y319423D01*
X375168Y319436D01*
X375069Y319454D01*
X374972Y319475D01*
X374876Y319500D01*
X374780Y319529D01*
X374686Y319562D01*
X374593Y319598D01*
X374502Y319638D01*
X374412Y319682D01*
X374324Y319729D01*
X374238Y319779D01*
X374154Y319833D01*
X374072Y319890D01*
X373993Y319950D01*
X373915Y320014D01*
X373841Y320080D01*
X373769Y320149D01*
X373700Y320221D01*
X373634Y320295D01*
X373570Y320373D01*
X373510Y320452D01*
X373453Y320534D01*
X373399Y320618D01*
X373349Y320704D01*
X373302Y320792D01*
X373258Y320882D01*
X373218Y320973D01*
X373182Y321066D01*
X373149Y321160D01*
X373120Y321256D01*
X373095Y321352D01*
X373074Y321449D01*
X373056Y321548D01*
X373043Y321646D01*
X373033Y321746D01*
X373027Y321845D01*
X373025Y321945D01*
X373025Y328295D01*
X373027Y328395D01*
X373033Y328494D01*
X373043Y328594D01*
X373056Y328692D01*
X373074Y328791D01*
X373095Y328888D01*
X373120Y328984D01*
X373149Y329080D01*
X373182Y329174D01*
X373218Y329267D01*
X373258Y329358D01*
X373302Y329448D01*
X373349Y329536D01*
X373399Y329622D01*
X373453Y329706D01*
X373510Y329788D01*
X373570Y329867D01*
X373634Y329945D01*
X373700Y330019D01*
X373769Y330091D01*
X373841Y330160D01*
X373915Y330226D01*
X373993Y330290D01*
X374072Y330350D01*
X374154Y330407D01*
X374238Y330461D01*
X374324Y330511D01*
X374412Y330558D01*
X374502Y330602D01*
X374593Y330642D01*
X374686Y330678D01*
X374780Y330711D01*
X374876Y330740D01*
X374972Y330765D01*
X375069Y330786D01*
X375168Y330804D01*
X375266Y330817D01*
X375366Y330827D01*
X375465Y330833D01*
X375565Y330835D01*
X378105Y330835D01*
X382994Y330835D02*
X382994Y319405D01*
X388074Y319405D01*
D10*
X281305Y344170D02*
X281305Y349250D01*
X281305Y344170D02*
X276225Y344170D01*
X281305Y361950D02*
X281305Y367030D01*
X276225Y367030D01*
X263525Y367030D02*
X258445Y367030D01*
X258445Y361950D01*
X258445Y349250D02*
X258445Y344170D01*
X263525Y344170D01*
D11*
X284480Y351155D02*
X287655Y351155D01*
X287766Y351153D01*
X287876Y351147D01*
X287987Y351138D01*
X288097Y351124D01*
X288206Y351107D01*
X288315Y351086D01*
X288423Y351061D01*
X288530Y351032D01*
X288636Y351000D01*
X288741Y350964D01*
X288844Y350924D01*
X288946Y350881D01*
X289047Y350834D01*
X289146Y350783D01*
X289243Y350730D01*
X289337Y350673D01*
X289430Y350612D01*
X289521Y350549D01*
X289610Y350482D01*
X289696Y350412D01*
X289779Y350339D01*
X289861Y350264D01*
X289939Y350186D01*
X290014Y350104D01*
X290087Y350021D01*
X290157Y349935D01*
X290224Y349846D01*
X290287Y349755D01*
X290348Y349662D01*
X290405Y349567D01*
X290458Y349471D01*
X290509Y349372D01*
X290556Y349271D01*
X290599Y349169D01*
X290639Y349066D01*
X290675Y348961D01*
X290707Y348855D01*
X290736Y348748D01*
X290761Y348640D01*
X290782Y348531D01*
X290799Y348422D01*
X290813Y348312D01*
X290822Y348201D01*
X290828Y348091D01*
X290830Y347980D01*
X290828Y347869D01*
X290822Y347759D01*
X290813Y347648D01*
X290799Y347538D01*
X290782Y347429D01*
X290761Y347320D01*
X290736Y347212D01*
X290707Y347105D01*
X290675Y346999D01*
X290639Y346894D01*
X290599Y346791D01*
X290556Y346689D01*
X290509Y346588D01*
X290458Y346489D01*
X290405Y346392D01*
X290348Y346298D01*
X290287Y346205D01*
X290224Y346114D01*
X290157Y346025D01*
X290087Y345939D01*
X290014Y345856D01*
X289939Y345774D01*
X289861Y345696D01*
X289779Y345621D01*
X289696Y345548D01*
X289610Y345478D01*
X289521Y345411D01*
X289430Y345348D01*
X289337Y345287D01*
X289243Y345230D01*
X289146Y345177D01*
X289047Y345126D01*
X288946Y345079D01*
X288844Y345036D01*
X288741Y344996D01*
X288636Y344960D01*
X288530Y344928D01*
X288423Y344899D01*
X288315Y344874D01*
X288206Y344853D01*
X288097Y344836D01*
X287987Y344822D01*
X287876Y344813D01*
X287766Y344807D01*
X287655Y344805D01*
X284480Y344805D01*
X284480Y356235D01*
X287655Y356235D01*
X287755Y356233D01*
X287854Y356227D01*
X287954Y356217D01*
X288052Y356204D01*
X288151Y356186D01*
X288248Y356165D01*
X288344Y356140D01*
X288440Y356111D01*
X288534Y356078D01*
X288627Y356042D01*
X288718Y356002D01*
X288808Y355958D01*
X288896Y355911D01*
X288982Y355861D01*
X289066Y355807D01*
X289148Y355750D01*
X289227Y355690D01*
X289305Y355626D01*
X289379Y355560D01*
X289451Y355491D01*
X289520Y355419D01*
X289586Y355345D01*
X289650Y355267D01*
X289710Y355188D01*
X289767Y355106D01*
X289821Y355022D01*
X289871Y354936D01*
X289918Y354848D01*
X289962Y354758D01*
X290002Y354667D01*
X290038Y354574D01*
X290071Y354480D01*
X290100Y354384D01*
X290125Y354288D01*
X290146Y354191D01*
X290164Y354092D01*
X290177Y353994D01*
X290187Y353894D01*
X290193Y353795D01*
X290195Y353695D01*
X290193Y353595D01*
X290187Y353496D01*
X290177Y353396D01*
X290164Y353298D01*
X290146Y353199D01*
X290125Y353102D01*
X290100Y353006D01*
X290071Y352910D01*
X290038Y352816D01*
X290002Y352723D01*
X289962Y352632D01*
X289918Y352542D01*
X289871Y352454D01*
X289821Y352368D01*
X289767Y352284D01*
X289710Y352202D01*
X289650Y352123D01*
X289586Y352045D01*
X289520Y351971D01*
X289451Y351899D01*
X289379Y351830D01*
X289305Y351764D01*
X289227Y351700D01*
X289148Y351640D01*
X289066Y351583D01*
X288982Y351529D01*
X288896Y351479D01*
X288808Y351432D01*
X288718Y351388D01*
X288627Y351348D01*
X288534Y351312D01*
X288440Y351279D01*
X288344Y351250D01*
X288248Y351225D01*
X288151Y351204D01*
X288052Y351186D01*
X287954Y351173D01*
X287854Y351163D01*
X287755Y351157D01*
X287655Y351155D01*
X295847Y356235D02*
X295847Y344805D01*
X299657Y349885D02*
X295847Y356235D01*
X299657Y349885D02*
X303467Y356235D01*
X303467Y344805D01*
X309461Y344805D02*
X314541Y344805D01*
X309461Y344805D02*
X309461Y356235D01*
X314541Y356235D01*
X313271Y351155D02*
X309461Y351155D01*
X322453Y356236D02*
X322557Y356234D01*
X322662Y356228D01*
X322766Y356219D01*
X322869Y356206D01*
X322972Y356188D01*
X323074Y356168D01*
X323176Y356143D01*
X323276Y356115D01*
X323376Y356083D01*
X323474Y356047D01*
X323571Y356008D01*
X323666Y355966D01*
X323760Y355920D01*
X323852Y355870D01*
X323942Y355818D01*
X324030Y355762D01*
X324116Y355702D01*
X324200Y355640D01*
X324281Y355575D01*
X324360Y355507D01*
X324437Y355435D01*
X324510Y355362D01*
X324582Y355285D01*
X324650Y355206D01*
X324715Y355125D01*
X324777Y355041D01*
X324837Y354955D01*
X324893Y354867D01*
X324945Y354777D01*
X324995Y354685D01*
X325041Y354591D01*
X325083Y354496D01*
X325122Y354399D01*
X325158Y354301D01*
X325190Y354201D01*
X325218Y354101D01*
X325243Y353999D01*
X325263Y353897D01*
X325281Y353794D01*
X325294Y353691D01*
X325303Y353587D01*
X325309Y353482D01*
X325311Y353378D01*
X322453Y356235D02*
X322335Y356233D01*
X322216Y356227D01*
X322098Y356218D01*
X321981Y356205D01*
X321864Y356187D01*
X321747Y356167D01*
X321631Y356142D01*
X321516Y356114D01*
X321403Y356081D01*
X321290Y356046D01*
X321178Y356006D01*
X321068Y355964D01*
X320959Y355917D01*
X320851Y355867D01*
X320746Y355814D01*
X320642Y355757D01*
X320540Y355697D01*
X320440Y355634D01*
X320342Y355567D01*
X320246Y355498D01*
X320153Y355425D01*
X320062Y355349D01*
X319973Y355271D01*
X319887Y355189D01*
X319804Y355105D01*
X319723Y355019D01*
X319646Y354929D01*
X319571Y354838D01*
X319499Y354744D01*
X319430Y354647D01*
X319365Y354549D01*
X319302Y354448D01*
X319243Y354345D01*
X319187Y354241D01*
X319135Y354135D01*
X319086Y354027D01*
X319041Y353918D01*
X318999Y353807D01*
X318961Y353695D01*
X324358Y351156D02*
X324434Y351231D01*
X324509Y351310D01*
X324580Y351391D01*
X324649Y351475D01*
X324714Y351561D01*
X324776Y351649D01*
X324836Y351739D01*
X324892Y351831D01*
X324945Y351926D01*
X324994Y352022D01*
X325040Y352120D01*
X325083Y352219D01*
X325122Y352320D01*
X325157Y352422D01*
X325189Y352525D01*
X325217Y352629D01*
X325242Y352734D01*
X325263Y352841D01*
X325280Y352947D01*
X325293Y353054D01*
X325302Y353162D01*
X325308Y353270D01*
X325310Y353378D01*
X324358Y351155D02*
X318960Y344805D01*
X325310Y344805D01*
X330390Y347980D02*
X330392Y348091D01*
X330398Y348201D01*
X330407Y348312D01*
X330421Y348422D01*
X330438Y348531D01*
X330459Y348640D01*
X330484Y348748D01*
X330513Y348855D01*
X330545Y348961D01*
X330581Y349066D01*
X330621Y349169D01*
X330664Y349271D01*
X330711Y349372D01*
X330762Y349471D01*
X330815Y349568D01*
X330872Y349662D01*
X330933Y349755D01*
X330996Y349846D01*
X331063Y349935D01*
X331133Y350021D01*
X331206Y350104D01*
X331281Y350186D01*
X331359Y350264D01*
X331441Y350339D01*
X331524Y350412D01*
X331610Y350482D01*
X331699Y350549D01*
X331790Y350612D01*
X331883Y350673D01*
X331978Y350730D01*
X332074Y350783D01*
X332173Y350834D01*
X332274Y350881D01*
X332376Y350924D01*
X332479Y350964D01*
X332584Y351000D01*
X332690Y351032D01*
X332797Y351061D01*
X332905Y351086D01*
X333014Y351107D01*
X333123Y351124D01*
X333233Y351138D01*
X333344Y351147D01*
X333454Y351153D01*
X333565Y351155D01*
X333676Y351153D01*
X333786Y351147D01*
X333897Y351138D01*
X334007Y351124D01*
X334116Y351107D01*
X334225Y351086D01*
X334333Y351061D01*
X334440Y351032D01*
X334546Y351000D01*
X334651Y350964D01*
X334754Y350924D01*
X334856Y350881D01*
X334957Y350834D01*
X335056Y350783D01*
X335153Y350730D01*
X335247Y350673D01*
X335340Y350612D01*
X335431Y350549D01*
X335520Y350482D01*
X335606Y350412D01*
X335689Y350339D01*
X335771Y350264D01*
X335849Y350186D01*
X335924Y350104D01*
X335997Y350021D01*
X336067Y349935D01*
X336134Y349846D01*
X336197Y349755D01*
X336258Y349662D01*
X336315Y349568D01*
X336368Y349471D01*
X336419Y349372D01*
X336466Y349271D01*
X336509Y349169D01*
X336549Y349066D01*
X336585Y348961D01*
X336617Y348855D01*
X336646Y348748D01*
X336671Y348640D01*
X336692Y348531D01*
X336709Y348422D01*
X336723Y348312D01*
X336732Y348201D01*
X336738Y348091D01*
X336740Y347980D01*
X336738Y347869D01*
X336732Y347759D01*
X336723Y347648D01*
X336709Y347538D01*
X336692Y347429D01*
X336671Y347320D01*
X336646Y347212D01*
X336617Y347105D01*
X336585Y346999D01*
X336549Y346894D01*
X336509Y346791D01*
X336466Y346689D01*
X336419Y346588D01*
X336368Y346489D01*
X336315Y346392D01*
X336258Y346298D01*
X336197Y346205D01*
X336134Y346114D01*
X336067Y346025D01*
X335997Y345939D01*
X335924Y345856D01*
X335849Y345774D01*
X335771Y345696D01*
X335689Y345621D01*
X335606Y345548D01*
X335520Y345478D01*
X335431Y345411D01*
X335340Y345348D01*
X335247Y345287D01*
X335152Y345230D01*
X335056Y345177D01*
X334957Y345126D01*
X334856Y345079D01*
X334754Y345036D01*
X334651Y344996D01*
X334546Y344960D01*
X334440Y344928D01*
X334333Y344899D01*
X334225Y344874D01*
X334116Y344853D01*
X334007Y344836D01*
X333897Y344822D01*
X333786Y344813D01*
X333676Y344807D01*
X333565Y344805D01*
X333454Y344807D01*
X333344Y344813D01*
X333233Y344822D01*
X333123Y344836D01*
X333014Y344853D01*
X332905Y344874D01*
X332797Y344899D01*
X332690Y344928D01*
X332584Y344960D01*
X332479Y344996D01*
X332376Y345036D01*
X332274Y345079D01*
X332173Y345126D01*
X332074Y345177D01*
X331978Y345230D01*
X331883Y345287D01*
X331790Y345348D01*
X331699Y345411D01*
X331610Y345478D01*
X331524Y345548D01*
X331441Y345621D01*
X331359Y345696D01*
X331281Y345774D01*
X331206Y345856D01*
X331133Y345939D01*
X331063Y346025D01*
X330996Y346114D01*
X330933Y346205D01*
X330872Y346298D01*
X330815Y346393D01*
X330762Y346489D01*
X330711Y346588D01*
X330664Y346689D01*
X330621Y346791D01*
X330581Y346894D01*
X330545Y346999D01*
X330513Y347105D01*
X330484Y347212D01*
X330459Y347320D01*
X330438Y347429D01*
X330421Y347538D01*
X330407Y347648D01*
X330398Y347759D01*
X330392Y347869D01*
X330390Y347980D01*
X331025Y353695D02*
X331027Y353795D01*
X331033Y353894D01*
X331043Y353994D01*
X331056Y354092D01*
X331074Y354191D01*
X331095Y354288D01*
X331120Y354384D01*
X331149Y354480D01*
X331182Y354574D01*
X331218Y354667D01*
X331258Y354758D01*
X331302Y354848D01*
X331349Y354936D01*
X331399Y355022D01*
X331453Y355106D01*
X331510Y355188D01*
X331570Y355267D01*
X331634Y355345D01*
X331700Y355419D01*
X331769Y355491D01*
X331841Y355560D01*
X331915Y355626D01*
X331993Y355690D01*
X332072Y355750D01*
X332154Y355807D01*
X332238Y355861D01*
X332324Y355911D01*
X332412Y355958D01*
X332502Y356002D01*
X332593Y356042D01*
X332686Y356078D01*
X332780Y356111D01*
X332876Y356140D01*
X332972Y356165D01*
X333069Y356186D01*
X333168Y356204D01*
X333266Y356217D01*
X333366Y356227D01*
X333465Y356233D01*
X333565Y356235D01*
X333665Y356233D01*
X333764Y356227D01*
X333864Y356217D01*
X333962Y356204D01*
X334061Y356186D01*
X334158Y356165D01*
X334254Y356140D01*
X334350Y356111D01*
X334444Y356078D01*
X334537Y356042D01*
X334628Y356002D01*
X334718Y355958D01*
X334806Y355911D01*
X334892Y355861D01*
X334976Y355807D01*
X335058Y355750D01*
X335137Y355690D01*
X335215Y355626D01*
X335289Y355560D01*
X335361Y355491D01*
X335430Y355419D01*
X335496Y355345D01*
X335560Y355267D01*
X335620Y355188D01*
X335677Y355106D01*
X335731Y355022D01*
X335781Y354936D01*
X335828Y354848D01*
X335872Y354758D01*
X335912Y354667D01*
X335948Y354574D01*
X335981Y354480D01*
X336010Y354384D01*
X336035Y354288D01*
X336056Y354191D01*
X336074Y354092D01*
X336087Y353994D01*
X336097Y353894D01*
X336103Y353795D01*
X336105Y353695D01*
X336103Y353595D01*
X336097Y353496D01*
X336087Y353396D01*
X336074Y353298D01*
X336056Y353199D01*
X336035Y353102D01*
X336010Y353006D01*
X335981Y352910D01*
X335948Y352816D01*
X335912Y352723D01*
X335872Y352632D01*
X335828Y352542D01*
X335781Y352454D01*
X335731Y352368D01*
X335677Y352284D01*
X335620Y352202D01*
X335560Y352123D01*
X335496Y352045D01*
X335430Y351971D01*
X335361Y351899D01*
X335289Y351830D01*
X335215Y351764D01*
X335137Y351700D01*
X335058Y351640D01*
X334976Y351583D01*
X334892Y351529D01*
X334806Y351479D01*
X334718Y351432D01*
X334628Y351388D01*
X334537Y351348D01*
X334444Y351312D01*
X334350Y351279D01*
X334254Y351250D01*
X334158Y351225D01*
X334061Y351204D01*
X333962Y351186D01*
X333864Y351173D01*
X333764Y351163D01*
X333665Y351157D01*
X333565Y351155D01*
X333465Y351157D01*
X333366Y351163D01*
X333266Y351173D01*
X333168Y351186D01*
X333069Y351204D01*
X332972Y351225D01*
X332876Y351250D01*
X332780Y351279D01*
X332686Y351312D01*
X332593Y351348D01*
X332502Y351388D01*
X332412Y351432D01*
X332324Y351479D01*
X332238Y351529D01*
X332154Y351583D01*
X332072Y351640D01*
X331993Y351700D01*
X331915Y351764D01*
X331841Y351830D01*
X331769Y351899D01*
X331700Y351971D01*
X331634Y352045D01*
X331570Y352123D01*
X331510Y352202D01*
X331453Y352284D01*
X331399Y352368D01*
X331349Y352454D01*
X331302Y352542D01*
X331258Y352632D01*
X331218Y352723D01*
X331182Y352816D01*
X331149Y352910D01*
X331120Y353006D01*
X331095Y353102D01*
X331074Y353199D01*
X331056Y353298D01*
X331043Y353396D01*
X331033Y353496D01*
X331027Y353595D01*
X331025Y353695D01*
X341821Y350520D02*
X341824Y350745D01*
X341832Y350970D01*
X341845Y351194D01*
X341864Y351418D01*
X341888Y351642D01*
X341917Y351865D01*
X341952Y352087D01*
X341992Y352308D01*
X342038Y352528D01*
X342088Y352747D01*
X342144Y352965D01*
X342205Y353182D01*
X342271Y353397D01*
X342342Y353610D01*
X342419Y353821D01*
X342500Y354031D01*
X342586Y354239D01*
X342677Y354444D01*
X342773Y354647D01*
X342772Y354648D02*
X342804Y354736D01*
X342840Y354823D01*
X342879Y354909D01*
X342922Y354993D01*
X342968Y355075D01*
X343017Y355155D01*
X343069Y355233D01*
X343125Y355309D01*
X343183Y355383D01*
X343245Y355454D01*
X343309Y355523D01*
X343376Y355589D01*
X343445Y355652D01*
X343517Y355713D01*
X343591Y355771D01*
X343668Y355825D01*
X343746Y355877D01*
X343827Y355925D01*
X343909Y355970D01*
X343994Y356012D01*
X344080Y356050D01*
X344167Y356085D01*
X344255Y356117D01*
X344345Y356144D01*
X344436Y356169D01*
X344528Y356189D01*
X344620Y356206D01*
X344714Y356219D01*
X344807Y356228D01*
X344901Y356234D01*
X344995Y356236D01*
X345089Y356234D01*
X345183Y356228D01*
X345276Y356219D01*
X345370Y356206D01*
X345462Y356189D01*
X345554Y356169D01*
X345645Y356144D01*
X345735Y356117D01*
X345823Y356085D01*
X345910Y356050D01*
X345996Y356012D01*
X346081Y355970D01*
X346163Y355925D01*
X346244Y355877D01*
X346322Y355825D01*
X346399Y355771D01*
X346473Y355713D01*
X346545Y355652D01*
X346614Y355589D01*
X346681Y355523D01*
X346745Y355454D01*
X346807Y355383D01*
X346865Y355309D01*
X346921Y355233D01*
X346973Y355155D01*
X347022Y355075D01*
X347068Y354993D01*
X347111Y354909D01*
X347150Y354823D01*
X347186Y354736D01*
X347218Y354648D01*
X347218Y354647D02*
X347314Y354444D01*
X347405Y354239D01*
X347491Y354031D01*
X347572Y353821D01*
X347649Y353610D01*
X347720Y353397D01*
X347786Y353182D01*
X347847Y352965D01*
X347903Y352747D01*
X347953Y352528D01*
X347999Y352308D01*
X348039Y352087D01*
X348074Y351865D01*
X348103Y351642D01*
X348127Y351418D01*
X348146Y351194D01*
X348159Y350970D01*
X348167Y350745D01*
X348170Y350520D01*
X341821Y350520D02*
X341824Y350295D01*
X341832Y350070D01*
X341845Y349846D01*
X341864Y349622D01*
X341888Y349398D01*
X341917Y349175D01*
X341952Y348953D01*
X341992Y348732D01*
X342038Y348512D01*
X342088Y348293D01*
X342144Y348075D01*
X342205Y347858D01*
X342271Y347643D01*
X342342Y347430D01*
X342419Y347219D01*
X342500Y347009D01*
X342586Y346801D01*
X342677Y346596D01*
X342773Y346393D01*
X342772Y346393D02*
X342804Y346305D01*
X342840Y346218D01*
X342879Y346132D01*
X342922Y346048D01*
X342968Y345966D01*
X343017Y345886D01*
X343069Y345808D01*
X343125Y345732D01*
X343183Y345658D01*
X343245Y345587D01*
X343309Y345518D01*
X343376Y345452D01*
X343445Y345389D01*
X343517Y345328D01*
X343591Y345270D01*
X343668Y345216D01*
X343746Y345164D01*
X343827Y345116D01*
X343909Y345071D01*
X343994Y345029D01*
X344080Y344991D01*
X344167Y344956D01*
X344255Y344924D01*
X344345Y344897D01*
X344436Y344872D01*
X344528Y344852D01*
X344620Y344835D01*
X344714Y344822D01*
X344807Y344813D01*
X344901Y344807D01*
X344995Y344805D01*
X347218Y346393D02*
X347314Y346596D01*
X347405Y346801D01*
X347491Y347009D01*
X347572Y347219D01*
X347649Y347430D01*
X347720Y347643D01*
X347786Y347858D01*
X347847Y348075D01*
X347903Y348293D01*
X347953Y348512D01*
X347999Y348732D01*
X348039Y348953D01*
X348074Y349175D01*
X348103Y349398D01*
X348127Y349622D01*
X348146Y349846D01*
X348159Y350070D01*
X348167Y350295D01*
X348170Y350520D01*
X347218Y346393D02*
X347186Y346305D01*
X347150Y346218D01*
X347111Y346132D01*
X347068Y346048D01*
X347022Y345966D01*
X346973Y345886D01*
X346921Y345808D01*
X346865Y345732D01*
X346807Y345658D01*
X346745Y345587D01*
X346681Y345518D01*
X346614Y345452D01*
X346545Y345389D01*
X346473Y345328D01*
X346399Y345270D01*
X346322Y345216D01*
X346244Y345164D01*
X346163Y345116D01*
X346081Y345071D01*
X345996Y345029D01*
X345910Y344991D01*
X345823Y344956D01*
X345735Y344924D01*
X345645Y344897D01*
X345554Y344872D01*
X345462Y344852D01*
X345370Y344835D01*
X345276Y344822D01*
X345183Y344813D01*
X345089Y344807D01*
X344995Y344805D01*
X342455Y347345D02*
X347535Y353695D01*
X352742Y343535D02*
X357822Y343535D01*
X365823Y344805D02*
X365923Y344807D01*
X366022Y344813D01*
X366122Y344823D01*
X366220Y344836D01*
X366319Y344854D01*
X366416Y344875D01*
X366512Y344900D01*
X366608Y344929D01*
X366702Y344962D01*
X366795Y344998D01*
X366886Y345038D01*
X366976Y345082D01*
X367064Y345129D01*
X367150Y345179D01*
X367234Y345233D01*
X367316Y345290D01*
X367395Y345350D01*
X367473Y345414D01*
X367547Y345480D01*
X367619Y345549D01*
X367688Y345621D01*
X367754Y345695D01*
X367818Y345773D01*
X367878Y345852D01*
X367935Y345934D01*
X367989Y346018D01*
X368039Y346104D01*
X368086Y346192D01*
X368130Y346282D01*
X368170Y346373D01*
X368206Y346466D01*
X368239Y346560D01*
X368268Y346656D01*
X368293Y346752D01*
X368314Y346849D01*
X368332Y346948D01*
X368345Y347046D01*
X368355Y347146D01*
X368361Y347245D01*
X368363Y347345D01*
X365823Y344805D02*
X365682Y344807D01*
X365541Y344812D01*
X365400Y344822D01*
X365259Y344835D01*
X365119Y344851D01*
X364979Y344872D01*
X364840Y344896D01*
X364701Y344924D01*
X364564Y344955D01*
X364427Y344990D01*
X364291Y345028D01*
X364156Y345070D01*
X364023Y345116D01*
X363890Y345165D01*
X363759Y345218D01*
X363630Y345274D01*
X363501Y345333D01*
X363375Y345396D01*
X363250Y345462D01*
X363127Y345531D01*
X363006Y345604D01*
X362887Y345680D01*
X362769Y345759D01*
X362654Y345840D01*
X362542Y345925D01*
X362431Y346013D01*
X362323Y346104D01*
X362217Y346197D01*
X362114Y346294D01*
X362013Y346393D01*
X362331Y353695D02*
X362333Y353795D01*
X362339Y353894D01*
X362349Y353994D01*
X362362Y354092D01*
X362380Y354191D01*
X362401Y354288D01*
X362426Y354384D01*
X362455Y354480D01*
X362488Y354574D01*
X362524Y354667D01*
X362564Y354758D01*
X362608Y354848D01*
X362655Y354936D01*
X362705Y355022D01*
X362759Y355106D01*
X362816Y355188D01*
X362876Y355267D01*
X362940Y355345D01*
X363006Y355419D01*
X363075Y355491D01*
X363147Y355560D01*
X363221Y355626D01*
X363299Y355690D01*
X363378Y355750D01*
X363460Y355807D01*
X363544Y355861D01*
X363630Y355911D01*
X363718Y355958D01*
X363808Y356002D01*
X363899Y356042D01*
X363992Y356078D01*
X364086Y356111D01*
X364182Y356140D01*
X364278Y356165D01*
X364375Y356186D01*
X364474Y356204D01*
X364572Y356217D01*
X364672Y356227D01*
X364771Y356233D01*
X364871Y356235D01*
X364871Y356236D02*
X365004Y356234D01*
X365137Y356229D01*
X365270Y356219D01*
X365403Y356206D01*
X365535Y356189D01*
X365667Y356169D01*
X365798Y356145D01*
X365928Y356117D01*
X366058Y356086D01*
X366186Y356051D01*
X366314Y356012D01*
X366440Y355970D01*
X366565Y355924D01*
X366689Y355875D01*
X366812Y355823D01*
X366933Y355767D01*
X367052Y355707D01*
X367170Y355645D01*
X367285Y355579D01*
X367399Y355510D01*
X367511Y355437D01*
X367621Y355362D01*
X367729Y355283D01*
X363601Y351472D02*
X363517Y351524D01*
X363434Y351579D01*
X363354Y351638D01*
X363276Y351699D01*
X363201Y351763D01*
X363128Y351831D01*
X363057Y351901D01*
X362990Y351973D01*
X362925Y352048D01*
X362863Y352126D01*
X362804Y352206D01*
X362748Y352288D01*
X362696Y352372D01*
X362647Y352458D01*
X362601Y352546D01*
X362558Y352636D01*
X362519Y352727D01*
X362484Y352820D01*
X362452Y352914D01*
X362424Y353009D01*
X362399Y353105D01*
X362379Y353202D01*
X362361Y353300D01*
X362348Y353398D01*
X362339Y353497D01*
X362333Y353596D01*
X362331Y353695D01*
X367094Y349568D02*
X367178Y349516D01*
X367261Y349461D01*
X367341Y349402D01*
X367419Y349341D01*
X367494Y349277D01*
X367567Y349209D01*
X367638Y349139D01*
X367705Y349067D01*
X367770Y348992D01*
X367832Y348914D01*
X367891Y348834D01*
X367947Y348752D01*
X367999Y348668D01*
X368048Y348582D01*
X368094Y348494D01*
X368137Y348404D01*
X368176Y348313D01*
X368211Y348220D01*
X368243Y348126D01*
X368271Y348031D01*
X368296Y347935D01*
X368316Y347838D01*
X368334Y347740D01*
X368347Y347642D01*
X368356Y347543D01*
X368362Y347444D01*
X368364Y347345D01*
X367093Y349568D02*
X363601Y351473D01*
X373443Y356235D02*
X373443Y344805D01*
X373443Y356235D02*
X376618Y356235D01*
X376729Y356233D01*
X376839Y356227D01*
X376950Y356218D01*
X377060Y356204D01*
X377169Y356187D01*
X377278Y356166D01*
X377386Y356141D01*
X377493Y356112D01*
X377599Y356080D01*
X377704Y356044D01*
X377807Y356004D01*
X377909Y355961D01*
X378010Y355914D01*
X378109Y355863D01*
X378206Y355810D01*
X378300Y355753D01*
X378393Y355692D01*
X378484Y355629D01*
X378573Y355562D01*
X378659Y355492D01*
X378742Y355419D01*
X378824Y355344D01*
X378902Y355266D01*
X378977Y355184D01*
X379050Y355101D01*
X379120Y355015D01*
X379187Y354926D01*
X379250Y354835D01*
X379311Y354742D01*
X379368Y354648D01*
X379421Y354551D01*
X379472Y354452D01*
X379519Y354351D01*
X379562Y354249D01*
X379602Y354146D01*
X379638Y354041D01*
X379670Y353935D01*
X379699Y353828D01*
X379724Y353720D01*
X379745Y353611D01*
X379762Y353502D01*
X379776Y353392D01*
X379785Y353281D01*
X379791Y353171D01*
X379793Y353060D01*
X379793Y347980D01*
X379791Y347869D01*
X379785Y347759D01*
X379776Y347648D01*
X379762Y347538D01*
X379745Y347429D01*
X379724Y347320D01*
X379699Y347212D01*
X379670Y347105D01*
X379638Y346999D01*
X379602Y346894D01*
X379562Y346791D01*
X379519Y346689D01*
X379472Y346588D01*
X379421Y346489D01*
X379368Y346392D01*
X379311Y346298D01*
X379250Y346205D01*
X379187Y346114D01*
X379120Y346025D01*
X379050Y345939D01*
X378977Y345856D01*
X378902Y345774D01*
X378824Y345696D01*
X378742Y345621D01*
X378659Y345548D01*
X378573Y345478D01*
X378484Y345411D01*
X378393Y345348D01*
X378300Y345287D01*
X378206Y345230D01*
X378109Y345177D01*
X378010Y345126D01*
X377909Y345079D01*
X377807Y345036D01*
X377704Y344996D01*
X377599Y344960D01*
X377493Y344928D01*
X377386Y344899D01*
X377278Y344874D01*
X377169Y344853D01*
X377060Y344836D01*
X376950Y344822D01*
X376839Y344813D01*
X376729Y344807D01*
X376618Y344805D01*
X373443Y344805D01*
X384619Y344805D02*
X388429Y356235D01*
X392239Y344805D01*
X391287Y347663D02*
X385572Y347663D01*
D10*
X281305Y273050D02*
X281305Y267970D01*
X276225Y267970D01*
X281305Y285750D02*
X281305Y290830D01*
X276225Y290830D01*
X263525Y290830D02*
X258445Y290830D01*
X258445Y285750D01*
X258445Y273050D02*
X258445Y267970D01*
X263525Y267970D01*
D11*
X284480Y274955D02*
X287655Y274955D01*
X287766Y274953D01*
X287876Y274947D01*
X287987Y274938D01*
X288097Y274924D01*
X288206Y274907D01*
X288315Y274886D01*
X288423Y274861D01*
X288530Y274832D01*
X288636Y274800D01*
X288741Y274764D01*
X288844Y274724D01*
X288946Y274681D01*
X289047Y274634D01*
X289146Y274583D01*
X289243Y274530D01*
X289337Y274473D01*
X289430Y274412D01*
X289521Y274349D01*
X289610Y274282D01*
X289696Y274212D01*
X289779Y274139D01*
X289861Y274064D01*
X289939Y273986D01*
X290014Y273904D01*
X290087Y273821D01*
X290157Y273735D01*
X290224Y273646D01*
X290287Y273555D01*
X290348Y273462D01*
X290405Y273367D01*
X290458Y273271D01*
X290509Y273172D01*
X290556Y273071D01*
X290599Y272969D01*
X290639Y272866D01*
X290675Y272761D01*
X290707Y272655D01*
X290736Y272548D01*
X290761Y272440D01*
X290782Y272331D01*
X290799Y272222D01*
X290813Y272112D01*
X290822Y272001D01*
X290828Y271891D01*
X290830Y271780D01*
X290828Y271669D01*
X290822Y271559D01*
X290813Y271448D01*
X290799Y271338D01*
X290782Y271229D01*
X290761Y271120D01*
X290736Y271012D01*
X290707Y270905D01*
X290675Y270799D01*
X290639Y270694D01*
X290599Y270591D01*
X290556Y270489D01*
X290509Y270388D01*
X290458Y270289D01*
X290405Y270192D01*
X290348Y270098D01*
X290287Y270005D01*
X290224Y269914D01*
X290157Y269825D01*
X290087Y269739D01*
X290014Y269656D01*
X289939Y269574D01*
X289861Y269496D01*
X289779Y269421D01*
X289696Y269348D01*
X289610Y269278D01*
X289521Y269211D01*
X289430Y269148D01*
X289337Y269087D01*
X289243Y269030D01*
X289146Y268977D01*
X289047Y268926D01*
X288946Y268879D01*
X288844Y268836D01*
X288741Y268796D01*
X288636Y268760D01*
X288530Y268728D01*
X288423Y268699D01*
X288315Y268674D01*
X288206Y268653D01*
X288097Y268636D01*
X287987Y268622D01*
X287876Y268613D01*
X287766Y268607D01*
X287655Y268605D01*
X284480Y268605D01*
X284480Y280035D01*
X287655Y280035D01*
X287755Y280033D01*
X287854Y280027D01*
X287954Y280017D01*
X288052Y280004D01*
X288151Y279986D01*
X288248Y279965D01*
X288344Y279940D01*
X288440Y279911D01*
X288534Y279878D01*
X288627Y279842D01*
X288718Y279802D01*
X288808Y279758D01*
X288896Y279711D01*
X288982Y279661D01*
X289066Y279607D01*
X289148Y279550D01*
X289227Y279490D01*
X289305Y279426D01*
X289379Y279360D01*
X289451Y279291D01*
X289520Y279219D01*
X289586Y279145D01*
X289650Y279067D01*
X289710Y278988D01*
X289767Y278906D01*
X289821Y278822D01*
X289871Y278736D01*
X289918Y278648D01*
X289962Y278558D01*
X290002Y278467D01*
X290038Y278374D01*
X290071Y278280D01*
X290100Y278184D01*
X290125Y278088D01*
X290146Y277991D01*
X290164Y277892D01*
X290177Y277794D01*
X290187Y277694D01*
X290193Y277595D01*
X290195Y277495D01*
X290193Y277395D01*
X290187Y277296D01*
X290177Y277196D01*
X290164Y277098D01*
X290146Y276999D01*
X290125Y276902D01*
X290100Y276806D01*
X290071Y276710D01*
X290038Y276616D01*
X290002Y276523D01*
X289962Y276432D01*
X289918Y276342D01*
X289871Y276254D01*
X289821Y276168D01*
X289767Y276084D01*
X289710Y276002D01*
X289650Y275923D01*
X289586Y275845D01*
X289520Y275771D01*
X289451Y275699D01*
X289379Y275630D01*
X289305Y275564D01*
X289227Y275500D01*
X289148Y275440D01*
X289066Y275383D01*
X288982Y275329D01*
X288896Y275279D01*
X288808Y275232D01*
X288718Y275188D01*
X288627Y275148D01*
X288534Y275112D01*
X288440Y275079D01*
X288344Y275050D01*
X288248Y275025D01*
X288151Y275004D01*
X288052Y274986D01*
X287954Y274973D01*
X287854Y274963D01*
X287755Y274957D01*
X287655Y274955D01*
X295847Y280035D02*
X295847Y268605D01*
X299657Y273685D02*
X295847Y280035D01*
X299657Y273685D02*
X303467Y280035D01*
X303467Y268605D01*
X309461Y268605D02*
X314541Y268605D01*
X309461Y268605D02*
X309461Y280035D01*
X314541Y280035D01*
X313271Y274955D02*
X309461Y274955D01*
X322453Y280036D02*
X322557Y280034D01*
X322662Y280028D01*
X322766Y280019D01*
X322869Y280006D01*
X322972Y279988D01*
X323074Y279968D01*
X323176Y279943D01*
X323276Y279915D01*
X323376Y279883D01*
X323474Y279847D01*
X323571Y279808D01*
X323666Y279766D01*
X323760Y279720D01*
X323852Y279670D01*
X323942Y279618D01*
X324030Y279562D01*
X324116Y279502D01*
X324200Y279440D01*
X324281Y279375D01*
X324360Y279307D01*
X324437Y279235D01*
X324510Y279162D01*
X324582Y279085D01*
X324650Y279006D01*
X324715Y278925D01*
X324777Y278841D01*
X324837Y278755D01*
X324893Y278667D01*
X324945Y278577D01*
X324995Y278485D01*
X325041Y278391D01*
X325083Y278296D01*
X325122Y278199D01*
X325158Y278101D01*
X325190Y278001D01*
X325218Y277901D01*
X325243Y277799D01*
X325263Y277697D01*
X325281Y277594D01*
X325294Y277491D01*
X325303Y277387D01*
X325309Y277282D01*
X325311Y277178D01*
X322453Y280035D02*
X322335Y280033D01*
X322216Y280027D01*
X322098Y280018D01*
X321981Y280005D01*
X321864Y279987D01*
X321747Y279967D01*
X321631Y279942D01*
X321516Y279914D01*
X321403Y279881D01*
X321290Y279846D01*
X321178Y279806D01*
X321068Y279764D01*
X320959Y279717D01*
X320851Y279667D01*
X320746Y279614D01*
X320642Y279557D01*
X320540Y279497D01*
X320440Y279434D01*
X320342Y279367D01*
X320246Y279298D01*
X320153Y279225D01*
X320062Y279149D01*
X319973Y279071D01*
X319887Y278989D01*
X319804Y278905D01*
X319723Y278819D01*
X319646Y278729D01*
X319571Y278638D01*
X319499Y278544D01*
X319430Y278447D01*
X319365Y278349D01*
X319302Y278248D01*
X319243Y278145D01*
X319187Y278041D01*
X319135Y277935D01*
X319086Y277827D01*
X319041Y277718D01*
X318999Y277607D01*
X318961Y277495D01*
X324358Y274956D02*
X324434Y275031D01*
X324509Y275110D01*
X324580Y275191D01*
X324649Y275275D01*
X324714Y275361D01*
X324776Y275449D01*
X324836Y275539D01*
X324892Y275631D01*
X324945Y275726D01*
X324994Y275822D01*
X325040Y275920D01*
X325083Y276019D01*
X325122Y276120D01*
X325157Y276222D01*
X325189Y276325D01*
X325217Y276429D01*
X325242Y276534D01*
X325263Y276641D01*
X325280Y276747D01*
X325293Y276854D01*
X325302Y276962D01*
X325308Y277070D01*
X325310Y277178D01*
X324358Y274955D02*
X318960Y268605D01*
X325310Y268605D01*
X330390Y271780D02*
X330392Y271891D01*
X330398Y272001D01*
X330407Y272112D01*
X330421Y272222D01*
X330438Y272331D01*
X330459Y272440D01*
X330484Y272548D01*
X330513Y272655D01*
X330545Y272761D01*
X330581Y272866D01*
X330621Y272969D01*
X330664Y273071D01*
X330711Y273172D01*
X330762Y273271D01*
X330815Y273368D01*
X330872Y273462D01*
X330933Y273555D01*
X330996Y273646D01*
X331063Y273735D01*
X331133Y273821D01*
X331206Y273904D01*
X331281Y273986D01*
X331359Y274064D01*
X331441Y274139D01*
X331524Y274212D01*
X331610Y274282D01*
X331699Y274349D01*
X331790Y274412D01*
X331883Y274473D01*
X331978Y274530D01*
X332074Y274583D01*
X332173Y274634D01*
X332274Y274681D01*
X332376Y274724D01*
X332479Y274764D01*
X332584Y274800D01*
X332690Y274832D01*
X332797Y274861D01*
X332905Y274886D01*
X333014Y274907D01*
X333123Y274924D01*
X333233Y274938D01*
X333344Y274947D01*
X333454Y274953D01*
X333565Y274955D01*
X333676Y274953D01*
X333786Y274947D01*
X333897Y274938D01*
X334007Y274924D01*
X334116Y274907D01*
X334225Y274886D01*
X334333Y274861D01*
X334440Y274832D01*
X334546Y274800D01*
X334651Y274764D01*
X334754Y274724D01*
X334856Y274681D01*
X334957Y274634D01*
X335056Y274583D01*
X335153Y274530D01*
X335247Y274473D01*
X335340Y274412D01*
X335431Y274349D01*
X335520Y274282D01*
X335606Y274212D01*
X335689Y274139D01*
X335771Y274064D01*
X335849Y273986D01*
X335924Y273904D01*
X335997Y273821D01*
X336067Y273735D01*
X336134Y273646D01*
X336197Y273555D01*
X336258Y273462D01*
X336315Y273368D01*
X336368Y273271D01*
X336419Y273172D01*
X336466Y273071D01*
X336509Y272969D01*
X336549Y272866D01*
X336585Y272761D01*
X336617Y272655D01*
X336646Y272548D01*
X336671Y272440D01*
X336692Y272331D01*
X336709Y272222D01*
X336723Y272112D01*
X336732Y272001D01*
X336738Y271891D01*
X336740Y271780D01*
X336738Y271669D01*
X336732Y271559D01*
X336723Y271448D01*
X336709Y271338D01*
X336692Y271229D01*
X336671Y271120D01*
X336646Y271012D01*
X336617Y270905D01*
X336585Y270799D01*
X336549Y270694D01*
X336509Y270591D01*
X336466Y270489D01*
X336419Y270388D01*
X336368Y270289D01*
X336315Y270192D01*
X336258Y270098D01*
X336197Y270005D01*
X336134Y269914D01*
X336067Y269825D01*
X335997Y269739D01*
X335924Y269656D01*
X335849Y269574D01*
X335771Y269496D01*
X335689Y269421D01*
X335606Y269348D01*
X335520Y269278D01*
X335431Y269211D01*
X335340Y269148D01*
X335247Y269087D01*
X335152Y269030D01*
X335056Y268977D01*
X334957Y268926D01*
X334856Y268879D01*
X334754Y268836D01*
X334651Y268796D01*
X334546Y268760D01*
X334440Y268728D01*
X334333Y268699D01*
X334225Y268674D01*
X334116Y268653D01*
X334007Y268636D01*
X333897Y268622D01*
X333786Y268613D01*
X333676Y268607D01*
X333565Y268605D01*
X333454Y268607D01*
X333344Y268613D01*
X333233Y268622D01*
X333123Y268636D01*
X333014Y268653D01*
X332905Y268674D01*
X332797Y268699D01*
X332690Y268728D01*
X332584Y268760D01*
X332479Y268796D01*
X332376Y268836D01*
X332274Y268879D01*
X332173Y268926D01*
X332074Y268977D01*
X331978Y269030D01*
X331883Y269087D01*
X331790Y269148D01*
X331699Y269211D01*
X331610Y269278D01*
X331524Y269348D01*
X331441Y269421D01*
X331359Y269496D01*
X331281Y269574D01*
X331206Y269656D01*
X331133Y269739D01*
X331063Y269825D01*
X330996Y269914D01*
X330933Y270005D01*
X330872Y270098D01*
X330815Y270193D01*
X330762Y270289D01*
X330711Y270388D01*
X330664Y270489D01*
X330621Y270591D01*
X330581Y270694D01*
X330545Y270799D01*
X330513Y270905D01*
X330484Y271012D01*
X330459Y271120D01*
X330438Y271229D01*
X330421Y271338D01*
X330407Y271448D01*
X330398Y271559D01*
X330392Y271669D01*
X330390Y271780D01*
X331025Y277495D02*
X331027Y277595D01*
X331033Y277694D01*
X331043Y277794D01*
X331056Y277892D01*
X331074Y277991D01*
X331095Y278088D01*
X331120Y278184D01*
X331149Y278280D01*
X331182Y278374D01*
X331218Y278467D01*
X331258Y278558D01*
X331302Y278648D01*
X331349Y278736D01*
X331399Y278822D01*
X331453Y278906D01*
X331510Y278988D01*
X331570Y279067D01*
X331634Y279145D01*
X331700Y279219D01*
X331769Y279291D01*
X331841Y279360D01*
X331915Y279426D01*
X331993Y279490D01*
X332072Y279550D01*
X332154Y279607D01*
X332238Y279661D01*
X332324Y279711D01*
X332412Y279758D01*
X332502Y279802D01*
X332593Y279842D01*
X332686Y279878D01*
X332780Y279911D01*
X332876Y279940D01*
X332972Y279965D01*
X333069Y279986D01*
X333168Y280004D01*
X333266Y280017D01*
X333366Y280027D01*
X333465Y280033D01*
X333565Y280035D01*
X333665Y280033D01*
X333764Y280027D01*
X333864Y280017D01*
X333962Y280004D01*
X334061Y279986D01*
X334158Y279965D01*
X334254Y279940D01*
X334350Y279911D01*
X334444Y279878D01*
X334537Y279842D01*
X334628Y279802D01*
X334718Y279758D01*
X334806Y279711D01*
X334892Y279661D01*
X334976Y279607D01*
X335058Y279550D01*
X335137Y279490D01*
X335215Y279426D01*
X335289Y279360D01*
X335361Y279291D01*
X335430Y279219D01*
X335496Y279145D01*
X335560Y279067D01*
X335620Y278988D01*
X335677Y278906D01*
X335731Y278822D01*
X335781Y278736D01*
X335828Y278648D01*
X335872Y278558D01*
X335912Y278467D01*
X335948Y278374D01*
X335981Y278280D01*
X336010Y278184D01*
X336035Y278088D01*
X336056Y277991D01*
X336074Y277892D01*
X336087Y277794D01*
X336097Y277694D01*
X336103Y277595D01*
X336105Y277495D01*
X336103Y277395D01*
X336097Y277296D01*
X336087Y277196D01*
X336074Y277098D01*
X336056Y276999D01*
X336035Y276902D01*
X336010Y276806D01*
X335981Y276710D01*
X335948Y276616D01*
X335912Y276523D01*
X335872Y276432D01*
X335828Y276342D01*
X335781Y276254D01*
X335731Y276168D01*
X335677Y276084D01*
X335620Y276002D01*
X335560Y275923D01*
X335496Y275845D01*
X335430Y275771D01*
X335361Y275699D01*
X335289Y275630D01*
X335215Y275564D01*
X335137Y275500D01*
X335058Y275440D01*
X334976Y275383D01*
X334892Y275329D01*
X334806Y275279D01*
X334718Y275232D01*
X334628Y275188D01*
X334537Y275148D01*
X334444Y275112D01*
X334350Y275079D01*
X334254Y275050D01*
X334158Y275025D01*
X334061Y275004D01*
X333962Y274986D01*
X333864Y274973D01*
X333764Y274963D01*
X333665Y274957D01*
X333565Y274955D01*
X333465Y274957D01*
X333366Y274963D01*
X333266Y274973D01*
X333168Y274986D01*
X333069Y275004D01*
X332972Y275025D01*
X332876Y275050D01*
X332780Y275079D01*
X332686Y275112D01*
X332593Y275148D01*
X332502Y275188D01*
X332412Y275232D01*
X332324Y275279D01*
X332238Y275329D01*
X332154Y275383D01*
X332072Y275440D01*
X331993Y275500D01*
X331915Y275564D01*
X331841Y275630D01*
X331769Y275699D01*
X331700Y275771D01*
X331634Y275845D01*
X331570Y275923D01*
X331510Y276002D01*
X331453Y276084D01*
X331399Y276168D01*
X331349Y276254D01*
X331302Y276342D01*
X331258Y276432D01*
X331218Y276523D01*
X331182Y276616D01*
X331149Y276710D01*
X331120Y276806D01*
X331095Y276902D01*
X331074Y276999D01*
X331056Y277098D01*
X331043Y277196D01*
X331033Y277296D01*
X331027Y277395D01*
X331025Y277495D01*
X341821Y274320D02*
X341824Y274545D01*
X341832Y274770D01*
X341845Y274994D01*
X341864Y275218D01*
X341888Y275442D01*
X341917Y275665D01*
X341952Y275887D01*
X341992Y276108D01*
X342038Y276328D01*
X342088Y276547D01*
X342144Y276765D01*
X342205Y276982D01*
X342271Y277197D01*
X342342Y277410D01*
X342419Y277621D01*
X342500Y277831D01*
X342586Y278039D01*
X342677Y278244D01*
X342773Y278447D01*
X342772Y278448D02*
X342804Y278536D01*
X342840Y278623D01*
X342879Y278709D01*
X342922Y278793D01*
X342968Y278875D01*
X343017Y278955D01*
X343069Y279033D01*
X343125Y279109D01*
X343183Y279183D01*
X343245Y279254D01*
X343309Y279323D01*
X343376Y279389D01*
X343445Y279452D01*
X343517Y279513D01*
X343591Y279571D01*
X343668Y279625D01*
X343746Y279677D01*
X343827Y279725D01*
X343909Y279770D01*
X343994Y279812D01*
X344080Y279850D01*
X344167Y279885D01*
X344255Y279917D01*
X344345Y279944D01*
X344436Y279969D01*
X344528Y279989D01*
X344620Y280006D01*
X344714Y280019D01*
X344807Y280028D01*
X344901Y280034D01*
X344995Y280036D01*
X345089Y280034D01*
X345183Y280028D01*
X345276Y280019D01*
X345370Y280006D01*
X345462Y279989D01*
X345554Y279969D01*
X345645Y279944D01*
X345735Y279917D01*
X345823Y279885D01*
X345910Y279850D01*
X345996Y279812D01*
X346081Y279770D01*
X346163Y279725D01*
X346244Y279677D01*
X346322Y279625D01*
X346399Y279571D01*
X346473Y279513D01*
X346545Y279452D01*
X346614Y279389D01*
X346681Y279323D01*
X346745Y279254D01*
X346807Y279183D01*
X346865Y279109D01*
X346921Y279033D01*
X346973Y278955D01*
X347022Y278875D01*
X347068Y278793D01*
X347111Y278709D01*
X347150Y278623D01*
X347186Y278536D01*
X347218Y278448D01*
X347218Y278447D02*
X347314Y278244D01*
X347405Y278039D01*
X347491Y277831D01*
X347572Y277621D01*
X347649Y277410D01*
X347720Y277197D01*
X347786Y276982D01*
X347847Y276765D01*
X347903Y276547D01*
X347953Y276328D01*
X347999Y276108D01*
X348039Y275887D01*
X348074Y275665D01*
X348103Y275442D01*
X348127Y275218D01*
X348146Y274994D01*
X348159Y274770D01*
X348167Y274545D01*
X348170Y274320D01*
X341821Y274320D02*
X341824Y274095D01*
X341832Y273870D01*
X341845Y273646D01*
X341864Y273422D01*
X341888Y273198D01*
X341917Y272975D01*
X341952Y272753D01*
X341992Y272532D01*
X342038Y272312D01*
X342088Y272093D01*
X342144Y271875D01*
X342205Y271658D01*
X342271Y271443D01*
X342342Y271230D01*
X342419Y271019D01*
X342500Y270809D01*
X342586Y270601D01*
X342677Y270396D01*
X342773Y270193D01*
X342772Y270193D02*
X342804Y270105D01*
X342840Y270018D01*
X342879Y269932D01*
X342922Y269848D01*
X342968Y269766D01*
X343017Y269686D01*
X343069Y269608D01*
X343125Y269532D01*
X343183Y269458D01*
X343245Y269387D01*
X343309Y269318D01*
X343376Y269252D01*
X343445Y269189D01*
X343517Y269128D01*
X343591Y269070D01*
X343668Y269016D01*
X343746Y268964D01*
X343827Y268916D01*
X343909Y268871D01*
X343994Y268829D01*
X344080Y268791D01*
X344167Y268756D01*
X344255Y268724D01*
X344345Y268697D01*
X344436Y268672D01*
X344528Y268652D01*
X344620Y268635D01*
X344714Y268622D01*
X344807Y268613D01*
X344901Y268607D01*
X344995Y268605D01*
X347218Y270193D02*
X347314Y270396D01*
X347405Y270601D01*
X347491Y270809D01*
X347572Y271019D01*
X347649Y271230D01*
X347720Y271443D01*
X347786Y271658D01*
X347847Y271875D01*
X347903Y272093D01*
X347953Y272312D01*
X347999Y272532D01*
X348039Y272753D01*
X348074Y272975D01*
X348103Y273198D01*
X348127Y273422D01*
X348146Y273646D01*
X348159Y273870D01*
X348167Y274095D01*
X348170Y274320D01*
X347218Y270193D02*
X347186Y270105D01*
X347150Y270018D01*
X347111Y269932D01*
X347068Y269848D01*
X347022Y269766D01*
X346973Y269686D01*
X346921Y269608D01*
X346865Y269532D01*
X346807Y269458D01*
X346745Y269387D01*
X346681Y269318D01*
X346614Y269252D01*
X346545Y269189D01*
X346473Y269128D01*
X346399Y269070D01*
X346322Y269016D01*
X346244Y268964D01*
X346163Y268916D01*
X346081Y268871D01*
X345996Y268829D01*
X345910Y268791D01*
X345823Y268756D01*
X345735Y268724D01*
X345645Y268697D01*
X345554Y268672D01*
X345462Y268652D01*
X345370Y268635D01*
X345276Y268622D01*
X345183Y268613D01*
X345089Y268607D01*
X344995Y268605D01*
X342455Y271145D02*
X347535Y277495D01*
X352742Y267335D02*
X357822Y267335D01*
X365569Y268605D02*
X361759Y280035D01*
X369379Y280035D02*
X365569Y268605D01*
X376327Y268605D02*
X378867Y268605D01*
X376327Y268605D02*
X376227Y268607D01*
X376128Y268613D01*
X376028Y268623D01*
X375930Y268636D01*
X375831Y268654D01*
X375734Y268675D01*
X375638Y268700D01*
X375542Y268729D01*
X375448Y268762D01*
X375355Y268798D01*
X375264Y268838D01*
X375174Y268882D01*
X375086Y268929D01*
X375000Y268979D01*
X374916Y269033D01*
X374834Y269090D01*
X374755Y269150D01*
X374677Y269214D01*
X374603Y269280D01*
X374531Y269349D01*
X374462Y269421D01*
X374396Y269495D01*
X374332Y269573D01*
X374272Y269652D01*
X374215Y269734D01*
X374161Y269818D01*
X374111Y269904D01*
X374064Y269992D01*
X374020Y270082D01*
X373980Y270173D01*
X373944Y270266D01*
X373911Y270360D01*
X373882Y270456D01*
X373857Y270552D01*
X373836Y270649D01*
X373818Y270748D01*
X373805Y270846D01*
X373795Y270946D01*
X373789Y271045D01*
X373787Y271145D01*
X373787Y277495D01*
X373789Y277595D01*
X373795Y277694D01*
X373805Y277794D01*
X373818Y277892D01*
X373836Y277991D01*
X373857Y278088D01*
X373882Y278184D01*
X373911Y278280D01*
X373944Y278374D01*
X373980Y278467D01*
X374020Y278558D01*
X374064Y278648D01*
X374111Y278736D01*
X374161Y278822D01*
X374215Y278906D01*
X374272Y278988D01*
X374332Y279067D01*
X374396Y279145D01*
X374462Y279219D01*
X374531Y279291D01*
X374603Y279360D01*
X374677Y279426D01*
X374755Y279490D01*
X374834Y279550D01*
X374916Y279607D01*
X375000Y279661D01*
X375086Y279711D01*
X375174Y279758D01*
X375264Y279802D01*
X375355Y279842D01*
X375448Y279878D01*
X375542Y279911D01*
X375638Y279940D01*
X375734Y279965D01*
X375831Y279986D01*
X375930Y280004D01*
X376028Y280017D01*
X376128Y280027D01*
X376227Y280033D01*
X376327Y280035D01*
X378867Y280035D01*
X385852Y268605D02*
X388392Y268605D01*
X385852Y268605D02*
X385752Y268607D01*
X385653Y268613D01*
X385553Y268623D01*
X385455Y268636D01*
X385356Y268654D01*
X385259Y268675D01*
X385163Y268700D01*
X385067Y268729D01*
X384973Y268762D01*
X384880Y268798D01*
X384789Y268838D01*
X384699Y268882D01*
X384611Y268929D01*
X384525Y268979D01*
X384441Y269033D01*
X384359Y269090D01*
X384280Y269150D01*
X384202Y269214D01*
X384128Y269280D01*
X384056Y269349D01*
X383987Y269421D01*
X383921Y269495D01*
X383857Y269573D01*
X383797Y269652D01*
X383740Y269734D01*
X383686Y269818D01*
X383636Y269904D01*
X383589Y269992D01*
X383545Y270082D01*
X383505Y270173D01*
X383469Y270266D01*
X383436Y270360D01*
X383407Y270456D01*
X383382Y270552D01*
X383361Y270649D01*
X383343Y270748D01*
X383330Y270846D01*
X383320Y270946D01*
X383314Y271045D01*
X383312Y271145D01*
X383312Y277495D01*
X383314Y277595D01*
X383320Y277694D01*
X383330Y277794D01*
X383343Y277892D01*
X383361Y277991D01*
X383382Y278088D01*
X383407Y278184D01*
X383436Y278280D01*
X383469Y278374D01*
X383505Y278467D01*
X383545Y278558D01*
X383589Y278648D01*
X383636Y278736D01*
X383686Y278822D01*
X383740Y278906D01*
X383797Y278988D01*
X383857Y279067D01*
X383921Y279145D01*
X383987Y279219D01*
X384056Y279291D01*
X384128Y279360D01*
X384202Y279426D01*
X384280Y279490D01*
X384359Y279550D01*
X384441Y279607D01*
X384525Y279661D01*
X384611Y279711D01*
X384699Y279758D01*
X384789Y279802D01*
X384880Y279842D01*
X384973Y279878D01*
X385067Y279911D01*
X385163Y279940D01*
X385259Y279965D01*
X385356Y279986D01*
X385455Y280004D01*
X385553Y280017D01*
X385653Y280027D01*
X385752Y280033D01*
X385852Y280035D01*
X388392Y280035D01*
D10*
X281305Y556895D02*
X281305Y561975D01*
X281305Y556895D02*
X276225Y556895D01*
X281305Y574675D02*
X281305Y579755D01*
X276225Y579755D01*
X263525Y579755D02*
X258445Y579755D01*
X258445Y574675D01*
X258445Y561975D02*
X258445Y556895D01*
X263525Y556895D01*
D11*
X284480Y557530D02*
X284480Y568960D01*
X287655Y568960D01*
X287766Y568958D01*
X287876Y568952D01*
X287987Y568943D01*
X288097Y568929D01*
X288206Y568912D01*
X288315Y568891D01*
X288423Y568866D01*
X288530Y568837D01*
X288636Y568805D01*
X288741Y568769D01*
X288844Y568729D01*
X288946Y568686D01*
X289047Y568639D01*
X289146Y568588D01*
X289243Y568535D01*
X289337Y568478D01*
X289430Y568417D01*
X289521Y568354D01*
X289610Y568287D01*
X289696Y568217D01*
X289779Y568144D01*
X289861Y568069D01*
X289939Y567991D01*
X290014Y567909D01*
X290087Y567826D01*
X290157Y567740D01*
X290224Y567651D01*
X290287Y567560D01*
X290348Y567467D01*
X290405Y567373D01*
X290458Y567276D01*
X290509Y567177D01*
X290556Y567076D01*
X290599Y566974D01*
X290639Y566871D01*
X290675Y566766D01*
X290707Y566660D01*
X290736Y566553D01*
X290761Y566445D01*
X290782Y566336D01*
X290799Y566227D01*
X290813Y566117D01*
X290822Y566006D01*
X290828Y565896D01*
X290830Y565785D01*
X290830Y560705D01*
X290828Y560594D01*
X290822Y560484D01*
X290813Y560373D01*
X290799Y560263D01*
X290782Y560154D01*
X290761Y560045D01*
X290736Y559937D01*
X290707Y559830D01*
X290675Y559724D01*
X290639Y559619D01*
X290599Y559516D01*
X290556Y559414D01*
X290509Y559313D01*
X290458Y559214D01*
X290405Y559118D01*
X290348Y559023D01*
X290287Y558930D01*
X290224Y558839D01*
X290157Y558750D01*
X290087Y558664D01*
X290014Y558581D01*
X289939Y558499D01*
X289861Y558421D01*
X289779Y558346D01*
X289696Y558273D01*
X289610Y558203D01*
X289521Y558136D01*
X289430Y558073D01*
X289337Y558012D01*
X289243Y557955D01*
X289146Y557902D01*
X289047Y557851D01*
X288946Y557804D01*
X288844Y557761D01*
X288741Y557721D01*
X288636Y557685D01*
X288530Y557653D01*
X288423Y557624D01*
X288315Y557599D01*
X288206Y557578D01*
X288097Y557561D01*
X287987Y557547D01*
X287876Y557538D01*
X287766Y557532D01*
X287655Y557530D01*
X284480Y557530D01*
X299720Y557530D02*
X299820Y557532D01*
X299919Y557538D01*
X300019Y557548D01*
X300117Y557561D01*
X300216Y557579D01*
X300313Y557600D01*
X300409Y557625D01*
X300505Y557654D01*
X300599Y557687D01*
X300692Y557723D01*
X300783Y557763D01*
X300873Y557807D01*
X300961Y557854D01*
X301047Y557904D01*
X301131Y557958D01*
X301213Y558015D01*
X301292Y558075D01*
X301370Y558139D01*
X301444Y558205D01*
X301516Y558274D01*
X301585Y558346D01*
X301651Y558420D01*
X301715Y558498D01*
X301775Y558577D01*
X301832Y558659D01*
X301886Y558743D01*
X301936Y558829D01*
X301983Y558917D01*
X302027Y559007D01*
X302067Y559098D01*
X302103Y559191D01*
X302136Y559285D01*
X302165Y559381D01*
X302190Y559477D01*
X302211Y559574D01*
X302229Y559673D01*
X302242Y559771D01*
X302252Y559871D01*
X302258Y559970D01*
X302260Y560070D01*
X299720Y557530D02*
X299579Y557532D01*
X299438Y557537D01*
X299297Y557547D01*
X299156Y557560D01*
X299016Y557576D01*
X298876Y557597D01*
X298737Y557621D01*
X298598Y557649D01*
X298461Y557680D01*
X298324Y557715D01*
X298188Y557753D01*
X298053Y557795D01*
X297920Y557841D01*
X297787Y557890D01*
X297656Y557943D01*
X297527Y557999D01*
X297398Y558058D01*
X297272Y558121D01*
X297147Y558187D01*
X297024Y558256D01*
X296903Y558329D01*
X296784Y558405D01*
X296666Y558484D01*
X296551Y558565D01*
X296439Y558650D01*
X296328Y558738D01*
X296220Y558829D01*
X296114Y558922D01*
X296011Y559019D01*
X295910Y559118D01*
X296228Y566420D02*
X296230Y566520D01*
X296236Y566619D01*
X296246Y566719D01*
X296259Y566817D01*
X296277Y566916D01*
X296298Y567013D01*
X296323Y567109D01*
X296352Y567205D01*
X296385Y567299D01*
X296421Y567392D01*
X296461Y567483D01*
X296505Y567573D01*
X296552Y567661D01*
X296602Y567747D01*
X296656Y567831D01*
X296713Y567913D01*
X296773Y567992D01*
X296837Y568070D01*
X296903Y568144D01*
X296972Y568216D01*
X297044Y568285D01*
X297118Y568351D01*
X297196Y568415D01*
X297275Y568475D01*
X297357Y568532D01*
X297441Y568586D01*
X297527Y568636D01*
X297615Y568683D01*
X297705Y568727D01*
X297796Y568767D01*
X297889Y568803D01*
X297983Y568836D01*
X298079Y568865D01*
X298175Y568890D01*
X298272Y568911D01*
X298371Y568929D01*
X298469Y568942D01*
X298569Y568952D01*
X298668Y568958D01*
X298768Y568960D01*
X298768Y568961D02*
X298901Y568959D01*
X299034Y568954D01*
X299167Y568944D01*
X299300Y568931D01*
X299432Y568914D01*
X299564Y568894D01*
X299695Y568870D01*
X299825Y568842D01*
X299955Y568811D01*
X300083Y568776D01*
X300211Y568737D01*
X300337Y568695D01*
X300462Y568649D01*
X300586Y568600D01*
X300709Y568548D01*
X300830Y568492D01*
X300949Y568432D01*
X301067Y568370D01*
X301182Y568304D01*
X301296Y568235D01*
X301408Y568162D01*
X301518Y568087D01*
X301626Y568008D01*
X297497Y564197D02*
X297413Y564249D01*
X297330Y564304D01*
X297250Y564363D01*
X297172Y564424D01*
X297097Y564488D01*
X297024Y564556D01*
X296953Y564626D01*
X296886Y564698D01*
X296821Y564773D01*
X296759Y564851D01*
X296700Y564931D01*
X296644Y565013D01*
X296592Y565097D01*
X296543Y565183D01*
X296497Y565271D01*
X296454Y565361D01*
X296415Y565452D01*
X296380Y565545D01*
X296348Y565639D01*
X296320Y565734D01*
X296295Y565830D01*
X296275Y565927D01*
X296257Y566025D01*
X296244Y566123D01*
X296235Y566222D01*
X296229Y566321D01*
X296227Y566420D01*
X300990Y562293D02*
X301074Y562241D01*
X301157Y562186D01*
X301237Y562127D01*
X301315Y562066D01*
X301390Y562002D01*
X301463Y561934D01*
X301534Y561864D01*
X301601Y561792D01*
X301666Y561717D01*
X301728Y561639D01*
X301787Y561559D01*
X301843Y561477D01*
X301895Y561393D01*
X301944Y561307D01*
X301990Y561219D01*
X302033Y561129D01*
X302072Y561038D01*
X302107Y560945D01*
X302139Y560851D01*
X302167Y560756D01*
X302192Y560660D01*
X302212Y560563D01*
X302230Y560465D01*
X302243Y560367D01*
X302252Y560268D01*
X302258Y560169D01*
X302260Y560070D01*
X300990Y562293D02*
X297498Y564198D01*
X306451Y556260D02*
X311531Y556260D01*
X320929Y563880D02*
X322834Y563880D01*
X322834Y557530D01*
X319024Y557530D01*
X318924Y557532D01*
X318825Y557538D01*
X318725Y557548D01*
X318627Y557561D01*
X318528Y557579D01*
X318431Y557600D01*
X318335Y557625D01*
X318239Y557654D01*
X318145Y557687D01*
X318052Y557723D01*
X317961Y557763D01*
X317871Y557807D01*
X317783Y557854D01*
X317697Y557904D01*
X317613Y557958D01*
X317531Y558015D01*
X317452Y558075D01*
X317374Y558139D01*
X317300Y558205D01*
X317228Y558274D01*
X317159Y558346D01*
X317093Y558420D01*
X317029Y558498D01*
X316969Y558577D01*
X316912Y558659D01*
X316858Y558743D01*
X316808Y558829D01*
X316761Y558917D01*
X316717Y559007D01*
X316677Y559098D01*
X316641Y559191D01*
X316608Y559285D01*
X316579Y559381D01*
X316554Y559477D01*
X316533Y559574D01*
X316515Y559673D01*
X316502Y559771D01*
X316492Y559871D01*
X316486Y559970D01*
X316484Y560070D01*
X316484Y566420D01*
X316486Y566520D01*
X316492Y566619D01*
X316502Y566719D01*
X316515Y566817D01*
X316533Y566916D01*
X316554Y567013D01*
X316579Y567109D01*
X316608Y567205D01*
X316641Y567299D01*
X316677Y567392D01*
X316717Y567483D01*
X316761Y567573D01*
X316808Y567661D01*
X316858Y567747D01*
X316912Y567831D01*
X316969Y567913D01*
X317029Y567992D01*
X317093Y568070D01*
X317159Y568144D01*
X317228Y568216D01*
X317300Y568285D01*
X317374Y568351D01*
X317452Y568415D01*
X317531Y568475D01*
X317613Y568532D01*
X317697Y568586D01*
X317783Y568636D01*
X317871Y568683D01*
X317961Y568727D01*
X318052Y568767D01*
X318145Y568803D01*
X318239Y568836D01*
X318335Y568865D01*
X318431Y568890D01*
X318528Y568911D01*
X318627Y568929D01*
X318725Y568942D01*
X318825Y568952D01*
X318924Y568958D01*
X319024Y568960D01*
X322834Y568960D01*
X328676Y568960D02*
X328676Y557530D01*
X335026Y557530D02*
X328676Y568960D01*
X335026Y568960D02*
X335026Y557530D01*
X340868Y557530D02*
X340868Y568960D01*
X344043Y568960D01*
X344154Y568958D01*
X344264Y568952D01*
X344375Y568943D01*
X344485Y568929D01*
X344594Y568912D01*
X344703Y568891D01*
X344811Y568866D01*
X344918Y568837D01*
X345024Y568805D01*
X345129Y568769D01*
X345232Y568729D01*
X345334Y568686D01*
X345435Y568639D01*
X345534Y568588D01*
X345631Y568535D01*
X345725Y568478D01*
X345818Y568417D01*
X345909Y568354D01*
X345998Y568287D01*
X346084Y568217D01*
X346167Y568144D01*
X346249Y568069D01*
X346327Y567991D01*
X346402Y567909D01*
X346475Y567826D01*
X346545Y567740D01*
X346612Y567651D01*
X346675Y567560D01*
X346736Y567467D01*
X346793Y567373D01*
X346846Y567276D01*
X346897Y567177D01*
X346944Y567076D01*
X346987Y566974D01*
X347027Y566871D01*
X347063Y566766D01*
X347095Y566660D01*
X347124Y566553D01*
X347149Y566445D01*
X347170Y566336D01*
X347187Y566227D01*
X347201Y566117D01*
X347210Y566006D01*
X347216Y565896D01*
X347218Y565785D01*
X347218Y560705D01*
X347216Y560594D01*
X347210Y560484D01*
X347201Y560373D01*
X347187Y560263D01*
X347170Y560154D01*
X347149Y560045D01*
X347124Y559937D01*
X347095Y559830D01*
X347063Y559724D01*
X347027Y559619D01*
X346987Y559516D01*
X346944Y559414D01*
X346897Y559313D01*
X346846Y559214D01*
X346793Y559118D01*
X346736Y559023D01*
X346675Y558930D01*
X346612Y558839D01*
X346545Y558750D01*
X346475Y558664D01*
X346402Y558581D01*
X346327Y558499D01*
X346249Y558421D01*
X346167Y558346D01*
X346084Y558273D01*
X345998Y558203D01*
X345909Y558136D01*
X345818Y558073D01*
X345725Y558012D01*
X345631Y557955D01*
X345534Y557902D01*
X345435Y557851D01*
X345334Y557804D01*
X345232Y557761D01*
X345129Y557721D01*
X345024Y557685D01*
X344918Y557653D01*
X344811Y557624D01*
X344703Y557599D01*
X344594Y557578D01*
X344485Y557561D01*
X344375Y557547D01*
X344264Y557538D01*
X344154Y557532D01*
X344043Y557530D01*
X340868Y557530D01*
D10*
X281305Y633095D02*
X281305Y638175D01*
X281305Y633095D02*
X276225Y633095D01*
X281305Y650875D02*
X281305Y655955D01*
X276225Y655955D01*
X263525Y655955D02*
X258445Y655955D01*
X258445Y650875D01*
X258445Y638175D02*
X258445Y633095D01*
X263525Y633095D01*
D11*
X284480Y633730D02*
X284480Y645160D01*
X287655Y645160D01*
X287766Y645158D01*
X287876Y645152D01*
X287987Y645143D01*
X288097Y645129D01*
X288206Y645112D01*
X288315Y645091D01*
X288423Y645066D01*
X288530Y645037D01*
X288636Y645005D01*
X288741Y644969D01*
X288844Y644929D01*
X288946Y644886D01*
X289047Y644839D01*
X289146Y644788D01*
X289243Y644735D01*
X289337Y644678D01*
X289430Y644617D01*
X289521Y644554D01*
X289610Y644487D01*
X289696Y644417D01*
X289779Y644344D01*
X289861Y644269D01*
X289939Y644191D01*
X290014Y644109D01*
X290087Y644026D01*
X290157Y643940D01*
X290224Y643851D01*
X290287Y643760D01*
X290348Y643667D01*
X290405Y643573D01*
X290458Y643476D01*
X290509Y643377D01*
X290556Y643276D01*
X290599Y643174D01*
X290639Y643071D01*
X290675Y642966D01*
X290707Y642860D01*
X290736Y642753D01*
X290761Y642645D01*
X290782Y642536D01*
X290799Y642427D01*
X290813Y642317D01*
X290822Y642206D01*
X290828Y642096D01*
X290830Y641985D01*
X290830Y636905D01*
X290828Y636794D01*
X290822Y636684D01*
X290813Y636573D01*
X290799Y636463D01*
X290782Y636354D01*
X290761Y636245D01*
X290736Y636137D01*
X290707Y636030D01*
X290675Y635924D01*
X290639Y635819D01*
X290599Y635716D01*
X290556Y635614D01*
X290509Y635513D01*
X290458Y635414D01*
X290405Y635318D01*
X290348Y635223D01*
X290287Y635130D01*
X290224Y635039D01*
X290157Y634950D01*
X290087Y634864D01*
X290014Y634781D01*
X289939Y634699D01*
X289861Y634621D01*
X289779Y634546D01*
X289696Y634473D01*
X289610Y634403D01*
X289521Y634336D01*
X289430Y634273D01*
X289337Y634212D01*
X289243Y634155D01*
X289146Y634102D01*
X289047Y634051D01*
X288946Y634004D01*
X288844Y633961D01*
X288741Y633921D01*
X288636Y633885D01*
X288530Y633853D01*
X288423Y633824D01*
X288315Y633799D01*
X288206Y633778D01*
X288097Y633761D01*
X287987Y633747D01*
X287876Y633738D01*
X287766Y633732D01*
X287655Y633730D01*
X284480Y633730D01*
X299720Y633730D02*
X299820Y633732D01*
X299919Y633738D01*
X300019Y633748D01*
X300117Y633761D01*
X300216Y633779D01*
X300313Y633800D01*
X300409Y633825D01*
X300505Y633854D01*
X300599Y633887D01*
X300692Y633923D01*
X300783Y633963D01*
X300873Y634007D01*
X300961Y634054D01*
X301047Y634104D01*
X301131Y634158D01*
X301213Y634215D01*
X301292Y634275D01*
X301370Y634339D01*
X301444Y634405D01*
X301516Y634474D01*
X301585Y634546D01*
X301651Y634620D01*
X301715Y634698D01*
X301775Y634777D01*
X301832Y634859D01*
X301886Y634943D01*
X301936Y635029D01*
X301983Y635117D01*
X302027Y635207D01*
X302067Y635298D01*
X302103Y635391D01*
X302136Y635485D01*
X302165Y635581D01*
X302190Y635677D01*
X302211Y635774D01*
X302229Y635873D01*
X302242Y635971D01*
X302252Y636071D01*
X302258Y636170D01*
X302260Y636270D01*
X299720Y633730D02*
X299579Y633732D01*
X299438Y633737D01*
X299297Y633747D01*
X299156Y633760D01*
X299016Y633776D01*
X298876Y633797D01*
X298737Y633821D01*
X298598Y633849D01*
X298461Y633880D01*
X298324Y633915D01*
X298188Y633953D01*
X298053Y633995D01*
X297920Y634041D01*
X297787Y634090D01*
X297656Y634143D01*
X297527Y634199D01*
X297398Y634258D01*
X297272Y634321D01*
X297147Y634387D01*
X297024Y634456D01*
X296903Y634529D01*
X296784Y634605D01*
X296666Y634684D01*
X296551Y634765D01*
X296439Y634850D01*
X296328Y634938D01*
X296220Y635029D01*
X296114Y635122D01*
X296011Y635219D01*
X295910Y635318D01*
X296228Y642620D02*
X296230Y642720D01*
X296236Y642819D01*
X296246Y642919D01*
X296259Y643017D01*
X296277Y643116D01*
X296298Y643213D01*
X296323Y643309D01*
X296352Y643405D01*
X296385Y643499D01*
X296421Y643592D01*
X296461Y643683D01*
X296505Y643773D01*
X296552Y643861D01*
X296602Y643947D01*
X296656Y644031D01*
X296713Y644113D01*
X296773Y644192D01*
X296837Y644270D01*
X296903Y644344D01*
X296972Y644416D01*
X297044Y644485D01*
X297118Y644551D01*
X297196Y644615D01*
X297275Y644675D01*
X297357Y644732D01*
X297441Y644786D01*
X297527Y644836D01*
X297615Y644883D01*
X297705Y644927D01*
X297796Y644967D01*
X297889Y645003D01*
X297983Y645036D01*
X298079Y645065D01*
X298175Y645090D01*
X298272Y645111D01*
X298371Y645129D01*
X298469Y645142D01*
X298569Y645152D01*
X298668Y645158D01*
X298768Y645160D01*
X298768Y645161D02*
X298901Y645159D01*
X299034Y645154D01*
X299167Y645144D01*
X299300Y645131D01*
X299432Y645114D01*
X299564Y645094D01*
X299695Y645070D01*
X299825Y645042D01*
X299955Y645011D01*
X300083Y644976D01*
X300211Y644937D01*
X300337Y644895D01*
X300462Y644849D01*
X300586Y644800D01*
X300709Y644748D01*
X300830Y644692D01*
X300949Y644632D01*
X301067Y644570D01*
X301182Y644504D01*
X301296Y644435D01*
X301408Y644362D01*
X301518Y644287D01*
X301626Y644208D01*
X297497Y640397D02*
X297413Y640449D01*
X297330Y640504D01*
X297250Y640563D01*
X297172Y640624D01*
X297097Y640688D01*
X297024Y640756D01*
X296953Y640826D01*
X296886Y640898D01*
X296821Y640973D01*
X296759Y641051D01*
X296700Y641131D01*
X296644Y641213D01*
X296592Y641297D01*
X296543Y641383D01*
X296497Y641471D01*
X296454Y641561D01*
X296415Y641652D01*
X296380Y641745D01*
X296348Y641839D01*
X296320Y641934D01*
X296295Y642030D01*
X296275Y642127D01*
X296257Y642225D01*
X296244Y642323D01*
X296235Y642422D01*
X296229Y642521D01*
X296227Y642620D01*
X300990Y638493D02*
X301074Y638441D01*
X301157Y638386D01*
X301237Y638327D01*
X301315Y638266D01*
X301390Y638202D01*
X301463Y638134D01*
X301534Y638064D01*
X301601Y637992D01*
X301666Y637917D01*
X301728Y637839D01*
X301787Y637759D01*
X301843Y637677D01*
X301895Y637593D01*
X301944Y637507D01*
X301990Y637419D01*
X302033Y637329D01*
X302072Y637238D01*
X302107Y637145D01*
X302139Y637051D01*
X302167Y636956D01*
X302192Y636860D01*
X302212Y636763D01*
X302230Y636665D01*
X302243Y636567D01*
X302252Y636468D01*
X302258Y636369D01*
X302260Y636270D01*
X300990Y638493D02*
X297498Y640398D01*
X306451Y632460D02*
X311531Y632460D01*
X319532Y633730D02*
X319632Y633732D01*
X319731Y633738D01*
X319831Y633748D01*
X319929Y633761D01*
X320028Y633779D01*
X320125Y633800D01*
X320221Y633825D01*
X320317Y633854D01*
X320411Y633887D01*
X320504Y633923D01*
X320595Y633963D01*
X320685Y634007D01*
X320773Y634054D01*
X320859Y634104D01*
X320943Y634158D01*
X321025Y634215D01*
X321104Y634275D01*
X321182Y634339D01*
X321256Y634405D01*
X321328Y634474D01*
X321397Y634546D01*
X321463Y634620D01*
X321527Y634698D01*
X321587Y634777D01*
X321644Y634859D01*
X321698Y634943D01*
X321748Y635029D01*
X321795Y635117D01*
X321839Y635207D01*
X321879Y635298D01*
X321915Y635391D01*
X321948Y635485D01*
X321977Y635581D01*
X322002Y635677D01*
X322023Y635774D01*
X322041Y635873D01*
X322054Y635971D01*
X322064Y636071D01*
X322070Y636170D01*
X322072Y636270D01*
X319532Y633730D02*
X319391Y633732D01*
X319250Y633737D01*
X319109Y633747D01*
X318968Y633760D01*
X318828Y633776D01*
X318688Y633797D01*
X318549Y633821D01*
X318410Y633849D01*
X318273Y633880D01*
X318136Y633915D01*
X318000Y633953D01*
X317865Y633995D01*
X317732Y634041D01*
X317599Y634090D01*
X317468Y634143D01*
X317339Y634199D01*
X317210Y634258D01*
X317084Y634321D01*
X316959Y634387D01*
X316836Y634456D01*
X316715Y634529D01*
X316596Y634605D01*
X316478Y634684D01*
X316363Y634765D01*
X316251Y634850D01*
X316140Y634938D01*
X316032Y635029D01*
X315926Y635122D01*
X315823Y635219D01*
X315722Y635318D01*
X316040Y642620D02*
X316042Y642720D01*
X316048Y642819D01*
X316058Y642919D01*
X316071Y643017D01*
X316089Y643116D01*
X316110Y643213D01*
X316135Y643309D01*
X316164Y643405D01*
X316197Y643499D01*
X316233Y643592D01*
X316273Y643683D01*
X316317Y643773D01*
X316364Y643861D01*
X316414Y643947D01*
X316468Y644031D01*
X316525Y644113D01*
X316585Y644192D01*
X316649Y644270D01*
X316715Y644344D01*
X316784Y644416D01*
X316856Y644485D01*
X316930Y644551D01*
X317008Y644615D01*
X317087Y644675D01*
X317169Y644732D01*
X317253Y644786D01*
X317339Y644836D01*
X317427Y644883D01*
X317517Y644927D01*
X317608Y644967D01*
X317701Y645003D01*
X317795Y645036D01*
X317891Y645065D01*
X317987Y645090D01*
X318084Y645111D01*
X318183Y645129D01*
X318281Y645142D01*
X318381Y645152D01*
X318480Y645158D01*
X318580Y645160D01*
X318580Y645161D02*
X318713Y645159D01*
X318846Y645154D01*
X318979Y645144D01*
X319112Y645131D01*
X319244Y645114D01*
X319376Y645094D01*
X319507Y645070D01*
X319637Y645042D01*
X319767Y645011D01*
X319895Y644976D01*
X320023Y644937D01*
X320149Y644895D01*
X320274Y644849D01*
X320398Y644800D01*
X320521Y644748D01*
X320642Y644692D01*
X320761Y644632D01*
X320879Y644570D01*
X320994Y644504D01*
X321108Y644435D01*
X321220Y644362D01*
X321330Y644287D01*
X321438Y644208D01*
X317309Y640397D02*
X317225Y640449D01*
X317142Y640504D01*
X317062Y640563D01*
X316984Y640624D01*
X316909Y640688D01*
X316836Y640756D01*
X316765Y640826D01*
X316698Y640898D01*
X316633Y640973D01*
X316571Y641051D01*
X316512Y641131D01*
X316456Y641213D01*
X316404Y641297D01*
X316355Y641383D01*
X316309Y641471D01*
X316266Y641561D01*
X316227Y641652D01*
X316192Y641745D01*
X316160Y641839D01*
X316132Y641934D01*
X316107Y642030D01*
X316087Y642127D01*
X316069Y642225D01*
X316056Y642323D01*
X316047Y642422D01*
X316041Y642521D01*
X316039Y642620D01*
X320802Y638493D02*
X320886Y638441D01*
X320969Y638386D01*
X321049Y638327D01*
X321127Y638266D01*
X321202Y638202D01*
X321275Y638134D01*
X321346Y638064D01*
X321413Y637992D01*
X321478Y637917D01*
X321540Y637839D01*
X321599Y637759D01*
X321655Y637677D01*
X321707Y637593D01*
X321756Y637507D01*
X321802Y637419D01*
X321845Y637329D01*
X321884Y637238D01*
X321919Y637145D01*
X321951Y637051D01*
X321979Y636956D01*
X322004Y636860D01*
X322024Y636763D01*
X322042Y636665D01*
X322055Y636567D01*
X322064Y636468D01*
X322070Y636369D01*
X322072Y636270D01*
X320802Y638493D02*
X317310Y640398D01*
X329274Y633730D02*
X331814Y633730D01*
X329274Y633730D02*
X329174Y633732D01*
X329075Y633738D01*
X328975Y633748D01*
X328877Y633761D01*
X328778Y633779D01*
X328681Y633800D01*
X328585Y633825D01*
X328489Y633854D01*
X328395Y633887D01*
X328302Y633923D01*
X328211Y633963D01*
X328121Y634007D01*
X328033Y634054D01*
X327947Y634104D01*
X327863Y634158D01*
X327781Y634215D01*
X327702Y634275D01*
X327624Y634339D01*
X327550Y634405D01*
X327478Y634474D01*
X327409Y634546D01*
X327343Y634620D01*
X327279Y634698D01*
X327219Y634777D01*
X327162Y634859D01*
X327108Y634943D01*
X327058Y635029D01*
X327011Y635117D01*
X326967Y635207D01*
X326927Y635298D01*
X326891Y635391D01*
X326858Y635485D01*
X326829Y635581D01*
X326804Y635677D01*
X326783Y635774D01*
X326765Y635873D01*
X326752Y635971D01*
X326742Y636071D01*
X326736Y636170D01*
X326734Y636270D01*
X326734Y642620D01*
X326736Y642720D01*
X326742Y642819D01*
X326752Y642919D01*
X326765Y643017D01*
X326783Y643116D01*
X326804Y643213D01*
X326829Y643309D01*
X326858Y643405D01*
X326891Y643499D01*
X326927Y643592D01*
X326967Y643683D01*
X327011Y643773D01*
X327058Y643861D01*
X327108Y643947D01*
X327162Y644031D01*
X327219Y644113D01*
X327279Y644192D01*
X327343Y644270D01*
X327409Y644344D01*
X327478Y644416D01*
X327550Y644485D01*
X327624Y644551D01*
X327702Y644615D01*
X327781Y644675D01*
X327863Y644732D01*
X327947Y644786D01*
X328033Y644836D01*
X328121Y644883D01*
X328211Y644927D01*
X328302Y644967D01*
X328395Y645003D01*
X328489Y645036D01*
X328585Y645065D01*
X328681Y645090D01*
X328778Y645111D01*
X328877Y645129D01*
X328975Y645142D01*
X329075Y645152D01*
X329174Y645158D01*
X329274Y645160D01*
X331814Y645160D01*
X336702Y645160D02*
X336702Y633730D01*
X341782Y633730D01*
D10*
X281305Y612775D02*
X281305Y607695D01*
X276225Y607695D01*
X281305Y625475D02*
X281305Y630555D01*
X276225Y630555D01*
X263525Y630555D02*
X258445Y630555D01*
X258445Y625475D01*
X258445Y612775D02*
X258445Y607695D01*
X263525Y607695D01*
D11*
X284480Y608330D02*
X284480Y619760D01*
X287655Y619760D01*
X287766Y619758D01*
X287876Y619752D01*
X287987Y619743D01*
X288097Y619729D01*
X288206Y619712D01*
X288315Y619691D01*
X288423Y619666D01*
X288530Y619637D01*
X288636Y619605D01*
X288741Y619569D01*
X288844Y619529D01*
X288946Y619486D01*
X289047Y619439D01*
X289146Y619388D01*
X289243Y619335D01*
X289337Y619278D01*
X289430Y619217D01*
X289521Y619154D01*
X289610Y619087D01*
X289696Y619017D01*
X289779Y618944D01*
X289861Y618869D01*
X289939Y618791D01*
X290014Y618709D01*
X290087Y618626D01*
X290157Y618540D01*
X290224Y618451D01*
X290287Y618360D01*
X290348Y618267D01*
X290405Y618173D01*
X290458Y618076D01*
X290509Y617977D01*
X290556Y617876D01*
X290599Y617774D01*
X290639Y617671D01*
X290675Y617566D01*
X290707Y617460D01*
X290736Y617353D01*
X290761Y617245D01*
X290782Y617136D01*
X290799Y617027D01*
X290813Y616917D01*
X290822Y616806D01*
X290828Y616696D01*
X290830Y616585D01*
X290830Y611505D01*
X290828Y611394D01*
X290822Y611284D01*
X290813Y611173D01*
X290799Y611063D01*
X290782Y610954D01*
X290761Y610845D01*
X290736Y610737D01*
X290707Y610630D01*
X290675Y610524D01*
X290639Y610419D01*
X290599Y610316D01*
X290556Y610214D01*
X290509Y610113D01*
X290458Y610014D01*
X290405Y609918D01*
X290348Y609823D01*
X290287Y609730D01*
X290224Y609639D01*
X290157Y609550D01*
X290087Y609464D01*
X290014Y609381D01*
X289939Y609299D01*
X289861Y609221D01*
X289779Y609146D01*
X289696Y609073D01*
X289610Y609003D01*
X289521Y608936D01*
X289430Y608873D01*
X289337Y608812D01*
X289243Y608755D01*
X289146Y608702D01*
X289047Y608651D01*
X288946Y608604D01*
X288844Y608561D01*
X288741Y608521D01*
X288636Y608485D01*
X288530Y608453D01*
X288423Y608424D01*
X288315Y608399D01*
X288206Y608378D01*
X288097Y608361D01*
X287987Y608347D01*
X287876Y608338D01*
X287766Y608332D01*
X287655Y608330D01*
X284480Y608330D01*
X299720Y608330D02*
X299820Y608332D01*
X299919Y608338D01*
X300019Y608348D01*
X300117Y608361D01*
X300216Y608379D01*
X300313Y608400D01*
X300409Y608425D01*
X300505Y608454D01*
X300599Y608487D01*
X300692Y608523D01*
X300783Y608563D01*
X300873Y608607D01*
X300961Y608654D01*
X301047Y608704D01*
X301131Y608758D01*
X301213Y608815D01*
X301292Y608875D01*
X301370Y608939D01*
X301444Y609005D01*
X301516Y609074D01*
X301585Y609146D01*
X301651Y609220D01*
X301715Y609298D01*
X301775Y609377D01*
X301832Y609459D01*
X301886Y609543D01*
X301936Y609629D01*
X301983Y609717D01*
X302027Y609807D01*
X302067Y609898D01*
X302103Y609991D01*
X302136Y610085D01*
X302165Y610181D01*
X302190Y610277D01*
X302211Y610374D01*
X302229Y610473D01*
X302242Y610571D01*
X302252Y610671D01*
X302258Y610770D01*
X302260Y610870D01*
X299720Y608330D02*
X299579Y608332D01*
X299438Y608337D01*
X299297Y608347D01*
X299156Y608360D01*
X299016Y608376D01*
X298876Y608397D01*
X298737Y608421D01*
X298598Y608449D01*
X298461Y608480D01*
X298324Y608515D01*
X298188Y608553D01*
X298053Y608595D01*
X297920Y608641D01*
X297787Y608690D01*
X297656Y608743D01*
X297527Y608799D01*
X297398Y608858D01*
X297272Y608921D01*
X297147Y608987D01*
X297024Y609056D01*
X296903Y609129D01*
X296784Y609205D01*
X296666Y609284D01*
X296551Y609365D01*
X296439Y609450D01*
X296328Y609538D01*
X296220Y609629D01*
X296114Y609722D01*
X296011Y609819D01*
X295910Y609918D01*
X296228Y617220D02*
X296230Y617320D01*
X296236Y617419D01*
X296246Y617519D01*
X296259Y617617D01*
X296277Y617716D01*
X296298Y617813D01*
X296323Y617909D01*
X296352Y618005D01*
X296385Y618099D01*
X296421Y618192D01*
X296461Y618283D01*
X296505Y618373D01*
X296552Y618461D01*
X296602Y618547D01*
X296656Y618631D01*
X296713Y618713D01*
X296773Y618792D01*
X296837Y618870D01*
X296903Y618944D01*
X296972Y619016D01*
X297044Y619085D01*
X297118Y619151D01*
X297196Y619215D01*
X297275Y619275D01*
X297357Y619332D01*
X297441Y619386D01*
X297527Y619436D01*
X297615Y619483D01*
X297705Y619527D01*
X297796Y619567D01*
X297889Y619603D01*
X297983Y619636D01*
X298079Y619665D01*
X298175Y619690D01*
X298272Y619711D01*
X298371Y619729D01*
X298469Y619742D01*
X298569Y619752D01*
X298668Y619758D01*
X298768Y619760D01*
X298768Y619761D02*
X298901Y619759D01*
X299034Y619754D01*
X299167Y619744D01*
X299300Y619731D01*
X299432Y619714D01*
X299564Y619694D01*
X299695Y619670D01*
X299825Y619642D01*
X299955Y619611D01*
X300083Y619576D01*
X300211Y619537D01*
X300337Y619495D01*
X300462Y619449D01*
X300586Y619400D01*
X300709Y619348D01*
X300830Y619292D01*
X300949Y619232D01*
X301067Y619170D01*
X301182Y619104D01*
X301296Y619035D01*
X301408Y618962D01*
X301518Y618887D01*
X301626Y618808D01*
X297497Y614997D02*
X297413Y615049D01*
X297330Y615104D01*
X297250Y615163D01*
X297172Y615224D01*
X297097Y615288D01*
X297024Y615356D01*
X296953Y615426D01*
X296886Y615498D01*
X296821Y615573D01*
X296759Y615651D01*
X296700Y615731D01*
X296644Y615813D01*
X296592Y615897D01*
X296543Y615983D01*
X296497Y616071D01*
X296454Y616161D01*
X296415Y616252D01*
X296380Y616345D01*
X296348Y616439D01*
X296320Y616534D01*
X296295Y616630D01*
X296275Y616727D01*
X296257Y616825D01*
X296244Y616923D01*
X296235Y617022D01*
X296229Y617121D01*
X296227Y617220D01*
X300990Y613093D02*
X301074Y613041D01*
X301157Y612986D01*
X301237Y612927D01*
X301315Y612866D01*
X301390Y612802D01*
X301463Y612734D01*
X301534Y612664D01*
X301601Y612592D01*
X301666Y612517D01*
X301728Y612439D01*
X301787Y612359D01*
X301843Y612277D01*
X301895Y612193D01*
X301944Y612107D01*
X301990Y612019D01*
X302033Y611929D01*
X302072Y611838D01*
X302107Y611745D01*
X302139Y611651D01*
X302167Y611556D01*
X302192Y611460D01*
X302212Y611363D01*
X302230Y611265D01*
X302243Y611167D01*
X302252Y611068D01*
X302258Y610969D01*
X302260Y610870D01*
X300990Y613093D02*
X297498Y614998D01*
X306451Y607060D02*
X311531Y607060D01*
X319532Y608330D02*
X319632Y608332D01*
X319731Y608338D01*
X319831Y608348D01*
X319929Y608361D01*
X320028Y608379D01*
X320125Y608400D01*
X320221Y608425D01*
X320317Y608454D01*
X320411Y608487D01*
X320504Y608523D01*
X320595Y608563D01*
X320685Y608607D01*
X320773Y608654D01*
X320859Y608704D01*
X320943Y608758D01*
X321025Y608815D01*
X321104Y608875D01*
X321182Y608939D01*
X321256Y609005D01*
X321328Y609074D01*
X321397Y609146D01*
X321463Y609220D01*
X321527Y609298D01*
X321587Y609377D01*
X321644Y609459D01*
X321698Y609543D01*
X321748Y609629D01*
X321795Y609717D01*
X321839Y609807D01*
X321879Y609898D01*
X321915Y609991D01*
X321948Y610085D01*
X321977Y610181D01*
X322002Y610277D01*
X322023Y610374D01*
X322041Y610473D01*
X322054Y610571D01*
X322064Y610671D01*
X322070Y610770D01*
X322072Y610870D01*
X319532Y608330D02*
X319391Y608332D01*
X319250Y608337D01*
X319109Y608347D01*
X318968Y608360D01*
X318828Y608376D01*
X318688Y608397D01*
X318549Y608421D01*
X318410Y608449D01*
X318273Y608480D01*
X318136Y608515D01*
X318000Y608553D01*
X317865Y608595D01*
X317732Y608641D01*
X317599Y608690D01*
X317468Y608743D01*
X317339Y608799D01*
X317210Y608858D01*
X317084Y608921D01*
X316959Y608987D01*
X316836Y609056D01*
X316715Y609129D01*
X316596Y609205D01*
X316478Y609284D01*
X316363Y609365D01*
X316251Y609450D01*
X316140Y609538D01*
X316032Y609629D01*
X315926Y609722D01*
X315823Y609819D01*
X315722Y609918D01*
X316040Y617220D02*
X316042Y617320D01*
X316048Y617419D01*
X316058Y617519D01*
X316071Y617617D01*
X316089Y617716D01*
X316110Y617813D01*
X316135Y617909D01*
X316164Y618005D01*
X316197Y618099D01*
X316233Y618192D01*
X316273Y618283D01*
X316317Y618373D01*
X316364Y618461D01*
X316414Y618547D01*
X316468Y618631D01*
X316525Y618713D01*
X316585Y618792D01*
X316649Y618870D01*
X316715Y618944D01*
X316784Y619016D01*
X316856Y619085D01*
X316930Y619151D01*
X317008Y619215D01*
X317087Y619275D01*
X317169Y619332D01*
X317253Y619386D01*
X317339Y619436D01*
X317427Y619483D01*
X317517Y619527D01*
X317608Y619567D01*
X317701Y619603D01*
X317795Y619636D01*
X317891Y619665D01*
X317987Y619690D01*
X318084Y619711D01*
X318183Y619729D01*
X318281Y619742D01*
X318381Y619752D01*
X318480Y619758D01*
X318580Y619760D01*
X318580Y619761D02*
X318713Y619759D01*
X318846Y619754D01*
X318979Y619744D01*
X319112Y619731D01*
X319244Y619714D01*
X319376Y619694D01*
X319507Y619670D01*
X319637Y619642D01*
X319767Y619611D01*
X319895Y619576D01*
X320023Y619537D01*
X320149Y619495D01*
X320274Y619449D01*
X320398Y619400D01*
X320521Y619348D01*
X320642Y619292D01*
X320761Y619232D01*
X320879Y619170D01*
X320994Y619104D01*
X321108Y619035D01*
X321220Y618962D01*
X321330Y618887D01*
X321438Y618808D01*
X317309Y614997D02*
X317225Y615049D01*
X317142Y615104D01*
X317062Y615163D01*
X316984Y615224D01*
X316909Y615288D01*
X316836Y615356D01*
X316765Y615426D01*
X316698Y615498D01*
X316633Y615573D01*
X316571Y615651D01*
X316512Y615731D01*
X316456Y615813D01*
X316404Y615897D01*
X316355Y615983D01*
X316309Y616071D01*
X316266Y616161D01*
X316227Y616252D01*
X316192Y616345D01*
X316160Y616439D01*
X316132Y616534D01*
X316107Y616630D01*
X316087Y616727D01*
X316069Y616825D01*
X316056Y616923D01*
X316047Y617022D01*
X316041Y617121D01*
X316039Y617220D01*
X320802Y613093D02*
X320886Y613041D01*
X320969Y612986D01*
X321049Y612927D01*
X321127Y612866D01*
X321202Y612802D01*
X321275Y612734D01*
X321346Y612664D01*
X321413Y612592D01*
X321478Y612517D01*
X321540Y612439D01*
X321599Y612359D01*
X321655Y612277D01*
X321707Y612193D01*
X321756Y612107D01*
X321802Y612019D01*
X321845Y611929D01*
X321884Y611838D01*
X321919Y611745D01*
X321951Y611651D01*
X321979Y611556D01*
X322004Y611460D01*
X322024Y611363D01*
X322042Y611265D01*
X322055Y611167D01*
X322064Y611068D01*
X322070Y610969D01*
X322072Y610870D01*
X320802Y613093D02*
X317310Y614998D01*
X327152Y619760D02*
X327152Y608330D01*
X327152Y619760D02*
X330327Y619760D01*
X330438Y619758D01*
X330548Y619752D01*
X330659Y619743D01*
X330769Y619729D01*
X330878Y619712D01*
X330987Y619691D01*
X331095Y619666D01*
X331202Y619637D01*
X331308Y619605D01*
X331413Y619569D01*
X331516Y619529D01*
X331618Y619486D01*
X331719Y619439D01*
X331818Y619388D01*
X331915Y619335D01*
X332009Y619278D01*
X332102Y619217D01*
X332193Y619154D01*
X332282Y619087D01*
X332368Y619017D01*
X332451Y618944D01*
X332533Y618869D01*
X332611Y618791D01*
X332686Y618709D01*
X332759Y618626D01*
X332829Y618540D01*
X332896Y618451D01*
X332959Y618360D01*
X333020Y618267D01*
X333077Y618173D01*
X333130Y618076D01*
X333181Y617977D01*
X333228Y617876D01*
X333271Y617774D01*
X333311Y617671D01*
X333347Y617566D01*
X333379Y617460D01*
X333408Y617353D01*
X333433Y617245D01*
X333454Y617136D01*
X333471Y617027D01*
X333485Y616917D01*
X333494Y616806D01*
X333500Y616696D01*
X333502Y616585D01*
X333502Y611505D01*
X333500Y611394D01*
X333494Y611284D01*
X333485Y611173D01*
X333471Y611063D01*
X333454Y610954D01*
X333433Y610845D01*
X333408Y610737D01*
X333379Y610630D01*
X333347Y610524D01*
X333311Y610419D01*
X333271Y610316D01*
X333228Y610214D01*
X333181Y610113D01*
X333130Y610014D01*
X333077Y609918D01*
X333020Y609823D01*
X332959Y609730D01*
X332896Y609639D01*
X332829Y609550D01*
X332759Y609464D01*
X332686Y609381D01*
X332611Y609299D01*
X332533Y609221D01*
X332451Y609146D01*
X332368Y609073D01*
X332282Y609003D01*
X332193Y608936D01*
X332102Y608873D01*
X332009Y608812D01*
X331915Y608755D01*
X331818Y608702D01*
X331719Y608651D01*
X331618Y608604D01*
X331516Y608561D01*
X331413Y608521D01*
X331308Y608485D01*
X331202Y608453D01*
X331095Y608424D01*
X330987Y608399D01*
X330878Y608378D01*
X330769Y608361D01*
X330659Y608347D01*
X330548Y608338D01*
X330438Y608332D01*
X330327Y608330D01*
X327152Y608330D01*
X338328Y608330D02*
X342138Y619760D01*
X345948Y608330D01*
X344996Y611188D02*
X339281Y611188D01*
D10*
X281305Y587375D02*
X281305Y582295D01*
X276225Y582295D01*
X281305Y600075D02*
X281305Y605155D01*
X276225Y605155D01*
X263525Y605155D02*
X258445Y605155D01*
X258445Y600075D01*
X258445Y587375D02*
X258445Y582295D01*
X263525Y582295D01*
D11*
X284480Y582930D02*
X284480Y594360D01*
X287655Y594360D01*
X287766Y594358D01*
X287876Y594352D01*
X287987Y594343D01*
X288097Y594329D01*
X288206Y594312D01*
X288315Y594291D01*
X288423Y594266D01*
X288530Y594237D01*
X288636Y594205D01*
X288741Y594169D01*
X288844Y594129D01*
X288946Y594086D01*
X289047Y594039D01*
X289146Y593988D01*
X289243Y593935D01*
X289337Y593878D01*
X289430Y593817D01*
X289521Y593754D01*
X289610Y593687D01*
X289696Y593617D01*
X289779Y593544D01*
X289861Y593469D01*
X289939Y593391D01*
X290014Y593309D01*
X290087Y593226D01*
X290157Y593140D01*
X290224Y593051D01*
X290287Y592960D01*
X290348Y592867D01*
X290405Y592773D01*
X290458Y592676D01*
X290509Y592577D01*
X290556Y592476D01*
X290599Y592374D01*
X290639Y592271D01*
X290675Y592166D01*
X290707Y592060D01*
X290736Y591953D01*
X290761Y591845D01*
X290782Y591736D01*
X290799Y591627D01*
X290813Y591517D01*
X290822Y591406D01*
X290828Y591296D01*
X290830Y591185D01*
X290830Y586105D01*
X290828Y585994D01*
X290822Y585884D01*
X290813Y585773D01*
X290799Y585663D01*
X290782Y585554D01*
X290761Y585445D01*
X290736Y585337D01*
X290707Y585230D01*
X290675Y585124D01*
X290639Y585019D01*
X290599Y584916D01*
X290556Y584814D01*
X290509Y584713D01*
X290458Y584614D01*
X290405Y584518D01*
X290348Y584423D01*
X290287Y584330D01*
X290224Y584239D01*
X290157Y584150D01*
X290087Y584064D01*
X290014Y583981D01*
X289939Y583899D01*
X289861Y583821D01*
X289779Y583746D01*
X289696Y583673D01*
X289610Y583603D01*
X289521Y583536D01*
X289430Y583473D01*
X289337Y583412D01*
X289243Y583355D01*
X289146Y583302D01*
X289047Y583251D01*
X288946Y583204D01*
X288844Y583161D01*
X288741Y583121D01*
X288636Y583085D01*
X288530Y583053D01*
X288423Y583024D01*
X288315Y582999D01*
X288206Y582978D01*
X288097Y582961D01*
X287987Y582947D01*
X287876Y582938D01*
X287766Y582932D01*
X287655Y582930D01*
X284480Y582930D01*
X299720Y582930D02*
X299820Y582932D01*
X299919Y582938D01*
X300019Y582948D01*
X300117Y582961D01*
X300216Y582979D01*
X300313Y583000D01*
X300409Y583025D01*
X300505Y583054D01*
X300599Y583087D01*
X300692Y583123D01*
X300783Y583163D01*
X300873Y583207D01*
X300961Y583254D01*
X301047Y583304D01*
X301131Y583358D01*
X301213Y583415D01*
X301292Y583475D01*
X301370Y583539D01*
X301444Y583605D01*
X301516Y583674D01*
X301585Y583746D01*
X301651Y583820D01*
X301715Y583898D01*
X301775Y583977D01*
X301832Y584059D01*
X301886Y584143D01*
X301936Y584229D01*
X301983Y584317D01*
X302027Y584407D01*
X302067Y584498D01*
X302103Y584591D01*
X302136Y584685D01*
X302165Y584781D01*
X302190Y584877D01*
X302211Y584974D01*
X302229Y585073D01*
X302242Y585171D01*
X302252Y585271D01*
X302258Y585370D01*
X302260Y585470D01*
X299720Y582930D02*
X299579Y582932D01*
X299438Y582937D01*
X299297Y582947D01*
X299156Y582960D01*
X299016Y582976D01*
X298876Y582997D01*
X298737Y583021D01*
X298598Y583049D01*
X298461Y583080D01*
X298324Y583115D01*
X298188Y583153D01*
X298053Y583195D01*
X297920Y583241D01*
X297787Y583290D01*
X297656Y583343D01*
X297527Y583399D01*
X297398Y583458D01*
X297272Y583521D01*
X297147Y583587D01*
X297024Y583656D01*
X296903Y583729D01*
X296784Y583805D01*
X296666Y583884D01*
X296551Y583965D01*
X296439Y584050D01*
X296328Y584138D01*
X296220Y584229D01*
X296114Y584322D01*
X296011Y584419D01*
X295910Y584518D01*
X296228Y591820D02*
X296230Y591920D01*
X296236Y592019D01*
X296246Y592119D01*
X296259Y592217D01*
X296277Y592316D01*
X296298Y592413D01*
X296323Y592509D01*
X296352Y592605D01*
X296385Y592699D01*
X296421Y592792D01*
X296461Y592883D01*
X296505Y592973D01*
X296552Y593061D01*
X296602Y593147D01*
X296656Y593231D01*
X296713Y593313D01*
X296773Y593392D01*
X296837Y593470D01*
X296903Y593544D01*
X296972Y593616D01*
X297044Y593685D01*
X297118Y593751D01*
X297196Y593815D01*
X297275Y593875D01*
X297357Y593932D01*
X297441Y593986D01*
X297527Y594036D01*
X297615Y594083D01*
X297705Y594127D01*
X297796Y594167D01*
X297889Y594203D01*
X297983Y594236D01*
X298079Y594265D01*
X298175Y594290D01*
X298272Y594311D01*
X298371Y594329D01*
X298469Y594342D01*
X298569Y594352D01*
X298668Y594358D01*
X298768Y594360D01*
X298768Y594361D02*
X298901Y594359D01*
X299034Y594354D01*
X299167Y594344D01*
X299300Y594331D01*
X299432Y594314D01*
X299564Y594294D01*
X299695Y594270D01*
X299825Y594242D01*
X299955Y594211D01*
X300083Y594176D01*
X300211Y594137D01*
X300337Y594095D01*
X300462Y594049D01*
X300586Y594000D01*
X300709Y593948D01*
X300830Y593892D01*
X300949Y593832D01*
X301067Y593770D01*
X301182Y593704D01*
X301296Y593635D01*
X301408Y593562D01*
X301518Y593487D01*
X301626Y593408D01*
X297497Y589597D02*
X297413Y589649D01*
X297330Y589704D01*
X297250Y589763D01*
X297172Y589824D01*
X297097Y589888D01*
X297024Y589956D01*
X296953Y590026D01*
X296886Y590098D01*
X296821Y590173D01*
X296759Y590251D01*
X296700Y590331D01*
X296644Y590413D01*
X296592Y590497D01*
X296543Y590583D01*
X296497Y590671D01*
X296454Y590761D01*
X296415Y590852D01*
X296380Y590945D01*
X296348Y591039D01*
X296320Y591134D01*
X296295Y591230D01*
X296275Y591327D01*
X296257Y591425D01*
X296244Y591523D01*
X296235Y591622D01*
X296229Y591721D01*
X296227Y591820D01*
X300990Y587693D02*
X301074Y587641D01*
X301157Y587586D01*
X301237Y587527D01*
X301315Y587466D01*
X301390Y587402D01*
X301463Y587334D01*
X301534Y587264D01*
X301601Y587192D01*
X301666Y587117D01*
X301728Y587039D01*
X301787Y586959D01*
X301843Y586877D01*
X301895Y586793D01*
X301944Y586707D01*
X301990Y586619D01*
X302033Y586529D01*
X302072Y586438D01*
X302107Y586345D01*
X302139Y586251D01*
X302167Y586156D01*
X302192Y586060D01*
X302212Y585963D01*
X302230Y585865D01*
X302243Y585767D01*
X302252Y585668D01*
X302258Y585569D01*
X302260Y585470D01*
X300990Y587693D02*
X297498Y589598D01*
X306451Y581660D02*
X311531Y581660D01*
X319278Y582930D02*
X315468Y594360D01*
X323088Y594360D02*
X319278Y582930D01*
X330036Y582930D02*
X332576Y582930D01*
X330036Y582930D02*
X329936Y582932D01*
X329837Y582938D01*
X329737Y582948D01*
X329639Y582961D01*
X329540Y582979D01*
X329443Y583000D01*
X329347Y583025D01*
X329251Y583054D01*
X329157Y583087D01*
X329064Y583123D01*
X328973Y583163D01*
X328883Y583207D01*
X328795Y583254D01*
X328709Y583304D01*
X328625Y583358D01*
X328543Y583415D01*
X328464Y583475D01*
X328386Y583539D01*
X328312Y583605D01*
X328240Y583674D01*
X328171Y583746D01*
X328105Y583820D01*
X328041Y583898D01*
X327981Y583977D01*
X327924Y584059D01*
X327870Y584143D01*
X327820Y584229D01*
X327773Y584317D01*
X327729Y584407D01*
X327689Y584498D01*
X327653Y584591D01*
X327620Y584685D01*
X327591Y584781D01*
X327566Y584877D01*
X327545Y584974D01*
X327527Y585073D01*
X327514Y585171D01*
X327504Y585271D01*
X327498Y585370D01*
X327496Y585470D01*
X327496Y591820D01*
X327498Y591920D01*
X327504Y592019D01*
X327514Y592119D01*
X327527Y592217D01*
X327545Y592316D01*
X327566Y592413D01*
X327591Y592509D01*
X327620Y592605D01*
X327653Y592699D01*
X327689Y592792D01*
X327729Y592883D01*
X327773Y592973D01*
X327820Y593061D01*
X327870Y593147D01*
X327924Y593231D01*
X327981Y593313D01*
X328041Y593392D01*
X328105Y593470D01*
X328171Y593544D01*
X328240Y593616D01*
X328312Y593685D01*
X328386Y593751D01*
X328464Y593815D01*
X328543Y593875D01*
X328625Y593932D01*
X328709Y593986D01*
X328795Y594036D01*
X328883Y594083D01*
X328973Y594127D01*
X329064Y594167D01*
X329157Y594203D01*
X329251Y594236D01*
X329347Y594265D01*
X329443Y594290D01*
X329540Y594311D01*
X329639Y594329D01*
X329737Y594342D01*
X329837Y594352D01*
X329936Y594358D01*
X330036Y594360D01*
X332576Y594360D01*
X339561Y582930D02*
X342101Y582930D01*
X339561Y582930D02*
X339461Y582932D01*
X339362Y582938D01*
X339262Y582948D01*
X339164Y582961D01*
X339065Y582979D01*
X338968Y583000D01*
X338872Y583025D01*
X338776Y583054D01*
X338682Y583087D01*
X338589Y583123D01*
X338498Y583163D01*
X338408Y583207D01*
X338320Y583254D01*
X338234Y583304D01*
X338150Y583358D01*
X338068Y583415D01*
X337989Y583475D01*
X337911Y583539D01*
X337837Y583605D01*
X337765Y583674D01*
X337696Y583746D01*
X337630Y583820D01*
X337566Y583898D01*
X337506Y583977D01*
X337449Y584059D01*
X337395Y584143D01*
X337345Y584229D01*
X337298Y584317D01*
X337254Y584407D01*
X337214Y584498D01*
X337178Y584591D01*
X337145Y584685D01*
X337116Y584781D01*
X337091Y584877D01*
X337070Y584974D01*
X337052Y585073D01*
X337039Y585171D01*
X337029Y585271D01*
X337023Y585370D01*
X337021Y585470D01*
X337021Y591820D01*
X337023Y591920D01*
X337029Y592019D01*
X337039Y592119D01*
X337052Y592217D01*
X337070Y592316D01*
X337091Y592413D01*
X337116Y592509D01*
X337145Y592605D01*
X337178Y592699D01*
X337214Y592792D01*
X337254Y592883D01*
X337298Y592973D01*
X337345Y593061D01*
X337395Y593147D01*
X337449Y593231D01*
X337506Y593313D01*
X337566Y593392D01*
X337630Y593470D01*
X337696Y593544D01*
X337765Y593616D01*
X337837Y593685D01*
X337911Y593751D01*
X337989Y593815D01*
X338068Y593875D01*
X338150Y593932D01*
X338234Y593986D01*
X338320Y594036D01*
X338408Y594083D01*
X338498Y594127D01*
X338589Y594167D01*
X338682Y594203D01*
X338776Y594236D01*
X338872Y594265D01*
X338968Y594290D01*
X339065Y594311D01*
X339164Y594329D01*
X339262Y594342D01*
X339362Y594352D01*
X339461Y594358D01*
X339561Y594360D01*
X342101Y594360D01*
D10*
X281305Y63500D02*
X281305Y58420D01*
X276225Y58420D01*
X281305Y76200D02*
X281305Y81280D01*
X276225Y81280D01*
X263525Y81280D02*
X258445Y81280D01*
X258445Y76200D01*
X258445Y63500D02*
X258445Y58420D01*
X263525Y58420D01*
D11*
X284480Y59055D02*
X284480Y70485D01*
X287655Y70485D01*
X287766Y70483D01*
X287876Y70477D01*
X287987Y70468D01*
X288097Y70454D01*
X288206Y70437D01*
X288315Y70416D01*
X288423Y70391D01*
X288530Y70362D01*
X288636Y70330D01*
X288741Y70294D01*
X288844Y70254D01*
X288946Y70211D01*
X289047Y70164D01*
X289146Y70113D01*
X289243Y70060D01*
X289337Y70003D01*
X289430Y69942D01*
X289521Y69879D01*
X289610Y69812D01*
X289696Y69742D01*
X289779Y69669D01*
X289861Y69594D01*
X289939Y69516D01*
X290014Y69434D01*
X290087Y69351D01*
X290157Y69265D01*
X290224Y69176D01*
X290287Y69085D01*
X290348Y68992D01*
X290405Y68897D01*
X290458Y68801D01*
X290509Y68702D01*
X290556Y68601D01*
X290599Y68499D01*
X290639Y68396D01*
X290675Y68291D01*
X290707Y68185D01*
X290736Y68078D01*
X290761Y67970D01*
X290782Y67861D01*
X290799Y67752D01*
X290813Y67642D01*
X290822Y67531D01*
X290828Y67421D01*
X290830Y67310D01*
X290828Y67199D01*
X290822Y67089D01*
X290813Y66978D01*
X290799Y66868D01*
X290782Y66759D01*
X290761Y66650D01*
X290736Y66542D01*
X290707Y66435D01*
X290675Y66329D01*
X290639Y66224D01*
X290599Y66121D01*
X290556Y66019D01*
X290509Y65918D01*
X290458Y65819D01*
X290405Y65722D01*
X290348Y65628D01*
X290287Y65535D01*
X290224Y65444D01*
X290157Y65355D01*
X290087Y65269D01*
X290014Y65186D01*
X289939Y65104D01*
X289861Y65026D01*
X289779Y64951D01*
X289696Y64878D01*
X289610Y64808D01*
X289521Y64741D01*
X289430Y64678D01*
X289337Y64617D01*
X289243Y64560D01*
X289146Y64507D01*
X289047Y64456D01*
X288946Y64409D01*
X288844Y64366D01*
X288741Y64326D01*
X288636Y64290D01*
X288530Y64258D01*
X288423Y64229D01*
X288315Y64204D01*
X288206Y64183D01*
X288097Y64166D01*
X287987Y64152D01*
X287876Y64143D01*
X287766Y64137D01*
X287655Y64135D01*
X284480Y64135D01*
X295847Y59055D02*
X295847Y70485D01*
X299657Y64135D01*
X303467Y70485D01*
X303467Y59055D01*
X312484Y59055D02*
X312584Y59057D01*
X312683Y59063D01*
X312783Y59073D01*
X312881Y59086D01*
X312980Y59104D01*
X313077Y59125D01*
X313173Y59150D01*
X313269Y59179D01*
X313363Y59212D01*
X313456Y59248D01*
X313547Y59288D01*
X313637Y59332D01*
X313725Y59379D01*
X313811Y59429D01*
X313895Y59483D01*
X313977Y59540D01*
X314056Y59600D01*
X314134Y59664D01*
X314208Y59730D01*
X314280Y59799D01*
X314349Y59871D01*
X314415Y59945D01*
X314479Y60023D01*
X314539Y60102D01*
X314596Y60184D01*
X314650Y60268D01*
X314700Y60354D01*
X314747Y60442D01*
X314791Y60532D01*
X314831Y60623D01*
X314867Y60716D01*
X314900Y60810D01*
X314929Y60906D01*
X314954Y61002D01*
X314975Y61099D01*
X314993Y61198D01*
X315006Y61296D01*
X315016Y61396D01*
X315022Y61495D01*
X315024Y61595D01*
X312484Y59055D02*
X312343Y59057D01*
X312202Y59062D01*
X312061Y59072D01*
X311920Y59085D01*
X311780Y59101D01*
X311640Y59122D01*
X311501Y59146D01*
X311362Y59174D01*
X311225Y59205D01*
X311088Y59240D01*
X310952Y59278D01*
X310817Y59320D01*
X310684Y59366D01*
X310551Y59415D01*
X310420Y59468D01*
X310291Y59524D01*
X310162Y59583D01*
X310036Y59646D01*
X309911Y59712D01*
X309788Y59781D01*
X309667Y59854D01*
X309548Y59930D01*
X309430Y60009D01*
X309315Y60090D01*
X309203Y60175D01*
X309092Y60263D01*
X308984Y60354D01*
X308878Y60447D01*
X308775Y60544D01*
X308674Y60643D01*
X308991Y67945D02*
X308993Y68045D01*
X308999Y68144D01*
X309009Y68244D01*
X309022Y68342D01*
X309040Y68441D01*
X309061Y68538D01*
X309086Y68634D01*
X309115Y68730D01*
X309148Y68824D01*
X309184Y68917D01*
X309224Y69008D01*
X309268Y69098D01*
X309315Y69186D01*
X309365Y69272D01*
X309419Y69356D01*
X309476Y69438D01*
X309536Y69517D01*
X309600Y69595D01*
X309666Y69669D01*
X309735Y69741D01*
X309807Y69810D01*
X309881Y69876D01*
X309959Y69940D01*
X310038Y70000D01*
X310120Y70057D01*
X310204Y70111D01*
X310290Y70161D01*
X310378Y70208D01*
X310468Y70252D01*
X310559Y70292D01*
X310652Y70328D01*
X310746Y70361D01*
X310842Y70390D01*
X310938Y70415D01*
X311035Y70436D01*
X311134Y70454D01*
X311232Y70467D01*
X311332Y70477D01*
X311431Y70483D01*
X311531Y70485D01*
X311531Y70486D02*
X311664Y70484D01*
X311797Y70479D01*
X311930Y70469D01*
X312063Y70456D01*
X312195Y70439D01*
X312327Y70419D01*
X312458Y70395D01*
X312588Y70367D01*
X312718Y70336D01*
X312846Y70301D01*
X312974Y70262D01*
X313100Y70220D01*
X313225Y70174D01*
X313349Y70125D01*
X313472Y70073D01*
X313593Y70017D01*
X313712Y69957D01*
X313830Y69895D01*
X313945Y69829D01*
X314059Y69760D01*
X314171Y69687D01*
X314281Y69612D01*
X314389Y69533D01*
X310261Y65722D02*
X310177Y65774D01*
X310094Y65829D01*
X310014Y65888D01*
X309936Y65949D01*
X309861Y66013D01*
X309788Y66081D01*
X309717Y66151D01*
X309650Y66223D01*
X309585Y66298D01*
X309523Y66376D01*
X309464Y66456D01*
X309408Y66538D01*
X309356Y66622D01*
X309307Y66708D01*
X309261Y66796D01*
X309218Y66886D01*
X309179Y66977D01*
X309144Y67070D01*
X309112Y67164D01*
X309084Y67259D01*
X309059Y67355D01*
X309039Y67452D01*
X309021Y67550D01*
X309008Y67648D01*
X308999Y67747D01*
X308993Y67846D01*
X308991Y67945D01*
X313754Y63818D02*
X313838Y63766D01*
X313921Y63711D01*
X314001Y63652D01*
X314079Y63591D01*
X314154Y63527D01*
X314227Y63459D01*
X314298Y63389D01*
X314365Y63317D01*
X314430Y63242D01*
X314492Y63164D01*
X314551Y63084D01*
X314607Y63002D01*
X314659Y62918D01*
X314708Y62832D01*
X314754Y62744D01*
X314797Y62654D01*
X314836Y62563D01*
X314871Y62470D01*
X314903Y62376D01*
X314931Y62281D01*
X314956Y62185D01*
X314976Y62088D01*
X314994Y61990D01*
X315007Y61892D01*
X315016Y61793D01*
X315022Y61694D01*
X315024Y61595D01*
X313754Y63818D02*
X310261Y65723D01*
X319215Y57785D02*
X324295Y57785D01*
X333693Y65405D02*
X335598Y65405D01*
X335598Y59055D01*
X331788Y59055D01*
X331688Y59057D01*
X331589Y59063D01*
X331489Y59073D01*
X331391Y59086D01*
X331292Y59104D01*
X331195Y59125D01*
X331099Y59150D01*
X331003Y59179D01*
X330909Y59212D01*
X330816Y59248D01*
X330725Y59288D01*
X330635Y59332D01*
X330547Y59379D01*
X330461Y59429D01*
X330377Y59483D01*
X330295Y59540D01*
X330216Y59600D01*
X330138Y59664D01*
X330064Y59730D01*
X329992Y59799D01*
X329923Y59871D01*
X329857Y59945D01*
X329793Y60023D01*
X329733Y60102D01*
X329676Y60184D01*
X329622Y60268D01*
X329572Y60354D01*
X329525Y60442D01*
X329481Y60532D01*
X329441Y60623D01*
X329405Y60716D01*
X329372Y60810D01*
X329343Y60906D01*
X329318Y61002D01*
X329297Y61099D01*
X329279Y61198D01*
X329266Y61296D01*
X329256Y61396D01*
X329250Y61495D01*
X329248Y61595D01*
X329248Y67945D01*
X329250Y68045D01*
X329256Y68144D01*
X329266Y68244D01*
X329279Y68342D01*
X329297Y68441D01*
X329318Y68538D01*
X329343Y68634D01*
X329372Y68730D01*
X329405Y68824D01*
X329441Y68917D01*
X329481Y69008D01*
X329525Y69098D01*
X329572Y69186D01*
X329622Y69272D01*
X329676Y69356D01*
X329733Y69438D01*
X329793Y69517D01*
X329857Y69595D01*
X329923Y69669D01*
X329992Y69741D01*
X330064Y69810D01*
X330138Y69876D01*
X330216Y69940D01*
X330295Y70000D01*
X330377Y70057D01*
X330461Y70111D01*
X330547Y70161D01*
X330635Y70208D01*
X330725Y70252D01*
X330816Y70292D01*
X330909Y70328D01*
X331003Y70361D01*
X331099Y70390D01*
X331195Y70415D01*
X331292Y70436D01*
X331391Y70454D01*
X331489Y70467D01*
X331589Y70477D01*
X331688Y70483D01*
X331788Y70485D01*
X335598Y70485D01*
X341440Y70485D02*
X341440Y59055D01*
X347790Y59055D02*
X341440Y70485D01*
X347790Y70485D02*
X347790Y59055D01*
X353632Y59055D02*
X353632Y70485D01*
X356807Y70485D01*
X356918Y70483D01*
X357028Y70477D01*
X357139Y70468D01*
X357249Y70454D01*
X357358Y70437D01*
X357467Y70416D01*
X357575Y70391D01*
X357682Y70362D01*
X357788Y70330D01*
X357893Y70294D01*
X357996Y70254D01*
X358098Y70211D01*
X358199Y70164D01*
X358298Y70113D01*
X358395Y70060D01*
X358489Y70003D01*
X358582Y69942D01*
X358673Y69879D01*
X358762Y69812D01*
X358848Y69742D01*
X358931Y69669D01*
X359013Y69594D01*
X359091Y69516D01*
X359166Y69434D01*
X359239Y69351D01*
X359309Y69265D01*
X359376Y69176D01*
X359439Y69085D01*
X359500Y68992D01*
X359557Y68898D01*
X359610Y68801D01*
X359661Y68702D01*
X359708Y68601D01*
X359751Y68499D01*
X359791Y68396D01*
X359827Y68291D01*
X359859Y68185D01*
X359888Y68078D01*
X359913Y67970D01*
X359934Y67861D01*
X359951Y67752D01*
X359965Y67642D01*
X359974Y67531D01*
X359980Y67421D01*
X359982Y67310D01*
X359982Y62230D01*
X359980Y62119D01*
X359974Y62009D01*
X359965Y61898D01*
X359951Y61788D01*
X359934Y61679D01*
X359913Y61570D01*
X359888Y61462D01*
X359859Y61355D01*
X359827Y61249D01*
X359791Y61144D01*
X359751Y61041D01*
X359708Y60939D01*
X359661Y60838D01*
X359610Y60739D01*
X359557Y60642D01*
X359500Y60548D01*
X359439Y60455D01*
X359376Y60364D01*
X359309Y60275D01*
X359239Y60189D01*
X359166Y60106D01*
X359091Y60024D01*
X359013Y59946D01*
X358931Y59871D01*
X358848Y59798D01*
X358762Y59728D01*
X358673Y59661D01*
X358582Y59598D01*
X358489Y59537D01*
X358395Y59480D01*
X358298Y59427D01*
X358199Y59376D01*
X358098Y59329D01*
X357996Y59286D01*
X357893Y59246D01*
X357788Y59210D01*
X357682Y59178D01*
X357575Y59149D01*
X357467Y59124D01*
X357358Y59103D01*
X357249Y59086D01*
X357139Y59072D01*
X357028Y59063D01*
X356918Y59057D01*
X356807Y59055D01*
X353632Y59055D01*
D10*
X281305Y109220D02*
X281305Y114300D01*
X281305Y109220D02*
X276225Y109220D01*
X281305Y127000D02*
X281305Y132080D01*
X276225Y132080D01*
X263525Y132080D02*
X258445Y132080D01*
X258445Y127000D01*
X258445Y114300D02*
X258445Y109220D01*
X263525Y109220D01*
D11*
X284480Y109855D02*
X284480Y121285D01*
X287655Y121285D01*
X287766Y121283D01*
X287876Y121277D01*
X287987Y121268D01*
X288097Y121254D01*
X288206Y121237D01*
X288315Y121216D01*
X288423Y121191D01*
X288530Y121162D01*
X288636Y121130D01*
X288741Y121094D01*
X288844Y121054D01*
X288946Y121011D01*
X289047Y120964D01*
X289146Y120913D01*
X289243Y120860D01*
X289337Y120803D01*
X289430Y120742D01*
X289521Y120679D01*
X289610Y120612D01*
X289696Y120542D01*
X289779Y120469D01*
X289861Y120394D01*
X289939Y120316D01*
X290014Y120234D01*
X290087Y120151D01*
X290157Y120065D01*
X290224Y119976D01*
X290287Y119885D01*
X290348Y119792D01*
X290405Y119697D01*
X290458Y119601D01*
X290509Y119502D01*
X290556Y119401D01*
X290599Y119299D01*
X290639Y119196D01*
X290675Y119091D01*
X290707Y118985D01*
X290736Y118878D01*
X290761Y118770D01*
X290782Y118661D01*
X290799Y118552D01*
X290813Y118442D01*
X290822Y118331D01*
X290828Y118221D01*
X290830Y118110D01*
X290828Y117999D01*
X290822Y117889D01*
X290813Y117778D01*
X290799Y117668D01*
X290782Y117559D01*
X290761Y117450D01*
X290736Y117342D01*
X290707Y117235D01*
X290675Y117129D01*
X290639Y117024D01*
X290599Y116921D01*
X290556Y116819D01*
X290509Y116718D01*
X290458Y116619D01*
X290405Y116522D01*
X290348Y116428D01*
X290287Y116335D01*
X290224Y116244D01*
X290157Y116155D01*
X290087Y116069D01*
X290014Y115986D01*
X289939Y115904D01*
X289861Y115826D01*
X289779Y115751D01*
X289696Y115678D01*
X289610Y115608D01*
X289521Y115541D01*
X289430Y115478D01*
X289337Y115417D01*
X289243Y115360D01*
X289146Y115307D01*
X289047Y115256D01*
X288946Y115209D01*
X288844Y115166D01*
X288741Y115126D01*
X288636Y115090D01*
X288530Y115058D01*
X288423Y115029D01*
X288315Y115004D01*
X288206Y114983D01*
X288097Y114966D01*
X287987Y114952D01*
X287876Y114943D01*
X287766Y114937D01*
X287655Y114935D01*
X284480Y114935D01*
X295847Y109855D02*
X295847Y121285D01*
X299657Y114935D01*
X303467Y121285D01*
X303467Y109855D01*
X312484Y109855D02*
X312584Y109857D01*
X312683Y109863D01*
X312783Y109873D01*
X312881Y109886D01*
X312980Y109904D01*
X313077Y109925D01*
X313173Y109950D01*
X313269Y109979D01*
X313363Y110012D01*
X313456Y110048D01*
X313547Y110088D01*
X313637Y110132D01*
X313725Y110179D01*
X313811Y110229D01*
X313895Y110283D01*
X313977Y110340D01*
X314056Y110400D01*
X314134Y110464D01*
X314208Y110530D01*
X314280Y110599D01*
X314349Y110671D01*
X314415Y110745D01*
X314479Y110823D01*
X314539Y110902D01*
X314596Y110984D01*
X314650Y111068D01*
X314700Y111154D01*
X314747Y111242D01*
X314791Y111332D01*
X314831Y111423D01*
X314867Y111516D01*
X314900Y111610D01*
X314929Y111706D01*
X314954Y111802D01*
X314975Y111899D01*
X314993Y111998D01*
X315006Y112096D01*
X315016Y112196D01*
X315022Y112295D01*
X315024Y112395D01*
X312484Y109855D02*
X312343Y109857D01*
X312202Y109862D01*
X312061Y109872D01*
X311920Y109885D01*
X311780Y109901D01*
X311640Y109922D01*
X311501Y109946D01*
X311362Y109974D01*
X311225Y110005D01*
X311088Y110040D01*
X310952Y110078D01*
X310817Y110120D01*
X310684Y110166D01*
X310551Y110215D01*
X310420Y110268D01*
X310291Y110324D01*
X310162Y110383D01*
X310036Y110446D01*
X309911Y110512D01*
X309788Y110581D01*
X309667Y110654D01*
X309548Y110730D01*
X309430Y110809D01*
X309315Y110890D01*
X309203Y110975D01*
X309092Y111063D01*
X308984Y111154D01*
X308878Y111247D01*
X308775Y111344D01*
X308674Y111443D01*
X308991Y118745D02*
X308993Y118845D01*
X308999Y118944D01*
X309009Y119044D01*
X309022Y119142D01*
X309040Y119241D01*
X309061Y119338D01*
X309086Y119434D01*
X309115Y119530D01*
X309148Y119624D01*
X309184Y119717D01*
X309224Y119808D01*
X309268Y119898D01*
X309315Y119986D01*
X309365Y120072D01*
X309419Y120156D01*
X309476Y120238D01*
X309536Y120317D01*
X309600Y120395D01*
X309666Y120469D01*
X309735Y120541D01*
X309807Y120610D01*
X309881Y120676D01*
X309959Y120740D01*
X310038Y120800D01*
X310120Y120857D01*
X310204Y120911D01*
X310290Y120961D01*
X310378Y121008D01*
X310468Y121052D01*
X310559Y121092D01*
X310652Y121128D01*
X310746Y121161D01*
X310842Y121190D01*
X310938Y121215D01*
X311035Y121236D01*
X311134Y121254D01*
X311232Y121267D01*
X311332Y121277D01*
X311431Y121283D01*
X311531Y121285D01*
X311531Y121286D02*
X311664Y121284D01*
X311797Y121279D01*
X311930Y121269D01*
X312063Y121256D01*
X312195Y121239D01*
X312327Y121219D01*
X312458Y121195D01*
X312588Y121167D01*
X312718Y121136D01*
X312846Y121101D01*
X312974Y121062D01*
X313100Y121020D01*
X313225Y120974D01*
X313349Y120925D01*
X313472Y120873D01*
X313593Y120817D01*
X313712Y120757D01*
X313830Y120695D01*
X313945Y120629D01*
X314059Y120560D01*
X314171Y120487D01*
X314281Y120412D01*
X314389Y120333D01*
X310261Y116522D02*
X310177Y116574D01*
X310094Y116629D01*
X310014Y116688D01*
X309936Y116749D01*
X309861Y116813D01*
X309788Y116881D01*
X309717Y116951D01*
X309650Y117023D01*
X309585Y117098D01*
X309523Y117176D01*
X309464Y117256D01*
X309408Y117338D01*
X309356Y117422D01*
X309307Y117508D01*
X309261Y117596D01*
X309218Y117686D01*
X309179Y117777D01*
X309144Y117870D01*
X309112Y117964D01*
X309084Y118059D01*
X309059Y118155D01*
X309039Y118252D01*
X309021Y118350D01*
X309008Y118448D01*
X308999Y118547D01*
X308993Y118646D01*
X308991Y118745D01*
X313754Y114618D02*
X313838Y114566D01*
X313921Y114511D01*
X314001Y114452D01*
X314079Y114391D01*
X314154Y114327D01*
X314227Y114259D01*
X314298Y114189D01*
X314365Y114117D01*
X314430Y114042D01*
X314492Y113964D01*
X314551Y113884D01*
X314607Y113802D01*
X314659Y113718D01*
X314708Y113632D01*
X314754Y113544D01*
X314797Y113454D01*
X314836Y113363D01*
X314871Y113270D01*
X314903Y113176D01*
X314931Y113081D01*
X314956Y112985D01*
X314976Y112888D01*
X314994Y112790D01*
X315007Y112692D01*
X315016Y112593D01*
X315022Y112494D01*
X315024Y112395D01*
X313754Y114618D02*
X310261Y116523D01*
X319215Y108585D02*
X324295Y108585D01*
X329330Y109855D02*
X329330Y121285D01*
X332505Y121285D01*
X332616Y121283D01*
X332726Y121277D01*
X332837Y121268D01*
X332947Y121254D01*
X333056Y121237D01*
X333165Y121216D01*
X333273Y121191D01*
X333380Y121162D01*
X333486Y121130D01*
X333591Y121094D01*
X333694Y121054D01*
X333796Y121011D01*
X333897Y120964D01*
X333996Y120913D01*
X334093Y120860D01*
X334187Y120803D01*
X334280Y120742D01*
X334371Y120679D01*
X334460Y120612D01*
X334546Y120542D01*
X334629Y120469D01*
X334711Y120394D01*
X334789Y120316D01*
X334864Y120234D01*
X334937Y120151D01*
X335007Y120065D01*
X335074Y119976D01*
X335137Y119885D01*
X335198Y119792D01*
X335255Y119697D01*
X335308Y119601D01*
X335359Y119502D01*
X335406Y119401D01*
X335449Y119299D01*
X335489Y119196D01*
X335525Y119091D01*
X335557Y118985D01*
X335586Y118878D01*
X335611Y118770D01*
X335632Y118661D01*
X335649Y118552D01*
X335663Y118442D01*
X335672Y118331D01*
X335678Y118221D01*
X335680Y118110D01*
X335678Y117999D01*
X335672Y117889D01*
X335663Y117778D01*
X335649Y117668D01*
X335632Y117559D01*
X335611Y117450D01*
X335586Y117342D01*
X335557Y117235D01*
X335525Y117129D01*
X335489Y117024D01*
X335449Y116921D01*
X335406Y116819D01*
X335359Y116718D01*
X335308Y116619D01*
X335255Y116522D01*
X335198Y116428D01*
X335137Y116335D01*
X335074Y116244D01*
X335007Y116155D01*
X334937Y116069D01*
X334864Y115986D01*
X334789Y115904D01*
X334711Y115826D01*
X334629Y115751D01*
X334546Y115678D01*
X334460Y115608D01*
X334371Y115541D01*
X334280Y115478D01*
X334187Y115417D01*
X334093Y115360D01*
X333996Y115307D01*
X333897Y115256D01*
X333796Y115209D01*
X333694Y115166D01*
X333591Y115126D01*
X333486Y115090D01*
X333380Y115058D01*
X333273Y115029D01*
X333165Y115004D01*
X333056Y114983D01*
X332947Y114966D01*
X332837Y114952D01*
X332726Y114943D01*
X332616Y114937D01*
X332505Y114935D01*
X329330Y114935D01*
X333140Y114935D02*
X335680Y109855D01*
X340042Y109855D02*
X347662Y121285D01*
X340042Y121285D02*
X347662Y109855D01*
D10*
X281305Y134620D02*
X281305Y139700D01*
X281305Y134620D02*
X276225Y134620D01*
X281305Y152400D02*
X281305Y157480D01*
X276225Y157480D01*
X263525Y157480D02*
X258445Y157480D01*
X258445Y152400D01*
X258445Y139700D02*
X258445Y134620D01*
X263525Y134620D01*
D11*
X284480Y135255D02*
X284480Y146685D01*
X287655Y146685D01*
X287766Y146683D01*
X287876Y146677D01*
X287987Y146668D01*
X288097Y146654D01*
X288206Y146637D01*
X288315Y146616D01*
X288423Y146591D01*
X288530Y146562D01*
X288636Y146530D01*
X288741Y146494D01*
X288844Y146454D01*
X288946Y146411D01*
X289047Y146364D01*
X289146Y146313D01*
X289243Y146260D01*
X289337Y146203D01*
X289430Y146142D01*
X289521Y146079D01*
X289610Y146012D01*
X289696Y145942D01*
X289779Y145869D01*
X289861Y145794D01*
X289939Y145716D01*
X290014Y145634D01*
X290087Y145551D01*
X290157Y145465D01*
X290224Y145376D01*
X290287Y145285D01*
X290348Y145192D01*
X290405Y145097D01*
X290458Y145001D01*
X290509Y144902D01*
X290556Y144801D01*
X290599Y144699D01*
X290639Y144596D01*
X290675Y144491D01*
X290707Y144385D01*
X290736Y144278D01*
X290761Y144170D01*
X290782Y144061D01*
X290799Y143952D01*
X290813Y143842D01*
X290822Y143731D01*
X290828Y143621D01*
X290830Y143510D01*
X290828Y143399D01*
X290822Y143289D01*
X290813Y143178D01*
X290799Y143068D01*
X290782Y142959D01*
X290761Y142850D01*
X290736Y142742D01*
X290707Y142635D01*
X290675Y142529D01*
X290639Y142424D01*
X290599Y142321D01*
X290556Y142219D01*
X290509Y142118D01*
X290458Y142019D01*
X290405Y141922D01*
X290348Y141828D01*
X290287Y141735D01*
X290224Y141644D01*
X290157Y141555D01*
X290087Y141469D01*
X290014Y141386D01*
X289939Y141304D01*
X289861Y141226D01*
X289779Y141151D01*
X289696Y141078D01*
X289610Y141008D01*
X289521Y140941D01*
X289430Y140878D01*
X289337Y140817D01*
X289243Y140760D01*
X289146Y140707D01*
X289047Y140656D01*
X288946Y140609D01*
X288844Y140566D01*
X288741Y140526D01*
X288636Y140490D01*
X288530Y140458D01*
X288423Y140429D01*
X288315Y140404D01*
X288206Y140383D01*
X288097Y140366D01*
X287987Y140352D01*
X287876Y140343D01*
X287766Y140337D01*
X287655Y140335D01*
X284480Y140335D01*
X295847Y135255D02*
X295847Y146685D01*
X299657Y140335D01*
X303467Y146685D01*
X303467Y135255D01*
X312484Y135255D02*
X312584Y135257D01*
X312683Y135263D01*
X312783Y135273D01*
X312881Y135286D01*
X312980Y135304D01*
X313077Y135325D01*
X313173Y135350D01*
X313269Y135379D01*
X313363Y135412D01*
X313456Y135448D01*
X313547Y135488D01*
X313637Y135532D01*
X313725Y135579D01*
X313811Y135629D01*
X313895Y135683D01*
X313977Y135740D01*
X314056Y135800D01*
X314134Y135864D01*
X314208Y135930D01*
X314280Y135999D01*
X314349Y136071D01*
X314415Y136145D01*
X314479Y136223D01*
X314539Y136302D01*
X314596Y136384D01*
X314650Y136468D01*
X314700Y136554D01*
X314747Y136642D01*
X314791Y136732D01*
X314831Y136823D01*
X314867Y136916D01*
X314900Y137010D01*
X314929Y137106D01*
X314954Y137202D01*
X314975Y137299D01*
X314993Y137398D01*
X315006Y137496D01*
X315016Y137596D01*
X315022Y137695D01*
X315024Y137795D01*
X312484Y135255D02*
X312343Y135257D01*
X312202Y135262D01*
X312061Y135272D01*
X311920Y135285D01*
X311780Y135301D01*
X311640Y135322D01*
X311501Y135346D01*
X311362Y135374D01*
X311225Y135405D01*
X311088Y135440D01*
X310952Y135478D01*
X310817Y135520D01*
X310684Y135566D01*
X310551Y135615D01*
X310420Y135668D01*
X310291Y135724D01*
X310162Y135783D01*
X310036Y135846D01*
X309911Y135912D01*
X309788Y135981D01*
X309667Y136054D01*
X309548Y136130D01*
X309430Y136209D01*
X309315Y136290D01*
X309203Y136375D01*
X309092Y136463D01*
X308984Y136554D01*
X308878Y136647D01*
X308775Y136744D01*
X308674Y136843D01*
X308991Y144145D02*
X308993Y144245D01*
X308999Y144344D01*
X309009Y144444D01*
X309022Y144542D01*
X309040Y144641D01*
X309061Y144738D01*
X309086Y144834D01*
X309115Y144930D01*
X309148Y145024D01*
X309184Y145117D01*
X309224Y145208D01*
X309268Y145298D01*
X309315Y145386D01*
X309365Y145472D01*
X309419Y145556D01*
X309476Y145638D01*
X309536Y145717D01*
X309600Y145795D01*
X309666Y145869D01*
X309735Y145941D01*
X309807Y146010D01*
X309881Y146076D01*
X309959Y146140D01*
X310038Y146200D01*
X310120Y146257D01*
X310204Y146311D01*
X310290Y146361D01*
X310378Y146408D01*
X310468Y146452D01*
X310559Y146492D01*
X310652Y146528D01*
X310746Y146561D01*
X310842Y146590D01*
X310938Y146615D01*
X311035Y146636D01*
X311134Y146654D01*
X311232Y146667D01*
X311332Y146677D01*
X311431Y146683D01*
X311531Y146685D01*
X311531Y146686D02*
X311664Y146684D01*
X311797Y146679D01*
X311930Y146669D01*
X312063Y146656D01*
X312195Y146639D01*
X312327Y146619D01*
X312458Y146595D01*
X312588Y146567D01*
X312718Y146536D01*
X312846Y146501D01*
X312974Y146462D01*
X313100Y146420D01*
X313225Y146374D01*
X313349Y146325D01*
X313472Y146273D01*
X313593Y146217D01*
X313712Y146157D01*
X313830Y146095D01*
X313945Y146029D01*
X314059Y145960D01*
X314171Y145887D01*
X314281Y145812D01*
X314389Y145733D01*
X310261Y141922D02*
X310177Y141974D01*
X310094Y142029D01*
X310014Y142088D01*
X309936Y142149D01*
X309861Y142213D01*
X309788Y142281D01*
X309717Y142351D01*
X309650Y142423D01*
X309585Y142498D01*
X309523Y142576D01*
X309464Y142656D01*
X309408Y142738D01*
X309356Y142822D01*
X309307Y142908D01*
X309261Y142996D01*
X309218Y143086D01*
X309179Y143177D01*
X309144Y143270D01*
X309112Y143364D01*
X309084Y143459D01*
X309059Y143555D01*
X309039Y143652D01*
X309021Y143750D01*
X309008Y143848D01*
X308999Y143947D01*
X308993Y144046D01*
X308991Y144145D01*
X313754Y140018D02*
X313838Y139966D01*
X313921Y139911D01*
X314001Y139852D01*
X314079Y139791D01*
X314154Y139727D01*
X314227Y139659D01*
X314298Y139589D01*
X314365Y139517D01*
X314430Y139442D01*
X314492Y139364D01*
X314551Y139284D01*
X314607Y139202D01*
X314659Y139118D01*
X314708Y139032D01*
X314754Y138944D01*
X314797Y138854D01*
X314836Y138763D01*
X314871Y138670D01*
X314903Y138576D01*
X314931Y138481D01*
X314956Y138385D01*
X314976Y138288D01*
X314994Y138190D01*
X315007Y138092D01*
X315016Y137993D01*
X315022Y137894D01*
X315024Y137795D01*
X313754Y140018D02*
X310261Y141923D01*
X319215Y133985D02*
X324295Y133985D01*
X331280Y135255D02*
X331280Y146685D01*
X328105Y146685D02*
X334455Y146685D01*
X345758Y146685D02*
X338138Y135255D01*
X345758Y135255D02*
X338138Y146685D01*
D10*
X281305Y88900D02*
X281305Y83820D01*
X276225Y83820D01*
X281305Y101600D02*
X281305Y106680D01*
X276225Y106680D01*
X263525Y106680D02*
X258445Y106680D01*
X258445Y101600D01*
X258445Y88900D02*
X258445Y83820D01*
X263525Y83820D01*
D11*
X284480Y84455D02*
X284480Y95885D01*
X287655Y95885D01*
X287766Y95883D01*
X287876Y95877D01*
X287987Y95868D01*
X288097Y95854D01*
X288206Y95837D01*
X288315Y95816D01*
X288423Y95791D01*
X288530Y95762D01*
X288636Y95730D01*
X288741Y95694D01*
X288844Y95654D01*
X288946Y95611D01*
X289047Y95564D01*
X289146Y95513D01*
X289243Y95460D01*
X289337Y95403D01*
X289430Y95342D01*
X289521Y95279D01*
X289610Y95212D01*
X289696Y95142D01*
X289779Y95069D01*
X289861Y94994D01*
X289939Y94916D01*
X290014Y94834D01*
X290087Y94751D01*
X290157Y94665D01*
X290224Y94576D01*
X290287Y94485D01*
X290348Y94392D01*
X290405Y94297D01*
X290458Y94201D01*
X290509Y94102D01*
X290556Y94001D01*
X290599Y93899D01*
X290639Y93796D01*
X290675Y93691D01*
X290707Y93585D01*
X290736Y93478D01*
X290761Y93370D01*
X290782Y93261D01*
X290799Y93152D01*
X290813Y93042D01*
X290822Y92931D01*
X290828Y92821D01*
X290830Y92710D01*
X290828Y92599D01*
X290822Y92489D01*
X290813Y92378D01*
X290799Y92268D01*
X290782Y92159D01*
X290761Y92050D01*
X290736Y91942D01*
X290707Y91835D01*
X290675Y91729D01*
X290639Y91624D01*
X290599Y91521D01*
X290556Y91419D01*
X290509Y91318D01*
X290458Y91219D01*
X290405Y91122D01*
X290348Y91028D01*
X290287Y90935D01*
X290224Y90844D01*
X290157Y90755D01*
X290087Y90669D01*
X290014Y90586D01*
X289939Y90504D01*
X289861Y90426D01*
X289779Y90351D01*
X289696Y90278D01*
X289610Y90208D01*
X289521Y90141D01*
X289430Y90078D01*
X289337Y90017D01*
X289243Y89960D01*
X289146Y89907D01*
X289047Y89856D01*
X288946Y89809D01*
X288844Y89766D01*
X288741Y89726D01*
X288636Y89690D01*
X288530Y89658D01*
X288423Y89629D01*
X288315Y89604D01*
X288206Y89583D01*
X288097Y89566D01*
X287987Y89552D01*
X287876Y89543D01*
X287766Y89537D01*
X287655Y89535D01*
X284480Y89535D01*
X295847Y84455D02*
X295847Y95885D01*
X299657Y89535D01*
X303467Y95885D01*
X303467Y84455D01*
X312484Y84455D02*
X312584Y84457D01*
X312683Y84463D01*
X312783Y84473D01*
X312881Y84486D01*
X312980Y84504D01*
X313077Y84525D01*
X313173Y84550D01*
X313269Y84579D01*
X313363Y84612D01*
X313456Y84648D01*
X313547Y84688D01*
X313637Y84732D01*
X313725Y84779D01*
X313811Y84829D01*
X313895Y84883D01*
X313977Y84940D01*
X314056Y85000D01*
X314134Y85064D01*
X314208Y85130D01*
X314280Y85199D01*
X314349Y85271D01*
X314415Y85345D01*
X314479Y85423D01*
X314539Y85502D01*
X314596Y85584D01*
X314650Y85668D01*
X314700Y85754D01*
X314747Y85842D01*
X314791Y85932D01*
X314831Y86023D01*
X314867Y86116D01*
X314900Y86210D01*
X314929Y86306D01*
X314954Y86402D01*
X314975Y86499D01*
X314993Y86598D01*
X315006Y86696D01*
X315016Y86796D01*
X315022Y86895D01*
X315024Y86995D01*
X312484Y84455D02*
X312343Y84457D01*
X312202Y84462D01*
X312061Y84472D01*
X311920Y84485D01*
X311780Y84501D01*
X311640Y84522D01*
X311501Y84546D01*
X311362Y84574D01*
X311225Y84605D01*
X311088Y84640D01*
X310952Y84678D01*
X310817Y84720D01*
X310684Y84766D01*
X310551Y84815D01*
X310420Y84868D01*
X310291Y84924D01*
X310162Y84983D01*
X310036Y85046D01*
X309911Y85112D01*
X309788Y85181D01*
X309667Y85254D01*
X309548Y85330D01*
X309430Y85409D01*
X309315Y85490D01*
X309203Y85575D01*
X309092Y85663D01*
X308984Y85754D01*
X308878Y85847D01*
X308775Y85944D01*
X308674Y86043D01*
X308991Y93345D02*
X308993Y93445D01*
X308999Y93544D01*
X309009Y93644D01*
X309022Y93742D01*
X309040Y93841D01*
X309061Y93938D01*
X309086Y94034D01*
X309115Y94130D01*
X309148Y94224D01*
X309184Y94317D01*
X309224Y94408D01*
X309268Y94498D01*
X309315Y94586D01*
X309365Y94672D01*
X309419Y94756D01*
X309476Y94838D01*
X309536Y94917D01*
X309600Y94995D01*
X309666Y95069D01*
X309735Y95141D01*
X309807Y95210D01*
X309881Y95276D01*
X309959Y95340D01*
X310038Y95400D01*
X310120Y95457D01*
X310204Y95511D01*
X310290Y95561D01*
X310378Y95608D01*
X310468Y95652D01*
X310559Y95692D01*
X310652Y95728D01*
X310746Y95761D01*
X310842Y95790D01*
X310938Y95815D01*
X311035Y95836D01*
X311134Y95854D01*
X311232Y95867D01*
X311332Y95877D01*
X311431Y95883D01*
X311531Y95885D01*
X311531Y95886D02*
X311664Y95884D01*
X311797Y95879D01*
X311930Y95869D01*
X312063Y95856D01*
X312195Y95839D01*
X312327Y95819D01*
X312458Y95795D01*
X312588Y95767D01*
X312718Y95736D01*
X312846Y95701D01*
X312974Y95662D01*
X313100Y95620D01*
X313225Y95574D01*
X313349Y95525D01*
X313472Y95473D01*
X313593Y95417D01*
X313712Y95357D01*
X313830Y95295D01*
X313945Y95229D01*
X314059Y95160D01*
X314171Y95087D01*
X314281Y95012D01*
X314389Y94933D01*
X310261Y91122D02*
X310177Y91174D01*
X310094Y91229D01*
X310014Y91288D01*
X309936Y91349D01*
X309861Y91413D01*
X309788Y91481D01*
X309717Y91551D01*
X309650Y91623D01*
X309585Y91698D01*
X309523Y91776D01*
X309464Y91856D01*
X309408Y91938D01*
X309356Y92022D01*
X309307Y92108D01*
X309261Y92196D01*
X309218Y92286D01*
X309179Y92377D01*
X309144Y92470D01*
X309112Y92564D01*
X309084Y92659D01*
X309059Y92755D01*
X309039Y92852D01*
X309021Y92950D01*
X309008Y93048D01*
X308999Y93147D01*
X308993Y93246D01*
X308991Y93345D01*
X313754Y89218D02*
X313838Y89166D01*
X313921Y89111D01*
X314001Y89052D01*
X314079Y88991D01*
X314154Y88927D01*
X314227Y88859D01*
X314298Y88789D01*
X314365Y88717D01*
X314430Y88642D01*
X314492Y88564D01*
X314551Y88484D01*
X314607Y88402D01*
X314659Y88318D01*
X314708Y88232D01*
X314754Y88144D01*
X314797Y88054D01*
X314836Y87963D01*
X314871Y87870D01*
X314903Y87776D01*
X314931Y87681D01*
X314956Y87585D01*
X314976Y87488D01*
X314994Y87390D01*
X315007Y87292D01*
X315016Y87193D01*
X315022Y87094D01*
X315024Y86995D01*
X313754Y89218D02*
X310261Y91123D01*
X319215Y83185D02*
X324295Y83185D01*
X332042Y84455D02*
X328232Y95885D01*
X335852Y95885D02*
X332042Y84455D01*
X342799Y84455D02*
X345339Y84455D01*
X342799Y84455D02*
X342699Y84457D01*
X342600Y84463D01*
X342500Y84473D01*
X342402Y84486D01*
X342303Y84504D01*
X342206Y84525D01*
X342110Y84550D01*
X342014Y84579D01*
X341920Y84612D01*
X341827Y84648D01*
X341736Y84688D01*
X341646Y84732D01*
X341558Y84779D01*
X341472Y84829D01*
X341388Y84883D01*
X341306Y84940D01*
X341227Y85000D01*
X341149Y85064D01*
X341075Y85130D01*
X341003Y85199D01*
X340934Y85271D01*
X340868Y85345D01*
X340804Y85423D01*
X340744Y85502D01*
X340687Y85584D01*
X340633Y85668D01*
X340583Y85754D01*
X340536Y85842D01*
X340492Y85932D01*
X340452Y86023D01*
X340416Y86116D01*
X340383Y86210D01*
X340354Y86306D01*
X340329Y86402D01*
X340308Y86499D01*
X340290Y86598D01*
X340277Y86696D01*
X340267Y86796D01*
X340261Y86895D01*
X340259Y86995D01*
X340259Y93345D01*
X340261Y93445D01*
X340267Y93544D01*
X340277Y93644D01*
X340290Y93742D01*
X340308Y93841D01*
X340329Y93938D01*
X340354Y94034D01*
X340383Y94130D01*
X340416Y94224D01*
X340452Y94317D01*
X340492Y94408D01*
X340536Y94498D01*
X340583Y94586D01*
X340633Y94672D01*
X340687Y94756D01*
X340744Y94838D01*
X340804Y94917D01*
X340868Y94995D01*
X340934Y95069D01*
X341003Y95141D01*
X341075Y95210D01*
X341149Y95276D01*
X341227Y95340D01*
X341306Y95400D01*
X341388Y95457D01*
X341472Y95511D01*
X341558Y95561D01*
X341646Y95608D01*
X341736Y95652D01*
X341827Y95692D01*
X341920Y95728D01*
X342014Y95761D01*
X342110Y95790D01*
X342206Y95815D01*
X342303Y95836D01*
X342402Y95854D01*
X342500Y95867D01*
X342600Y95877D01*
X342699Y95883D01*
X342799Y95885D01*
X345339Y95885D01*
X352324Y84455D02*
X354864Y84455D01*
X352324Y84455D02*
X352224Y84457D01*
X352125Y84463D01*
X352025Y84473D01*
X351927Y84486D01*
X351828Y84504D01*
X351731Y84525D01*
X351635Y84550D01*
X351539Y84579D01*
X351445Y84612D01*
X351352Y84648D01*
X351261Y84688D01*
X351171Y84732D01*
X351083Y84779D01*
X350997Y84829D01*
X350913Y84883D01*
X350831Y84940D01*
X350752Y85000D01*
X350674Y85064D01*
X350600Y85130D01*
X350528Y85199D01*
X350459Y85271D01*
X350393Y85345D01*
X350329Y85423D01*
X350269Y85502D01*
X350212Y85584D01*
X350158Y85668D01*
X350108Y85754D01*
X350061Y85842D01*
X350017Y85932D01*
X349977Y86023D01*
X349941Y86116D01*
X349908Y86210D01*
X349879Y86306D01*
X349854Y86402D01*
X349833Y86499D01*
X349815Y86598D01*
X349802Y86696D01*
X349792Y86796D01*
X349786Y86895D01*
X349784Y86995D01*
X349784Y93345D01*
X349786Y93445D01*
X349792Y93544D01*
X349802Y93644D01*
X349815Y93742D01*
X349833Y93841D01*
X349854Y93938D01*
X349879Y94034D01*
X349908Y94130D01*
X349941Y94224D01*
X349977Y94317D01*
X350017Y94408D01*
X350061Y94498D01*
X350108Y94586D01*
X350158Y94672D01*
X350212Y94756D01*
X350269Y94838D01*
X350329Y94917D01*
X350393Y94995D01*
X350459Y95069D01*
X350528Y95141D01*
X350600Y95210D01*
X350674Y95276D01*
X350752Y95340D01*
X350831Y95400D01*
X350913Y95457D01*
X350997Y95511D01*
X351083Y95561D01*
X351171Y95608D01*
X351261Y95652D01*
X351352Y95692D01*
X351445Y95728D01*
X351539Y95761D01*
X351635Y95790D01*
X351731Y95815D01*
X351828Y95836D01*
X351927Y95854D01*
X352025Y95867D01*
X352125Y95877D01*
X352224Y95883D01*
X352324Y95885D01*
X354864Y95885D01*
X409575Y593725D02*
X422275Y593725D01*
X473075Y593725D02*
X485775Y593725D01*
X409575Y593725D02*
X409575Y549275D01*
X415925Y549275D01*
X422275Y542925D01*
X473075Y542925D01*
X479425Y549275D01*
X485775Y549275D01*
X485775Y593725D01*
X403225Y333375D02*
X396875Y327025D01*
X403225Y333375D02*
X409575Y339725D01*
X415925Y346075D01*
X422275Y352425D01*
X428625Y358775D01*
X434975Y365125D01*
X441325Y371475D01*
X447675Y377825D01*
X454025Y371475D01*
X460375Y365125D01*
X466725Y358775D01*
X473075Y352425D01*
X479425Y346075D01*
X485775Y339725D01*
X492125Y333375D01*
X498475Y327025D01*
X492125Y320675D01*
X485775Y314325D01*
X479425Y307975D01*
X473075Y301625D01*
X466725Y295275D01*
X460375Y288925D01*
X454025Y282575D01*
X447675Y276225D01*
X441325Y282575D01*
X434975Y288925D01*
X428625Y295275D01*
X422275Y301625D01*
X415925Y307975D01*
X409575Y314325D01*
X403225Y320675D01*
X396875Y327025D01*
D12*
X431178Y308843D02*
X431249Y308773D01*
X431317Y308701D01*
X431382Y308626D01*
X431445Y308549D01*
X431504Y308469D01*
X431561Y308387D01*
X431614Y308303D01*
X431664Y308217D01*
X431710Y308129D01*
X431753Y308040D01*
X431793Y307949D01*
X431829Y307856D01*
X431862Y307762D01*
X431891Y307667D01*
X431916Y307571D01*
X431938Y307474D01*
X431956Y307376D01*
X431970Y307277D01*
X431981Y307178D01*
X431987Y307079D01*
X431990Y306980D01*
X431989Y306880D01*
X431984Y306781D01*
X431975Y306682D01*
X431963Y306583D01*
X431947Y306485D01*
X431927Y306388D01*
X431903Y306291D01*
X431876Y306196D01*
X431845Y306101D01*
X431810Y306008D01*
X431772Y305916D01*
X431730Y305826D01*
X431685Y305737D01*
X431637Y305650D01*
X431585Y305565D01*
X431530Y305482D01*
X431472Y305401D01*
X431411Y305323D01*
X431347Y305247D01*
X431280Y305173D01*
X431281Y305172D02*
X431181Y305069D01*
X431078Y304968D01*
X430972Y304870D01*
X430863Y304774D01*
X430752Y304682D01*
X430639Y304593D01*
X430523Y304506D01*
X430406Y304423D01*
X430286Y304342D01*
X430164Y304265D01*
X430040Y304191D01*
X429914Y304121D01*
X429786Y304054D01*
X429656Y303990D01*
X429525Y303929D01*
X429393Y303873D01*
X429258Y303819D01*
X429123Y303769D01*
X428986Y303723D01*
X428848Y303680D01*
X428709Y303641D01*
X428569Y303606D01*
X428429Y303574D01*
X428287Y303546D01*
X428145Y303522D01*
X428002Y303502D01*
X427858Y303485D01*
X427714Y303472D01*
X427570Y303463D01*
X427426Y303458D01*
X422225Y308823D02*
X422154Y308893D01*
X422086Y308965D01*
X422021Y309040D01*
X421958Y309117D01*
X421899Y309197D01*
X421842Y309279D01*
X421789Y309363D01*
X421739Y309449D01*
X421693Y309537D01*
X421650Y309626D01*
X421610Y309717D01*
X421574Y309810D01*
X421541Y309904D01*
X421512Y309999D01*
X421487Y310095D01*
X421465Y310192D01*
X421447Y310290D01*
X421433Y310389D01*
X421422Y310488D01*
X421416Y310587D01*
X421413Y310686D01*
X421414Y310786D01*
X421419Y310885D01*
X421428Y310984D01*
X421440Y311083D01*
X421456Y311181D01*
X421476Y311278D01*
X421500Y311375D01*
X421527Y311471D01*
X421558Y311565D01*
X421593Y311658D01*
X421631Y311750D01*
X421673Y311840D01*
X421718Y311929D01*
X421766Y312016D01*
X421818Y312101D01*
X421873Y312184D01*
X421931Y312265D01*
X421992Y312343D01*
X422056Y312419D01*
X422123Y312493D01*
X422123Y312494D02*
X422218Y312591D01*
X422316Y312686D01*
X422416Y312778D01*
X422519Y312868D01*
X422624Y312954D01*
X422732Y313038D01*
X422842Y313118D01*
X422954Y313195D01*
X423068Y313270D01*
X423184Y313340D01*
X423302Y313408D01*
X423423Y313472D01*
X423544Y313533D01*
X423668Y313591D01*
X423793Y313645D01*
X423919Y313695D01*
X424047Y313742D01*
X424176Y313785D01*
X424307Y313825D01*
X424438Y313861D01*
X424570Y313893D01*
X424703Y313922D01*
X424837Y313947D01*
X424768Y308205D02*
X424670Y308179D01*
X424571Y308157D01*
X424471Y308138D01*
X424371Y308123D01*
X424270Y308112D01*
X424169Y308105D01*
X424068Y308102D01*
X423966Y308103D01*
X423865Y308108D01*
X423764Y308116D01*
X423663Y308129D01*
X423563Y308145D01*
X423464Y308165D01*
X423365Y308189D01*
X423268Y308217D01*
X423171Y308248D01*
X423076Y308283D01*
X422983Y308322D01*
X422890Y308364D01*
X422800Y308410D01*
X422711Y308459D01*
X422625Y308512D01*
X422540Y308568D01*
X422458Y308627D01*
X422378Y308689D01*
X422300Y308755D01*
X422225Y308823D01*
X428636Y309461D02*
X428734Y309487D01*
X428833Y309509D01*
X428933Y309528D01*
X429033Y309543D01*
X429134Y309554D01*
X429235Y309561D01*
X429336Y309564D01*
X429438Y309563D01*
X429539Y309558D01*
X429640Y309550D01*
X429741Y309537D01*
X429841Y309521D01*
X429940Y309501D01*
X430039Y309477D01*
X430136Y309449D01*
X430233Y309418D01*
X430328Y309383D01*
X430421Y309344D01*
X430514Y309302D01*
X430604Y309256D01*
X430693Y309207D01*
X430779Y309154D01*
X430864Y309098D01*
X430946Y309039D01*
X431026Y308977D01*
X431104Y308911D01*
X431179Y308843D01*
X428636Y309461D02*
X424768Y308205D01*
X429414Y320203D02*
X437903Y312175D01*
X427184Y317845D02*
X431644Y322562D01*
X434853Y325955D02*
X443342Y317927D01*
X442245Y324325D02*
X434853Y325955D01*
X442245Y324325D02*
X440205Y331615D01*
X448694Y323587D01*
X452427Y327534D02*
X454657Y329892D01*
X454734Y329975D01*
X454807Y330062D01*
X454878Y330150D01*
X454945Y330242D01*
X455009Y330335D01*
X455070Y330431D01*
X455127Y330529D01*
X455181Y330628D01*
X455231Y330730D01*
X455278Y330833D01*
X455321Y330938D01*
X455361Y331044D01*
X455396Y331151D01*
X455428Y331260D01*
X455457Y331370D01*
X455481Y331480D01*
X455501Y331592D01*
X455518Y331704D01*
X455531Y331817D01*
X455539Y331929D01*
X455544Y332043D01*
X455545Y332156D01*
X455542Y332269D01*
X455535Y332382D01*
X455523Y332495D01*
X455509Y332607D01*
X455490Y332719D01*
X455467Y332830D01*
X455440Y332940D01*
X455410Y333049D01*
X455375Y333157D01*
X455337Y333264D01*
X455296Y333369D01*
X455250Y333473D01*
X455201Y333575D01*
X455149Y333676D01*
X455093Y333774D01*
X455034Y333871D01*
X454971Y333965D01*
X454905Y334057D01*
X454836Y334147D01*
X454764Y334234D01*
X454688Y334319D01*
X454610Y334401D01*
X454529Y334480D01*
X454446Y334557D01*
X454359Y334630D01*
X454271Y334701D01*
X454179Y334768D01*
X454086Y334832D01*
X453990Y334893D01*
X453892Y334950D01*
X453793Y335004D01*
X453691Y335054D01*
X453588Y335101D01*
X453483Y335144D01*
X453377Y335184D01*
X453270Y335219D01*
X453161Y335251D01*
X453051Y335280D01*
X452941Y335304D01*
X452829Y335324D01*
X452717Y335341D01*
X452604Y335354D01*
X452492Y335362D01*
X452378Y335367D01*
X452265Y335368D01*
X452152Y335365D01*
X452039Y335358D01*
X451926Y335346D01*
X451814Y335332D01*
X451702Y335313D01*
X451591Y335290D01*
X451481Y335263D01*
X451372Y335233D01*
X451264Y335198D01*
X451157Y335160D01*
X451052Y335119D01*
X450948Y335073D01*
X450846Y335024D01*
X450745Y334972D01*
X450647Y334916D01*
X450550Y334857D01*
X450456Y334794D01*
X450364Y334728D01*
X450274Y334659D01*
X450187Y334587D01*
X450102Y334511D01*
X450020Y334433D01*
X449941Y334352D01*
X446613Y338392D02*
X443938Y335562D01*
X446614Y338392D02*
X446684Y338463D01*
X446758Y338532D01*
X446834Y338599D01*
X446912Y338662D01*
X446993Y338722D01*
X447076Y338779D01*
X447161Y338832D01*
X447248Y338882D01*
X447338Y338929D01*
X447428Y338973D01*
X447521Y339012D01*
X447615Y339048D01*
X447710Y339081D01*
X447807Y339110D01*
X447904Y339135D01*
X448003Y339156D01*
X448102Y339173D01*
X448202Y339187D01*
X448302Y339196D01*
X448402Y339202D01*
X448503Y339204D01*
X448604Y339202D01*
X448704Y339196D01*
X448804Y339186D01*
X448904Y339172D01*
X449003Y339155D01*
X449102Y339133D01*
X449199Y339108D01*
X449296Y339079D01*
X449391Y339046D01*
X449485Y339010D01*
X449577Y338970D01*
X449668Y338927D01*
X449757Y338879D01*
X449844Y338829D01*
X449929Y338775D01*
X450012Y338718D01*
X450093Y338658D01*
X450171Y338595D01*
X450247Y338528D01*
X450320Y338459D01*
X450390Y338387D01*
X450458Y338313D01*
X450523Y338235D01*
X450584Y338156D01*
X450643Y338074D01*
X450698Y337990D01*
X450750Y337903D01*
X450798Y337815D01*
X450843Y337725D01*
X450885Y337633D01*
X450923Y337540D01*
X450957Y337446D01*
X450988Y337350D01*
X451015Y337253D01*
X451038Y337155D01*
X451057Y337056D01*
X451073Y336956D01*
X451084Y336856D01*
X451092Y336756D01*
X451096Y336655D01*
X451095Y336555D01*
X451091Y336454D01*
X451084Y336354D01*
X451072Y336254D01*
X451056Y336154D01*
X451037Y336055D01*
X451013Y335957D01*
X450986Y335861D01*
X450955Y335765D01*
X450921Y335670D01*
X450882Y335577D01*
X450841Y335485D01*
X450795Y335395D01*
X450747Y335307D01*
X450695Y335221D01*
X450639Y335137D01*
X450580Y335055D01*
X450519Y334976D01*
X450454Y334899D01*
X450386Y334824D01*
X450387Y334824D02*
X448603Y332937D01*
X454244Y346461D02*
X454318Y346537D01*
X454396Y346611D01*
X454476Y346681D01*
X454559Y346749D01*
X454644Y346813D01*
X454731Y346874D01*
X454820Y346933D01*
X454912Y346987D01*
X455005Y347039D01*
X455101Y347087D01*
X455198Y347131D01*
X455296Y347172D01*
X455396Y347209D01*
X455497Y347243D01*
X455600Y347273D01*
X455703Y347299D01*
X455808Y347321D01*
X455913Y347340D01*
X456019Y347354D01*
X456125Y347365D01*
X456231Y347372D01*
X456338Y347375D01*
X456444Y347374D01*
X456551Y347369D01*
X456657Y347360D01*
X456763Y347348D01*
X456869Y347331D01*
X456974Y347311D01*
X457077Y347287D01*
X457180Y347259D01*
X457282Y347228D01*
X457383Y347192D01*
X457482Y347153D01*
X457580Y347111D01*
X457676Y347065D01*
X457771Y347015D01*
X457864Y346962D01*
X457954Y346906D01*
X458043Y346846D01*
X458129Y346783D01*
X458213Y346717D01*
X458294Y346648D01*
X458373Y346576D01*
X454243Y346461D02*
X454161Y346371D01*
X454083Y346280D01*
X454007Y346185D01*
X453934Y346088D01*
X453865Y345989D01*
X453798Y345888D01*
X453735Y345785D01*
X453676Y345680D01*
X453619Y345572D01*
X453567Y345464D01*
X453517Y345353D01*
X453472Y345241D01*
X453430Y345127D01*
X453391Y345013D01*
X453357Y344897D01*
X453326Y344780D01*
X453299Y344662D01*
X453276Y344543D01*
X453256Y344424D01*
X453241Y344303D01*
X453229Y344183D01*
X453221Y344062D01*
X453217Y343941D01*
X453218Y343820D01*
X453221Y343699D01*
X453229Y343579D01*
X453241Y343458D01*
X453257Y343338D01*
X453276Y343219D01*
X453299Y343100D01*
X453327Y342982D01*
X453357Y342865D01*
X453392Y342749D01*
X453430Y342634D01*
X453473Y342521D01*
X453518Y342409D01*
X453568Y342298D01*
X453620Y342189D01*
X453677Y342082D01*
X459354Y344307D02*
X459352Y344418D01*
X459345Y344528D01*
X459335Y344638D01*
X459321Y344747D01*
X459304Y344856D01*
X459282Y344965D01*
X459256Y345072D01*
X459227Y345179D01*
X459194Y345284D01*
X459158Y345388D01*
X459117Y345491D01*
X459074Y345592D01*
X459026Y345692D01*
X458975Y345790D01*
X458921Y345886D01*
X458863Y345981D01*
X458802Y346073D01*
X458738Y346163D01*
X458671Y346250D01*
X458601Y346335D01*
X458527Y346418D01*
X458451Y346498D01*
X458372Y346575D01*
X459355Y344308D02*
X460280Y335839D01*
X464740Y340555D01*
D11*
X492125Y320675D02*
X498475Y314325D01*
X492125Y307975D02*
X485775Y314325D01*
X479425Y307975D02*
X485775Y301625D01*
X479425Y295275D02*
X473075Y301625D01*
X466725Y295275D02*
X473075Y288925D01*
X466725Y282575D02*
X460375Y288925D01*
X454025Y282575D02*
X460375Y276225D01*
X441325Y282575D02*
X434975Y276225D01*
X428625Y282575D02*
X434975Y288925D01*
X428625Y295275D02*
X422275Y288925D01*
X415925Y295275D02*
X422275Y301625D01*
X415925Y307975D02*
X409575Y301625D01*
X403225Y307975D02*
X409575Y314325D01*
X409575Y339725D02*
X403225Y346075D01*
X409575Y352425D02*
X415925Y346075D01*
X422275Y352425D02*
X415925Y358775D01*
X422275Y365125D02*
X428625Y358775D01*
X434975Y365125D02*
X428625Y371475D01*
X434975Y377825D02*
X441325Y371475D01*
X454025Y371475D02*
X460375Y377825D01*
X466725Y371475D02*
X460375Y365125D01*
X466725Y358775D02*
X473075Y365125D01*
X479425Y358775D02*
X473075Y352425D01*
X479425Y346075D02*
X485775Y352425D01*
X492125Y346075D02*
X485775Y339725D01*
X485775Y593725D02*
X536575Y593725D01*
X536882Y593721D01*
X537189Y593710D01*
X537495Y593692D01*
X537801Y593666D01*
X538106Y593632D01*
X538410Y593592D01*
X538713Y593544D01*
X539015Y593488D01*
X539315Y593426D01*
X539614Y593356D01*
X539911Y593279D01*
X540207Y593195D01*
X540500Y593103D01*
X540790Y593005D01*
X541078Y592900D01*
X541364Y592787D01*
X541647Y592668D01*
X541927Y592542D01*
X542204Y592410D01*
X542477Y592270D01*
X542747Y592124D01*
X543013Y591972D01*
X543276Y591813D01*
X543535Y591648D01*
X543789Y591477D01*
X544040Y591300D01*
X544286Y591116D01*
X544528Y590927D01*
X544764Y590732D01*
X544997Y590531D01*
X545224Y590325D01*
X545446Y590113D01*
X545663Y589896D01*
X545875Y589674D01*
X546081Y589447D01*
X546282Y589214D01*
X546477Y588978D01*
X546666Y588736D01*
X546850Y588490D01*
X547027Y588239D01*
X547198Y587985D01*
X547363Y587726D01*
X547522Y587463D01*
X547674Y587197D01*
X547820Y586927D01*
X547960Y586654D01*
X548092Y586377D01*
X548218Y586097D01*
X548337Y585814D01*
X548450Y585528D01*
X548555Y585240D01*
X548653Y584950D01*
X548745Y584657D01*
X548829Y584361D01*
X548906Y584064D01*
X548976Y583765D01*
X549038Y583465D01*
X549094Y583163D01*
X549142Y582860D01*
X549182Y582556D01*
X549216Y582251D01*
X549242Y581945D01*
X549260Y581639D01*
X549271Y581332D01*
X549275Y581025D01*
X549275Y85725D01*
X549271Y85418D01*
X549260Y85111D01*
X549242Y84805D01*
X549216Y84499D01*
X549182Y84194D01*
X549142Y83890D01*
X549094Y83587D01*
X549038Y83285D01*
X548976Y82985D01*
X548906Y82686D01*
X548829Y82389D01*
X548745Y82093D01*
X548653Y81800D01*
X548555Y81510D01*
X548450Y81222D01*
X548337Y80936D01*
X548218Y80653D01*
X548092Y80373D01*
X547960Y80096D01*
X547820Y79823D01*
X547674Y79553D01*
X547522Y79287D01*
X547363Y79024D01*
X547198Y78765D01*
X547027Y78511D01*
X546850Y78260D01*
X546666Y78014D01*
X546477Y77772D01*
X546282Y77536D01*
X546081Y77303D01*
X545875Y77076D01*
X545663Y76854D01*
X545446Y76637D01*
X545224Y76425D01*
X544997Y76219D01*
X544764Y76018D01*
X544528Y75823D01*
X544286Y75634D01*
X544040Y75450D01*
X543789Y75273D01*
X543535Y75102D01*
X543276Y74937D01*
X543013Y74778D01*
X542747Y74626D01*
X542477Y74480D01*
X542204Y74340D01*
X541927Y74208D01*
X541647Y74082D01*
X541364Y73963D01*
X541078Y73850D01*
X540790Y73745D01*
X540500Y73647D01*
X540207Y73555D01*
X539911Y73471D01*
X539614Y73394D01*
X539315Y73324D01*
X539015Y73262D01*
X538713Y73206D01*
X538410Y73158D01*
X538106Y73118D01*
X537801Y73084D01*
X537495Y73058D01*
X537189Y73040D01*
X536882Y73029D01*
X536575Y73025D01*
X358775Y73025D01*
X358468Y73029D01*
X358161Y73040D01*
X357855Y73058D01*
X357549Y73084D01*
X357244Y73118D01*
X356940Y73158D01*
X356637Y73206D01*
X356335Y73262D01*
X356035Y73324D01*
X355736Y73394D01*
X355439Y73471D01*
X355143Y73555D01*
X354850Y73647D01*
X354560Y73745D01*
X354272Y73850D01*
X353986Y73963D01*
X353703Y74082D01*
X353423Y74208D01*
X353146Y74340D01*
X352873Y74480D01*
X352603Y74626D01*
X352337Y74778D01*
X352074Y74937D01*
X351815Y75102D01*
X351561Y75273D01*
X351310Y75450D01*
X351064Y75634D01*
X350822Y75823D01*
X350586Y76018D01*
X350353Y76219D01*
X350126Y76425D01*
X349904Y76637D01*
X349687Y76854D01*
X349475Y77076D01*
X349269Y77303D01*
X349068Y77536D01*
X348873Y77772D01*
X348684Y78014D01*
X348500Y78260D01*
X348323Y78511D01*
X348152Y78765D01*
X347987Y79024D01*
X347828Y79287D01*
X347676Y79553D01*
X347530Y79823D01*
X347390Y80096D01*
X347258Y80373D01*
X347132Y80653D01*
X347013Y80936D01*
X346900Y81222D01*
X346795Y81510D01*
X346697Y81800D01*
X346605Y82093D01*
X346521Y82389D01*
X346444Y82686D01*
X346374Y82985D01*
X346312Y83285D01*
X346256Y83587D01*
X346208Y83890D01*
X346168Y84194D01*
X346134Y84499D01*
X346108Y84805D01*
X346090Y85111D01*
X346079Y85418D01*
X346075Y85725D01*
X346075Y581025D01*
X346079Y581332D01*
X346090Y581639D01*
X346108Y581945D01*
X346134Y582251D01*
X346168Y582556D01*
X346208Y582860D01*
X346256Y583163D01*
X346312Y583465D01*
X346374Y583765D01*
X346444Y584064D01*
X346521Y584361D01*
X346605Y584657D01*
X346697Y584950D01*
X346795Y585240D01*
X346900Y585528D01*
X347013Y585814D01*
X347132Y586097D01*
X347258Y586377D01*
X347390Y586654D01*
X347530Y586927D01*
X347676Y587197D01*
X347828Y587463D01*
X347987Y587726D01*
X348152Y587985D01*
X348323Y588239D01*
X348500Y588490D01*
X348684Y588736D01*
X348873Y588978D01*
X349068Y589214D01*
X349269Y589447D01*
X349475Y589674D01*
X349687Y589896D01*
X349904Y590113D01*
X350126Y590325D01*
X350353Y590531D01*
X350586Y590732D01*
X350822Y590927D01*
X351064Y591116D01*
X351310Y591300D01*
X351561Y591477D01*
X351815Y591648D01*
X352074Y591813D01*
X352337Y591972D01*
X352603Y592124D01*
X352873Y592270D01*
X353146Y592410D01*
X353423Y592542D01*
X353703Y592668D01*
X353986Y592787D01*
X354272Y592900D01*
X354560Y593005D01*
X354850Y593103D01*
X355143Y593195D01*
X355439Y593279D01*
X355736Y593356D01*
X356035Y593426D01*
X356335Y593488D01*
X356637Y593544D01*
X356940Y593592D01*
X357244Y593632D01*
X357549Y593666D01*
X357855Y593692D01*
X358161Y593710D01*
X358468Y593721D01*
X358775Y593725D01*
X409575Y593725D01*
X409730Y593574D01*
X409889Y593426D01*
X410052Y593282D01*
X410218Y593142D01*
X410387Y593006D01*
X410559Y592874D01*
X410735Y592747D01*
X410913Y592624D01*
X411095Y592505D01*
X411279Y592390D01*
X411466Y592280D01*
X411656Y592175D01*
X411848Y592074D01*
X412043Y591978D01*
X412239Y591886D01*
X412438Y591799D01*
X412639Y591718D01*
X412842Y591641D01*
X413047Y591569D01*
X413253Y591502D01*
X413461Y591440D01*
X413671Y591383D01*
X413881Y591331D01*
X414093Y591284D01*
X414306Y591242D01*
X414520Y591206D01*
X414735Y591174D01*
X414950Y591148D01*
X415166Y591127D01*
X415383Y591111D01*
X415600Y591101D01*
X415816Y591096D01*
X416034Y591096D01*
X416250Y591101D01*
X416467Y591111D01*
X416684Y591127D01*
X416900Y591148D01*
X417115Y591174D01*
X417330Y591206D01*
X417544Y591242D01*
X417757Y591284D01*
X417969Y591331D01*
X418179Y591383D01*
X418389Y591440D01*
X418597Y591502D01*
X418803Y591569D01*
X419008Y591641D01*
X419211Y591718D01*
X419412Y591799D01*
X419611Y591886D01*
X419807Y591978D01*
X420002Y592074D01*
X420194Y592175D01*
X420384Y592280D01*
X420571Y592390D01*
X420755Y592505D01*
X420937Y592624D01*
X421115Y592747D01*
X421291Y592874D01*
X421463Y593006D01*
X421632Y593142D01*
X421798Y593282D01*
X421961Y593426D01*
X422120Y593574D01*
X422275Y593725D01*
X473075Y593725D01*
X473230Y593574D01*
X473389Y593426D01*
X473552Y593282D01*
X473718Y593142D01*
X473887Y593006D01*
X474059Y592874D01*
X474235Y592747D01*
X474413Y592624D01*
X474595Y592505D01*
X474779Y592390D01*
X474966Y592280D01*
X475156Y592175D01*
X475348Y592074D01*
X475543Y591978D01*
X475739Y591886D01*
X475938Y591799D01*
X476139Y591718D01*
X476342Y591641D01*
X476547Y591569D01*
X476753Y591502D01*
X476961Y591440D01*
X477171Y591383D01*
X477381Y591331D01*
X477593Y591284D01*
X477806Y591242D01*
X478020Y591206D01*
X478235Y591174D01*
X478450Y591148D01*
X478666Y591127D01*
X478883Y591111D01*
X479100Y591101D01*
X479316Y591096D01*
X479534Y591096D01*
X479750Y591101D01*
X479967Y591111D01*
X480184Y591127D01*
X480400Y591148D01*
X480615Y591174D01*
X480830Y591206D01*
X481044Y591242D01*
X481257Y591284D01*
X481469Y591331D01*
X481679Y591383D01*
X481889Y591440D01*
X482097Y591502D01*
X482303Y591569D01*
X482508Y591641D01*
X482711Y591718D01*
X482912Y591799D01*
X483111Y591886D01*
X483307Y591978D01*
X483502Y592074D01*
X483694Y592175D01*
X483884Y592280D01*
X484071Y592390D01*
X484255Y592505D01*
X484437Y592624D01*
X484615Y592747D01*
X484791Y592874D01*
X484963Y593006D01*
X485132Y593142D01*
X485298Y593282D01*
X485461Y593426D01*
X485620Y593574D01*
X485775Y593725D01*
X422275Y568325D02*
X422275Y555625D01*
X434975Y555625D01*
X434975Y568325D01*
X460375Y568325D02*
X460375Y555625D01*
X473075Y555625D01*
X473075Y568325D01*
X434975Y568325D02*
X422275Y568325D01*
X460375Y568325D02*
X473075Y568325D01*
X403225Y320675D02*
X396875Y314325D01*
X403225Y333375D02*
X396875Y339725D01*
X492125Y333375D02*
X498475Y339725D01*
X403225Y327025D02*
X403227Y327184D01*
X403233Y327343D01*
X403243Y327501D01*
X403257Y327660D01*
X403275Y327818D01*
X403296Y327975D01*
X403322Y328132D01*
X403352Y328288D01*
X403385Y328444D01*
X403423Y328598D01*
X403464Y328752D01*
X403509Y328904D01*
X403558Y329055D01*
X403611Y329205D01*
X403667Y329354D01*
X403728Y329501D01*
X403791Y329646D01*
X403859Y329790D01*
X403930Y329933D01*
X404004Y330073D01*
X404082Y330211D01*
X404164Y330348D01*
X404249Y330482D01*
X404337Y330615D01*
X404428Y330745D01*
X404523Y330872D01*
X404621Y330997D01*
X404722Y331120D01*
X404826Y331240D01*
X404933Y331358D01*
X405043Y331473D01*
X405156Y331585D01*
X405271Y331694D01*
X405389Y331800D01*
X405510Y331904D01*
X405634Y332004D01*
X405759Y332101D01*
X405888Y332195D01*
X406018Y332285D01*
X406151Y332373D01*
X406286Y332457D01*
X406423Y332537D01*
X406562Y332615D01*
X406703Y332688D01*
X406845Y332758D01*
X406990Y332825D01*
X407136Y332888D01*
X407283Y332947D01*
X407432Y333003D01*
X407583Y333054D01*
X407734Y333102D01*
X407887Y333146D01*
X408041Y333187D01*
X408195Y333223D01*
X408351Y333256D01*
X408507Y333285D01*
X408664Y333309D01*
X408822Y333330D01*
X408980Y333347D01*
X409138Y333360D01*
X409297Y333369D01*
X409456Y333374D01*
X409615Y333375D01*
X409774Y333372D01*
X409932Y333365D01*
X410091Y333354D01*
X410249Y333339D01*
X410407Y333320D01*
X410564Y333297D01*
X410721Y333271D01*
X410877Y333240D01*
X411032Y333206D01*
X411186Y333167D01*
X411340Y333125D01*
X411492Y333079D01*
X411643Y333029D01*
X411792Y332975D01*
X411941Y332918D01*
X412087Y332857D01*
X412233Y332792D01*
X412376Y332724D01*
X412518Y332652D01*
X412658Y332576D01*
X412796Y332498D01*
X412932Y332415D01*
X413066Y332330D01*
X413197Y332241D01*
X413327Y332148D01*
X413454Y332053D01*
X413578Y331954D01*
X413701Y331852D01*
X413820Y331748D01*
X413937Y331640D01*
X414051Y331529D01*
X414162Y331416D01*
X414271Y331300D01*
X414376Y331181D01*
X414479Y331059D01*
X414578Y330935D01*
X414675Y330809D01*
X414768Y330680D01*
X414858Y330549D01*
X414944Y330415D01*
X415027Y330280D01*
X415107Y330142D01*
X415183Y330003D01*
X415256Y329862D01*
X415325Y329719D01*
X415391Y329574D01*
X415453Y329427D01*
X415511Y329280D01*
X415566Y329130D01*
X415617Y328980D01*
X415664Y328828D01*
X415707Y328675D01*
X415746Y328521D01*
X415782Y328366D01*
X415813Y328210D01*
X415841Y328054D01*
X415865Y327897D01*
X415885Y327739D01*
X415901Y327581D01*
X415913Y327422D01*
X415921Y327263D01*
X415925Y327104D01*
X415925Y326946D01*
X415921Y326787D01*
X415913Y326628D01*
X415901Y326469D01*
X415885Y326311D01*
X415865Y326153D01*
X415841Y325996D01*
X415813Y325840D01*
X415782Y325684D01*
X415746Y325529D01*
X415707Y325375D01*
X415664Y325222D01*
X415617Y325070D01*
X415566Y324920D01*
X415511Y324770D01*
X415453Y324623D01*
X415391Y324476D01*
X415325Y324331D01*
X415256Y324188D01*
X415183Y324047D01*
X415107Y323908D01*
X415027Y323770D01*
X414944Y323635D01*
X414858Y323501D01*
X414768Y323370D01*
X414675Y323241D01*
X414578Y323115D01*
X414479Y322991D01*
X414376Y322869D01*
X414271Y322750D01*
X414162Y322634D01*
X414051Y322521D01*
X413937Y322410D01*
X413820Y322302D01*
X413701Y322198D01*
X413578Y322096D01*
X413454Y321997D01*
X413327Y321902D01*
X413197Y321809D01*
X413066Y321720D01*
X412932Y321635D01*
X412796Y321552D01*
X412658Y321474D01*
X412518Y321398D01*
X412376Y321326D01*
X412233Y321258D01*
X412087Y321193D01*
X411941Y321132D01*
X411792Y321075D01*
X411643Y321021D01*
X411492Y320971D01*
X411340Y320925D01*
X411186Y320883D01*
X411032Y320844D01*
X410877Y320810D01*
X410721Y320779D01*
X410564Y320753D01*
X410407Y320730D01*
X410249Y320711D01*
X410091Y320696D01*
X409932Y320685D01*
X409774Y320678D01*
X409615Y320675D01*
X409456Y320676D01*
X409297Y320681D01*
X409138Y320690D01*
X408980Y320703D01*
X408822Y320720D01*
X408664Y320741D01*
X408507Y320765D01*
X408351Y320794D01*
X408195Y320827D01*
X408041Y320863D01*
X407887Y320904D01*
X407734Y320948D01*
X407583Y320996D01*
X407432Y321047D01*
X407283Y321103D01*
X407136Y321162D01*
X406990Y321225D01*
X406845Y321292D01*
X406703Y321362D01*
X406562Y321435D01*
X406423Y321513D01*
X406286Y321593D01*
X406151Y321677D01*
X406018Y321765D01*
X405888Y321855D01*
X405759Y321949D01*
X405634Y322046D01*
X405510Y322146D01*
X405389Y322250D01*
X405271Y322356D01*
X405156Y322465D01*
X405043Y322577D01*
X404933Y322692D01*
X404826Y322810D01*
X404722Y322930D01*
X404621Y323053D01*
X404523Y323178D01*
X404428Y323305D01*
X404337Y323435D01*
X404249Y323568D01*
X404164Y323702D01*
X404082Y323839D01*
X404004Y323977D01*
X403930Y324117D01*
X403859Y324260D01*
X403791Y324404D01*
X403728Y324549D01*
X403667Y324696D01*
X403611Y324845D01*
X403558Y324995D01*
X403509Y325146D01*
X403464Y325298D01*
X403423Y325452D01*
X403385Y325606D01*
X403352Y325762D01*
X403322Y325918D01*
X403296Y326075D01*
X403275Y326232D01*
X403257Y326390D01*
X403243Y326549D01*
X403233Y326707D01*
X403227Y326866D01*
X403225Y327025D01*
X403225Y200025D02*
X403231Y199565D01*
X403247Y199105D01*
X403275Y198645D01*
X403314Y198186D01*
X403364Y197729D01*
X403425Y197272D01*
X403497Y196818D01*
X403580Y196365D01*
X403674Y195914D01*
X403779Y195466D01*
X403894Y195020D01*
X404020Y194578D01*
X404157Y194138D01*
X404305Y193702D01*
X404463Y193270D01*
X404631Y192841D01*
X404810Y192417D01*
X404999Y191997D01*
X405198Y191582D01*
X405407Y191172D01*
X405626Y190767D01*
X405854Y190367D01*
X406093Y189973D01*
X406340Y189585D01*
X406597Y189203D01*
X406863Y188828D01*
X407138Y188459D01*
X407422Y188096D01*
X407715Y187741D01*
X408016Y187393D01*
X408325Y187052D01*
X408643Y186718D01*
X408968Y186393D01*
X409302Y186075D01*
X409643Y185766D01*
X409991Y185465D01*
X410346Y185172D01*
X410709Y184888D01*
X411078Y184613D01*
X411453Y184347D01*
X411835Y184090D01*
X412223Y183843D01*
X412617Y183604D01*
X413017Y183376D01*
X413422Y183157D01*
X413832Y182948D01*
X414247Y182749D01*
X414667Y182560D01*
X415091Y182381D01*
X415520Y182213D01*
X415952Y182055D01*
X416388Y181907D01*
X416828Y181770D01*
X417270Y181644D01*
X417716Y181529D01*
X418164Y181424D01*
X418615Y181330D01*
X419068Y181247D01*
X419522Y181175D01*
X419979Y181114D01*
X420436Y181064D01*
X420895Y181025D01*
X421355Y180997D01*
X421815Y180981D01*
X422275Y180975D01*
X473075Y180975D01*
X473535Y180981D01*
X473995Y180997D01*
X474455Y181025D01*
X474914Y181064D01*
X475371Y181114D01*
X475828Y181175D01*
X476282Y181247D01*
X476735Y181330D01*
X477186Y181424D01*
X477634Y181529D01*
X478080Y181644D01*
X478522Y181770D01*
X478962Y181907D01*
X479398Y182055D01*
X479830Y182213D01*
X480259Y182381D01*
X480683Y182560D01*
X481103Y182749D01*
X481518Y182948D01*
X481928Y183157D01*
X482333Y183376D01*
X482733Y183604D01*
X483127Y183843D01*
X483515Y184090D01*
X483897Y184347D01*
X484272Y184613D01*
X484641Y184888D01*
X485004Y185172D01*
X485359Y185465D01*
X485707Y185766D01*
X486048Y186075D01*
X486382Y186393D01*
X486707Y186718D01*
X487025Y187052D01*
X487334Y187393D01*
X487635Y187741D01*
X487928Y188096D01*
X488212Y188459D01*
X488487Y188828D01*
X488753Y189203D01*
X489010Y189585D01*
X489257Y189973D01*
X489496Y190367D01*
X489724Y190767D01*
X489943Y191172D01*
X490152Y191582D01*
X490351Y191997D01*
X490540Y192417D01*
X490719Y192841D01*
X490887Y193270D01*
X491045Y193702D01*
X491193Y194138D01*
X491330Y194578D01*
X491456Y195020D01*
X491571Y195466D01*
X491676Y195914D01*
X491770Y196365D01*
X491853Y196818D01*
X491925Y197272D01*
X491986Y197729D01*
X492036Y198186D01*
X492075Y198645D01*
X492103Y199105D01*
X492119Y199565D01*
X492125Y200025D01*
X492119Y200485D01*
X492103Y200945D01*
X492075Y201405D01*
X492036Y201864D01*
X491986Y202321D01*
X491925Y202778D01*
X491853Y203232D01*
X491770Y203685D01*
X491676Y204136D01*
X491571Y204584D01*
X491456Y205030D01*
X491330Y205472D01*
X491193Y205912D01*
X491045Y206348D01*
X490887Y206780D01*
X490719Y207209D01*
X490540Y207633D01*
X490351Y208053D01*
X490152Y208468D01*
X489943Y208878D01*
X489724Y209283D01*
X489496Y209683D01*
X489257Y210077D01*
X489010Y210465D01*
X488753Y210847D01*
X488487Y211222D01*
X488212Y211591D01*
X487928Y211954D01*
X487635Y212309D01*
X487334Y212657D01*
X487025Y212998D01*
X486707Y213332D01*
X486382Y213657D01*
X486048Y213975D01*
X485707Y214284D01*
X485359Y214585D01*
X485004Y214878D01*
X484641Y215162D01*
X484272Y215437D01*
X483897Y215703D01*
X483515Y215960D01*
X483127Y216207D01*
X482733Y216446D01*
X482333Y216674D01*
X481928Y216893D01*
X481518Y217102D01*
X481103Y217301D01*
X480683Y217490D01*
X480259Y217669D01*
X479830Y217837D01*
X479398Y217995D01*
X478962Y218143D01*
X478522Y218280D01*
X478080Y218406D01*
X477634Y218521D01*
X477186Y218626D01*
X476735Y218720D01*
X476282Y218803D01*
X475828Y218875D01*
X475371Y218936D01*
X474914Y218986D01*
X474455Y219025D01*
X473995Y219053D01*
X473535Y219069D01*
X473075Y219075D01*
X422275Y219075D01*
X421815Y219069D01*
X421355Y219053D01*
X420895Y219025D01*
X420436Y218986D01*
X419979Y218936D01*
X419522Y218875D01*
X419068Y218803D01*
X418615Y218720D01*
X418164Y218626D01*
X417716Y218521D01*
X417270Y218406D01*
X416828Y218280D01*
X416388Y218143D01*
X415952Y217995D01*
X415520Y217837D01*
X415091Y217669D01*
X414667Y217490D01*
X414247Y217301D01*
X413832Y217102D01*
X413422Y216893D01*
X413017Y216674D01*
X412617Y216446D01*
X412223Y216207D01*
X411835Y215960D01*
X411453Y215703D01*
X411078Y215437D01*
X410709Y215162D01*
X410346Y214878D01*
X409991Y214585D01*
X409643Y214284D01*
X409302Y213975D01*
X408968Y213657D01*
X408643Y213332D01*
X408325Y212998D01*
X408016Y212657D01*
X407715Y212309D01*
X407422Y211954D01*
X407138Y211591D01*
X406863Y211222D01*
X406597Y210847D01*
X406340Y210465D01*
X406093Y210077D01*
X405854Y209683D01*
X405626Y209283D01*
X405407Y208878D01*
X405198Y208468D01*
X404999Y208053D01*
X404810Y207633D01*
X404631Y207209D01*
X404463Y206780D01*
X404305Y206348D01*
X404157Y205912D01*
X404020Y205472D01*
X403894Y205030D01*
X403779Y204584D01*
X403674Y204136D01*
X403580Y203685D01*
X403497Y203232D01*
X403425Y202778D01*
X403364Y202321D01*
X403314Y201864D01*
X403275Y201405D01*
X403247Y200945D01*
X403231Y200485D01*
X403225Y200025D01*
X460375Y504825D02*
X473075Y504825D01*
X473075Y466725D01*
X460375Y466725D01*
X460375Y479425D01*
X460375Y492125D01*
X460375Y504825D01*
X473075Y504825D02*
X485775Y504825D01*
X485775Y492125D01*
X485775Y479425D01*
X485775Y466725D01*
X473075Y466725D01*
X415925Y479425D02*
X415927Y479584D01*
X415933Y479743D01*
X415943Y479901D01*
X415957Y480060D01*
X415975Y480218D01*
X415996Y480375D01*
X416022Y480532D01*
X416052Y480688D01*
X416085Y480844D01*
X416123Y480998D01*
X416164Y481152D01*
X416209Y481304D01*
X416258Y481455D01*
X416311Y481605D01*
X416367Y481754D01*
X416428Y481901D01*
X416491Y482046D01*
X416559Y482190D01*
X416630Y482333D01*
X416704Y482473D01*
X416782Y482611D01*
X416864Y482748D01*
X416949Y482882D01*
X417037Y483015D01*
X417128Y483145D01*
X417223Y483272D01*
X417321Y483397D01*
X417422Y483520D01*
X417526Y483640D01*
X417633Y483758D01*
X417743Y483873D01*
X417856Y483985D01*
X417971Y484094D01*
X418089Y484200D01*
X418210Y484304D01*
X418334Y484404D01*
X418459Y484501D01*
X418588Y484595D01*
X418718Y484685D01*
X418851Y484773D01*
X418986Y484857D01*
X419123Y484937D01*
X419262Y485015D01*
X419403Y485088D01*
X419545Y485158D01*
X419690Y485225D01*
X419836Y485288D01*
X419983Y485347D01*
X420132Y485403D01*
X420283Y485454D01*
X420434Y485502D01*
X420587Y485546D01*
X420741Y485587D01*
X420895Y485623D01*
X421051Y485656D01*
X421207Y485685D01*
X421364Y485709D01*
X421522Y485730D01*
X421680Y485747D01*
X421838Y485760D01*
X421997Y485769D01*
X422156Y485774D01*
X422315Y485775D01*
X422474Y485772D01*
X422632Y485765D01*
X422791Y485754D01*
X422949Y485739D01*
X423107Y485720D01*
X423264Y485697D01*
X423421Y485671D01*
X423577Y485640D01*
X423732Y485606D01*
X423886Y485567D01*
X424040Y485525D01*
X424192Y485479D01*
X424343Y485429D01*
X424492Y485375D01*
X424641Y485318D01*
X424787Y485257D01*
X424933Y485192D01*
X425076Y485124D01*
X425218Y485052D01*
X425358Y484976D01*
X425496Y484898D01*
X425632Y484815D01*
X425766Y484730D01*
X425897Y484641D01*
X426027Y484548D01*
X426154Y484453D01*
X426278Y484354D01*
X426401Y484252D01*
X426520Y484148D01*
X426637Y484040D01*
X426751Y483929D01*
X426862Y483816D01*
X426971Y483700D01*
X427076Y483581D01*
X427179Y483459D01*
X427278Y483335D01*
X427375Y483209D01*
X427468Y483080D01*
X427558Y482949D01*
X427644Y482815D01*
X427727Y482680D01*
X427807Y482542D01*
X427883Y482403D01*
X427956Y482262D01*
X428025Y482119D01*
X428091Y481974D01*
X428153Y481827D01*
X428211Y481680D01*
X428266Y481530D01*
X428317Y481380D01*
X428364Y481228D01*
X428407Y481075D01*
X428446Y480921D01*
X428482Y480766D01*
X428513Y480610D01*
X428541Y480454D01*
X428565Y480297D01*
X428585Y480139D01*
X428601Y479981D01*
X428613Y479822D01*
X428621Y479663D01*
X428625Y479504D01*
X428625Y479346D01*
X428621Y479187D01*
X428613Y479028D01*
X428601Y478869D01*
X428585Y478711D01*
X428565Y478553D01*
X428541Y478396D01*
X428513Y478240D01*
X428482Y478084D01*
X428446Y477929D01*
X428407Y477775D01*
X428364Y477622D01*
X428317Y477470D01*
X428266Y477320D01*
X428211Y477170D01*
X428153Y477023D01*
X428091Y476876D01*
X428025Y476731D01*
X427956Y476588D01*
X427883Y476447D01*
X427807Y476308D01*
X427727Y476170D01*
X427644Y476035D01*
X427558Y475901D01*
X427468Y475770D01*
X427375Y475641D01*
X427278Y475515D01*
X427179Y475391D01*
X427076Y475269D01*
X426971Y475150D01*
X426862Y475034D01*
X426751Y474921D01*
X426637Y474810D01*
X426520Y474702D01*
X426401Y474598D01*
X426278Y474496D01*
X426154Y474397D01*
X426027Y474302D01*
X425897Y474209D01*
X425766Y474120D01*
X425632Y474035D01*
X425496Y473952D01*
X425358Y473874D01*
X425218Y473798D01*
X425076Y473726D01*
X424933Y473658D01*
X424787Y473593D01*
X424641Y473532D01*
X424492Y473475D01*
X424343Y473421D01*
X424192Y473371D01*
X424040Y473325D01*
X423886Y473283D01*
X423732Y473244D01*
X423577Y473210D01*
X423421Y473179D01*
X423264Y473153D01*
X423107Y473130D01*
X422949Y473111D01*
X422791Y473096D01*
X422632Y473085D01*
X422474Y473078D01*
X422315Y473075D01*
X422156Y473076D01*
X421997Y473081D01*
X421838Y473090D01*
X421680Y473103D01*
X421522Y473120D01*
X421364Y473141D01*
X421207Y473165D01*
X421051Y473194D01*
X420895Y473227D01*
X420741Y473263D01*
X420587Y473304D01*
X420434Y473348D01*
X420283Y473396D01*
X420132Y473447D01*
X419983Y473503D01*
X419836Y473562D01*
X419690Y473625D01*
X419545Y473692D01*
X419403Y473762D01*
X419262Y473835D01*
X419123Y473913D01*
X418986Y473993D01*
X418851Y474077D01*
X418718Y474165D01*
X418588Y474255D01*
X418459Y474349D01*
X418334Y474446D01*
X418210Y474546D01*
X418089Y474650D01*
X417971Y474756D01*
X417856Y474865D01*
X417743Y474977D01*
X417633Y475092D01*
X417526Y475210D01*
X417422Y475330D01*
X417321Y475453D01*
X417223Y475578D01*
X417128Y475705D01*
X417037Y475835D01*
X416949Y475968D01*
X416864Y476102D01*
X416782Y476239D01*
X416704Y476377D01*
X416630Y476517D01*
X416559Y476660D01*
X416491Y476804D01*
X416428Y476949D01*
X416367Y477096D01*
X416311Y477245D01*
X416258Y477395D01*
X416209Y477546D01*
X416164Y477698D01*
X416123Y477852D01*
X416085Y478006D01*
X416052Y478162D01*
X416022Y478318D01*
X415996Y478475D01*
X415975Y478632D01*
X415957Y478790D01*
X415943Y478949D01*
X415933Y479107D01*
X415927Y479266D01*
X415925Y479425D01*
X415925Y492125D02*
X409575Y492125D01*
X415925Y492125D02*
X428625Y492125D01*
X434975Y492125D01*
X434975Y466725D01*
X428625Y466725D01*
X415925Y466725D01*
X409575Y466725D01*
X409575Y492125D01*
X428625Y466725D02*
X428625Y460375D01*
X415925Y460375D02*
X415925Y466725D01*
X415925Y492125D02*
X415925Y498475D01*
X428625Y498475D02*
X428625Y492125D01*
X460375Y492125D02*
X485775Y492125D01*
X485775Y479425D02*
X460375Y479425D01*
M02*
