G04 EAGLE Gerber RS-274X export*
G75*
%MOMM*%
%FSLAX34Y34*%
%LPD*%
%INSoldermask Top*%
%IPPOS*%
%AMOC8*
5,1,8,0,0,1.08239X$1,22.5*%
G01*
%ADD10C,3.505200*%
%ADD11P,2.556822X8X22.500000*%
%ADD12C,1.511200*%


D10*
X269875Y504825D03*
X44450Y504825D03*
X31750Y812800D03*
X568325Y812800D03*
X31750Y31750D03*
X568325Y31750D03*
X371475Y777875D03*
X523875Y777875D03*
D11*
X269875Y304800D03*
X269875Y330200D03*
X269875Y355600D03*
X269875Y279400D03*
X269875Y568325D03*
X269875Y644525D03*
X269875Y619125D03*
X269875Y593725D03*
X269875Y69850D03*
X269875Y120650D03*
X269875Y146050D03*
X269875Y95250D03*
D12*
X364935Y568325D02*
X378015Y568325D01*
X378015Y542925D02*
X364935Y542925D01*
X364935Y517525D02*
X378015Y517525D01*
X378015Y492125D02*
X364935Y492125D01*
X364935Y466725D02*
X378015Y466725D01*
X378015Y441325D02*
X364935Y441325D01*
X364935Y415925D02*
X378015Y415925D01*
X378015Y390525D02*
X364935Y390525D01*
X364935Y365125D02*
X378015Y365125D01*
X378015Y339725D02*
X364935Y339725D01*
X364935Y314325D02*
X378015Y314325D01*
X378015Y288925D02*
X364935Y288925D01*
X364935Y263525D02*
X378015Y263525D01*
X378015Y238125D02*
X364935Y238125D01*
X364935Y212725D02*
X378015Y212725D01*
X378015Y187325D02*
X364935Y187325D01*
X364935Y161925D02*
X378015Y161925D01*
X378015Y136525D02*
X364935Y136525D01*
X364935Y111125D02*
X378015Y111125D01*
X378015Y85725D02*
X364935Y85725D01*
X517335Y568325D02*
X530415Y568325D01*
X530415Y542925D02*
X517335Y542925D01*
X517335Y517525D02*
X530415Y517525D01*
X530415Y492125D02*
X517335Y492125D01*
X517335Y466725D02*
X530415Y466725D01*
X530415Y441325D02*
X517335Y441325D01*
X517335Y415925D02*
X530415Y415925D01*
X530415Y390525D02*
X517335Y390525D01*
X517335Y365125D02*
X530415Y365125D01*
X530415Y339725D02*
X517335Y339725D01*
X517335Y314325D02*
X530415Y314325D01*
X530415Y288925D02*
X517335Y288925D01*
X517335Y263525D02*
X530415Y263525D01*
X530415Y238125D02*
X517335Y238125D01*
X517335Y212725D02*
X530415Y212725D01*
X530415Y187325D02*
X517335Y187325D01*
X517335Y161925D02*
X530415Y161925D01*
X530415Y136525D02*
X517335Y136525D01*
X517335Y111125D02*
X530415Y111125D01*
X530415Y85725D02*
X517335Y85725D01*
M02*
