M48
;GenerationSoftware,Autodesk,EAGLE,9.6.2*%
;CreationDate,2022-06-22T08:48:44Z*%
FMAT,2
ICI,OFF
METRIC,TZ,000.000
T3C0.800
T2C1.016
T1C3.302
%
G90
M71
T1
X26987Y50482
X4445Y50482
X3175Y81280
X56832Y81280
X3175Y3175
X56832Y3175
X37148Y77788
X52387Y77788
T2
X26987Y30480
X26987Y33020
X26987Y35560
X26987Y27940
X26987Y56832
X26987Y64452
X26987Y61912
X26987Y59372
X26987Y6985
X26987Y12065
X26987Y14605
X26987Y9525
T3
X37148Y56832
X37148Y54292
X37148Y51752
X37148Y49212
X37148Y46672
X37148Y44132
X37148Y41593
X37148Y39053
X37148Y36513
X37148Y33973
X37148Y31432
X37148Y28892
X37148Y26352
X37148Y23812
X37148Y21273
X37148Y18733
X37148Y16192
X37148Y13652
X37148Y11112
X37148Y8573
X52387Y56832
X52387Y54292
X52387Y51752
X52387Y49212
X52387Y46672
X52387Y44132
X52387Y41593
X52387Y39053
X52387Y36513
X52387Y33973
X52387Y31432
X52387Y28892
X52387Y26352
X52387Y23812
X52387Y21273
X52387Y18733
X52387Y16192
X52387Y13652
X52387Y11112
X52387Y8573
M30